<svg width="135" height="43" fill="none" xmlns="http://www.w3.org/2000/svg"><path d="M124.831 0H10.175c-.392 0-.778 0-1.168.002-.327.002-.651.009-.981.014-.717.008-1.432.072-2.139.19A6.872 6.872 0 00.874 3.89a7.133 7.133 0 00-.667 2.046c-.118.711-.182 1.43-.19 2.152-.01.33-.012.66-.017.99v24.848c.005.333.006.657.016.99.009.722.073 1.441.191 2.153.118.712.343 1.403.667 2.047a6.67 6.67 0 001.258 1.735c.504.513 1.088.94 1.727 1.267a7.116 7.116 0 002.028.678c.708.117 1.422.181 2.139.19.33.008.654.012.98.012.39.002.777.002 1.169.002H124.83c.384 0 .773 0 1.157-.002.325 0 .658-.004.984-.011a14.074 14.074 0 002.134-.19 7.228 7.228 0 002.036-.679 6.695 6.695 0 001.726-1.267 6.889 6.889 0 001.261-1.735 7.12 7.12 0 00.66-2.047c.119-.712.186-1.431.199-2.152.004-.334.004-.658.004-.991.008-.39.008-.78.008-1.176V10.252c0-.394 0-.785-.008-1.174 0-.33 0-.66-.004-.99-.013-.722-.08-1.44-.199-2.152a7.148 7.148 0 00-.66-2.046 6.925 6.925 0 00-2.987-3.01 7.189 7.189 0 00-2.036-.674 13.825 13.825 0 00-2.134-.19c-.326-.005-.659-.012-.984-.014C125.604 0 125.215 0 124.831 0z" fill="#A6A6A6"/><path d="M9.012 42.06c-.325 0-.643-.005-.965-.012a13.44 13.44 0 01-1.995-.175 6.245 6.245 0 01-1.768-.59 5.771 5.771 0 01-1.49-1.092 5.717 5.717 0 01-1.09-1.501 6.185 6.185 0 01-.58-1.782 13.602 13.602 0 01-.177-2.015 98.708 98.708 0 01-.015-.982V9.078s.01-.743.015-.962a13.43 13.43 0 01.177-2.012 6.22 6.22 0 01.58-1.787 5.775 5.775 0 011.083-1.503A5.941 5.941 0 016.048 1.13c.662-.109 1.33-.168 2.001-.176l.963-.013h116.971l.974.014c.664.008 1.327.066 1.983.174.62.106 1.221.305 1.783.59a5.986 5.986 0 012.577 2.6 6.21 6.21 0 01.571 1.773c.111.671.173 1.35.186 2.03.003.303.003.63.003.956.008.403.008.787.008 1.174V32.75c0 .39 0 .772-.008 1.156 0 .35 0 .67-.004 1a13.859 13.859 0 01-.183 1.992 6.163 6.163 0 01-.576 1.795 5.877 5.877 0 01-1.084 1.49 5.78 5.78 0 01-1.493 1.099c-.56.286-1.16.485-1.78.59a13.27 13.27 0 01-1.995.176 41.42 41.42 0 01-.957.012l-1.157.002-115.82-.002z" fill="#000"/><path d="M26.435 21.823a5.35 5.35 0 01.688-2.557 5.3 5.3 0 011.826-1.906 5.42 5.42 0 00-1.857-1.667 5.376 5.376 0 00-2.402-.653c-1.792-.19-3.529 1.08-4.442 1.08-.93 0-2.337-1.06-3.85-1.03a5.641 5.641 0 00-2.77.833 5.696 5.696 0 00-2.004 2.1c-2.064 3.6-.524 8.89 1.453 11.8.989 1.424 2.145 3.015 3.657 2.959 1.48-.062 2.033-.95 3.82-.95 1.77 0 2.289.95 3.832.914 1.588-.026 2.59-1.431 3.544-2.87a11.823 11.823 0 001.62-3.324 5.112 5.112 0 01-2.264-1.892 5.168 5.168 0 01-.851-2.837zm-2.915-8.696a5.263 5.263 0 001.189-3.752 5.278 5.278 0 00-3.423 1.784 4.994 4.994 0 00-1.22 3.613 4.347 4.347 0 001.914-.422 4.38 4.38 0 001.54-1.223zm51.138 3.163h.97c.08.35.482.577 1.121.577.79 0 1.258-.378 1.258-1.018v-.929h-.07a1.62 1.62 0 01-1.483.813c-1.227 0-1.986-.955-1.986-2.404 0-1.476.767-2.445 1.995-2.445a1.656 1.656 0 011.509.853h.075v-.773h.909v4.88c0 1.108-.861 1.81-2.22 1.81-1.2 0-1.977-.542-2.078-1.365zm3.367-2.966c0-.964-.495-1.582-1.303-1.582-.816 0-1.274.618-1.274 1.582 0 .965.458 1.583 1.274 1.583.813 0 1.303-.613 1.303-1.583zm7.835-2.36h.914v.742h.07a1.31 1.31 0 01.517-.623c.233-.148.506-.218.781-.2a2.07 2.07 0 01.423.04v.944a2.576 2.576 0 00-.53-.058 1.119 1.119 0 00-1.133.678 1.143 1.143 0 00-.093.46v2.858h-.948v-4.84zm-14.779 0h.913v.742h.071a1.31 1.31 0 01.516-.623 1.3 1.3 0 01.781-.2c.142-.001.284.012.424.04v.944a2.574 2.574 0 00-.53-.058 1.118 1.118 0 00-.863.295 1.136 1.136 0 00-.363.843v2.858h-.949v-4.84zm39.493-.094c1.08 0 1.787.507 1.88 1.36h-.91c-.088-.355-.433-.582-.97-.582-.53 0-.932.254-.932.631 0 .29.243.472.764.592l.798.186c.914.214 1.342.61 1.342 1.321 0 .911-.843 1.52-1.99 1.52-1.143 0-1.888-.52-1.973-1.378h.95a.977.977 0 001.045.604c.591 0 1.011-.266 1.011-.653 0-.289-.225-.476-.707-.591l-.838-.196c-.914-.218-1.337-.63-1.337-1.351 0-.858.781-1.462 1.867-1.462zm-12.823 3.566c0-.872.644-1.374 1.787-1.445l1.302-.076v-.418c0-.511-.335-.8-.984-.8-.53 0-.896.196-1.001.538h-.918c.097-.831.873-1.364 1.963-1.364 1.205 0 1.884.604 1.884 1.626v3.308h-.913v-.68h-.075a1.609 1.609 0 01-1.443.76 1.44 1.44 0 01-1.12-.367 1.462 1.462 0 01-.482-1.082zm3.089-.414v-.405l-1.173.076c-.662.045-.962.271-.962.698 0 .436.375.69.89.69a1.127 1.127 0 001.126-.62c.068-.137.109-.286.119-.439zm-35.276.414c0-.872.644-1.374 1.787-1.445l1.302-.076v-.418c0-.511-.336-.8-.984-.8-.53 0-.896.196-1.002.538h-.918c.097-.831.874-1.364 1.964-1.364 1.204 0 1.883.604 1.883 1.626v3.308h-.912v-.68h-.075a1.621 1.621 0 01-1.443.76 1.44 1.44 0 01-1.12-.367 1.46 1.46 0 01-.482-1.082zm3.089-.414v-.405l-1.174.076c-.662.045-.962.271-.962.698 0 .436.376.69.891.69a1.124 1.124 0 00.845-.264 1.141 1.141 0 00.4-.795zm15.877.476a1.964 1.964 0 01-.789 1.08 1.94 1.94 0 01-1.293.32 2.17 2.17 0 01-1.684-.732 2.202 2.202 0 01-.536-1.766 2.25 2.25 0 01.535-1.774 2.216 2.216 0 011.68-.755c1.338 0 2.144.92 2.144 2.44v.333h-3.393v.054a1.288 1.288 0 00.335.978 1.269 1.269 0 00.945.409 1.144 1.144 0 001.143-.587h.913zm-3.336-1.56h2.427a1.175 1.175 0 00-.711-1.165 1.15 1.15 0 00-.472-.09 1.22 1.22 0 00-.884.364 1.24 1.24 0 00-.36.89zm22.075-1.974h.913v.769h.071a1.431 1.431 0 011.434-.862 1.552 1.552 0 011.261.497 1.58 1.58 0 01.402 1.303v3.134h-.948V12.91c0-.778-.336-1.165-1.037-1.165a1.1 1.1 0 00-1.096.755c-.051.152-.068.313-.051.472v2.832h-.949v-4.841zm-45.214 1.582a1.08 1.08 0 00-.416-.623 1.067 1.067 0 00-.718-.2c-.794 0-1.28.614-1.28 1.645 0 1.05.49 1.676 1.28 1.676a1.048 1.048 0 001.134-.795h.923c-.061.49-.31.936-.693 1.245a1.87 1.87 0 01-1.36.404 2.192 2.192 0 01-1.71-.737 2.227 2.227 0 01-.544-1.793 2.222 2.222 0 01.549-1.775 2.191 2.191 0 011.7-.723c.492-.045.983.104 1.367.417s.632.765.69 1.259h-.922zm-20.006 3.258v-5.507h-2.003V9.39h4.99v.907h-1.998v5.507h-.99zm53.933-2.422c0-1.53.78-2.498 1.995-2.498a1.574 1.574 0 011.473.849h.071V9.074h.948v6.73h-.908v-.764h-.075a1.658 1.658 0 01-1.509.845c-1.223 0-1.995-.97-1.995-2.503zm.98 0c0 1.027.48 1.645 1.284 1.645.799 0 1.293-.627 1.293-1.64 0-1.01-.5-1.645-1.293-1.645-.799 0-1.284.622-1.284 1.64zM60.236 9.074h.94v2.668h.075c.127-.279.335-.512.597-.667a1.47 1.47 0 01.869-.2 1.574 1.574 0 011.248.51 1.598 1.598 0 01.407 1.294v3.126h-.95v-2.89c0-.773-.357-1.165-1.027-1.165a1.115 1.115 0 00-.889.33 1.134 1.134 0 00-.321.897v2.828h-.949v-6.73zm-13.226 0h.948v6.73h-.948v-6.73zm6.568 5.424a1.964 1.964 0 01-.788 1.08 1.94 1.94 0 01-1.294.32 2.17 2.17 0 01-1.684-.732 2.202 2.202 0 01-.535-1.767 2.248 2.248 0 01.535-1.773 2.217 2.217 0 011.68-.755c1.337 0 2.144.92 2.144 2.44v.333h-3.393v.054a1.288 1.288 0 00.335.978 1.27 1.27 0 00.944.408 1.144 1.144 0 001.144-.586h.913zm-3.335-1.56h2.427a1.176 1.176 0 00-.316-.891 1.159 1.159 0 00-.867-.363 1.22 1.22 0 00-.885.362 1.236 1.236 0 00-.36.892zm.68-2.784l1.107-1.529h1.112l-1.24 1.53h-.98zm-5.287 4.344a1.964 1.964 0 01-.79 1.08 1.94 1.94 0 01-1.293.32 2.17 2.17 0 01-1.684-.732 2.202 2.202 0 01-.535-1.767 2.248 2.248 0 01.534-1.773 2.217 2.217 0 011.681-.755c1.337 0 2.144.92 2.144 2.44v.333H42.3v.054a1.29 1.29 0 00.335.978 1.27 1.27 0 00.944.408 1.144 1.144 0 001.144-.586h.913zm-3.336-1.56h2.427a1.175 1.175 0 00-.711-1.165 1.15 1.15 0 00-.472-.09 1.22 1.22 0 00-.885.363 1.238 1.238 0 00-.36.892zm.68-2.784l1.107-1.529h1.112l-1.24 1.53h-.98zm66.965 12.886h1.892v1.656h.046c.128-.518.428-.975.852-1.295.423-.32.943-.484 1.471-.464.229 0 .457.024.68.075v1.868a2.756 2.756 0 00-.891-.12 1.982 1.982 0 00-1.545.64 2.034 2.034 0 00-.522 1.6v5.772h-1.983V23.04zm-33.146 4.866c0 3.025-1.607 4.968-4.032 4.968a3.256 3.256 0 01-1.763-.412 3.288 3.288 0 01-1.277-1.291h-.046v4.82h-1.983V23.04h1.92v1.618h.036c.31-.54.76-.985 1.302-1.288a3.406 3.406 0 011.774-.432c2.452 0 4.069 1.953 4.069 4.97zm-2.039 0c0-1.97-1.01-3.266-2.553-3.266-1.515 0-2.534 1.322-2.534 3.266 0 1.961 1.019 3.274 2.534 3.274 1.542 0 2.553-1.286 2.553-3.274zm-8.595 0c0 3.025-1.607 4.968-4.032 4.968a3.256 3.256 0 01-1.763-.412 3.288 3.288 0 01-1.276-1.291h-.046v4.82h-1.983V23.04h1.919v1.618h.036c.311-.54.761-.985 1.303-1.288a3.407 3.407 0 011.774-.432c2.452 0 4.068 1.953 4.068 4.97zm-2.038 0c0-1.97-1.01-3.266-2.553-3.266-1.515 0-2.535 1.322-2.535 3.266 0 1.961 1.02 3.274 2.535 3.274 1.542 0 2.553-1.286 2.553-3.274zm35.018 0c0-3.063 1.79-4.987 4.582-4.987 2.801 0 4.583 1.924 4.583 4.987 0 3.07-1.773 4.987-4.583 4.987-2.81 0-4.582-1.916-4.582-4.987zm7.144 0c0-2.101-.955-3.341-2.562-3.341-1.607 0-2.562 1.25-2.562 3.341 0 2.11.955 3.34 2.562 3.34 1.607 0 2.562-1.23 2.562-3.34zm17.739 2.007c-.266 1.767-1.974 2.98-4.16 2.98-2.81 0-4.555-1.897-4.555-4.94 0-3.054 1.754-5.034 4.472-5.034 2.673 0 4.354 1.85 4.354 4.801v.685h-6.824v.12a2.554 2.554 0 00.682 1.97 2.516 2.516 0 001.917.787 2.178 2.178 0 002.231-1.369h1.883zm-6.703-2.905h4.83a2.35 2.35 0 00-1.436-2.294 2.306 2.306 0 00-.934-.176 2.43 2.43 0 00-1.741.719 2.472 2.472 0 00-.719 1.751zm-21.08-6.273v2.304h1.837v1.582h-1.837v5.366c0 .833.367 1.222 1.175 1.222.218-.004.436-.02.652-.046v1.572c-.363.069-.732.1-1.101.093-1.956 0-2.719-.74-2.719-2.628v-5.58h-1.405v-1.58h1.405v-2.304h1.993zm-54.309 3.572l1.084-4.885h1.928l-1.313 4.885h-1.699zm10.51 4.857h-5.051l-1.213 3.608h-2.14l4.785-13.35h2.222l4.785 13.35h-2.176l-1.212-3.608zm-4.528-1.665h4.004l-1.974-5.856h-.055l-1.975 5.856zm-10.357-8.077h1.984v13.35h-1.984v-13.35zm46.266 9.631c.147 1.323 1.423 2.193 3.168 2.193 1.671 0 2.874-.87 2.874-2.063 0-1.036-.725-1.657-2.443-2.082l-1.717-.417c-2.434-.592-3.563-1.739-3.563-3.599 0-2.303 1.992-3.885 4.822-3.885 2.8 0 4.72 1.582 4.784 3.885H89.75c-.12-1.332-1.213-2.136-2.81-2.136-1.598 0-2.691.813-2.691 1.997 0 .944.698 1.5 2.406 1.925l1.46.36c2.719.649 3.848 1.75 3.848 3.702 0 2.497-1.974 4.062-5.115 4.062-2.94 0-4.923-1.528-5.052-3.942h2.03z" fill="#fff"/></svg>