<svg width="145" height="44" fill="none" xmlns="http://www.w3.org/2000/svg"><path d="M139.333.667H6A5.333 5.333 0 00.667 6v32A5.333 5.333 0 006 43.333h133.333A5.334 5.334 0 00144.667 38V6a5.334 5.334 0 00-5.334-5.333z" fill="#000"/><path d="M139.333 1.52a4.48 4.48 0 014.48 4.48v32a4.48 4.48 0 01-4.48 4.48H6A4.48 4.48 0 011.52 38V6A4.48 4.48 0 016 1.52h133.333zm0-.853H6A5.333 5.333 0 00.667 6v32A5.333 5.333 0 006 43.333h133.333A5.336 5.336 0 00144.667 38V6a5.334 5.334 0 00-5.334-5.333z" fill="#A6A6A6"/><path d="M73.35 23.867a4.544 4.544 0 104.554 4.533 4.471 4.471 0 00-4.555-4.533zm0 7.285a2.752 2.752 0 112.56-2.752 2.625 2.625 0 01-2.56 2.752zm-9.942-7.285a4.544 4.544 0 104.555 4.533 4.47 4.47 0 00-4.555-4.533zm0 7.285a2.752 2.752 0 112.56-2.752 2.625 2.625 0 01-2.56 2.752zm-11.819-5.888v1.92h4.608a4.022 4.022 0 01-1.066 2.421 4.714 4.714 0 01-3.563 1.409 5.12 5.12 0 110-10.24 4.949 4.949 0 013.499 1.375l1.354-1.354a6.72 6.72 0 00-4.832-1.942 7.051 7.051 0 100 14.091 6.473 6.473 0 004.918-1.973 6.4 6.4 0 001.664-4.512c.004-.4-.029-.8-.096-1.195h-6.486zm48.331 1.494a4.266 4.266 0 00-3.883-2.891 4.267 4.267 0 00-4.266 4.533 4.512 4.512 0 008.277 2.528l-1.547-1.067a2.57 2.57 0 01-2.229 1.248 2.293 2.293 0 01-2.197-1.376l6.069-2.506-.224-.47zm-6.187 1.514a2.496 2.496 0 012.38-2.656 1.75 1.75 0 011.674.97l-4.054 1.686zm-4.928 4.395H90.8V19.333h-1.995v13.334zm-3.264-7.787h-.074a3.137 3.137 0 00-2.39-1.066 4.544 4.544 0 000 9.077 3.071 3.071 0 002.39-1.067h.074v.65c0 1.74-.928 2.668-2.42 2.668a2.518 2.518 0 01-2.294-1.611l-1.728.715a4.267 4.267 0 004.021 2.688c2.336 0 4.267-1.377 4.267-4.726v-8.074H85.54v.746zm-2.293 6.272a2.752 2.752 0 010-5.493A2.55 2.55 0 0185.68 28.4a2.54 2.54 0 01-2.432 2.752zm26.016-11.819h-4.779v13.334h1.995V27.61h2.784a4.15 4.15 0 100-8.277zm0 6.4h-2.784V21.19h2.827a2.283 2.283 0 010 4.566l-.043-.021zm12.309-1.909a3.723 3.723 0 00-3.552 2.037l1.76.736a1.9 1.9 0 011.824-.97 1.92 1.92 0 012.134 1.717v.128a4.464 4.464 0 00-2.08-.512c-1.899 0-3.84 1.067-3.84 3.008a3.073 3.073 0 001.037 2.17 3.087 3.087 0 002.28.764 2.83 2.83 0 002.539-1.302h.064v1.067h1.92v-5.13c0-2.337-1.771-3.691-4.043-3.691l-.043-.022zm-.245 7.307c-.651 0-1.557-.33-1.557-1.13 0-1.068 1.13-1.43 2.133-1.43a3.534 3.534 0 011.813.448 2.408 2.408 0 01-2.346 2.133l-.043-.021zm11.328-6.997l-2.283 5.78h-.064l-2.368-5.78h-2.133l3.552 8.085-2.027 4.49h2.08l5.462-12.576h-2.219zm-17.92 8.533h1.984V19.333h-1.984v13.334z" fill="#fff"/><path d="M11.803 8.71c-.352.415-.531.95-.502 1.493v23.594a2.07 2.07 0 00.502 1.494l.074.085L25.093 22.16v-.32L11.877 8.635l-.074.074z" fill="url(#paint0_linear)"/><path d="M29.467 26.565l-4.374-4.405v-.32l4.374-4.405.096.064 5.237 2.965c1.493.843 1.493 2.23 0 3.083l-5.216 2.965-.117.053z" fill="url(#paint1_linear)"/><path d="M29.595 26.501L25.093 22l-13.29 13.29a1.728 1.728 0 002.208.075l15.584-8.864" fill="url(#paint2_linear)"/><path opacity=".2" d="M29.467 26.405l-15.456 8.8a1.77 1.77 0 01-2.134 0l-.074.075.074.085a1.77 1.77 0 002.134 0l15.584-8.864-.128-.096z" fill="#000"/><path opacity=".12" d="M11.803 35.141a2.134 2.134 0 01-.47-1.504v.16a2.07 2.07 0 00.502 1.494l.074-.075-.107-.075zM34.8 23.387l-5.333 3.018.096.096 5.237-2.965A1.866 1.866 0 0035.93 22a1.984 1.984 0 01-1.13 1.387z" fill="#000"/><path d="M29.595 17.499L14.01 8.645a1.717 1.717 0 00-2.208.064L25.093 22l4.502-4.5z" fill="url(#paint3_linear)"/><path opacity=".25" d="M14.01 8.795L34.8 20.613A1.985 1.985 0 0135.93 22a1.868 1.868 0 00-1.13-1.536L14.01 8.645c-1.482-.853-2.709-.15-2.709 1.558v.16c.032-1.707 1.227-2.411 2.71-1.568z" fill="#fff"/><path d="M104.069 14.672a2.237 2.237 0 01-1.717-.693 2.563 2.563 0 01-.651-1.824V8.133h.822v4.054c-.022.446.118.886.394 1.237a1.447 1.447 0 001.152.47 1.41 1.41 0 001.131-.427c.28-.35.424-.79.405-1.238V8.133h.822v4.022a2.573 2.573 0 01-.64 1.824 2.206 2.206 0 01-1.718.693z" fill="#fff"/><path fill-rule="evenodd" clip-rule="evenodd" d="M101.601 8.033h1.022v4.158c-.021.422.111.836.371 1.168a1.333 1.333 0 001.069.434h.015a1.31 1.31 0 001.047-.393c.263-.33.398-.744.38-1.167v-4.2h1.022v4.12a2.675 2.675 0 01-.665 1.892l-.002.002a2.308 2.308 0 01-1.791.725 2.34 2.34 0 01-1.789-.725l-.002-.002a2.662 2.662 0 01-.677-1.893V8.033zm2.468 6.639l.005-.1a2.11 2.11 0 001.639-.66 2.476 2.476 0 00.614-1.753V8.234h-.622v3.993a1.95 1.95 0 01-.427 1.302l-.006.007a1.5 1.5 0 01-1.204.457 1.542 1.542 0 01-1.225-.502l-.004-.005a1.95 1.95 0 01-.416-1.302v-3.95h-.622v3.925a2.458 2.458 0 00.625 1.752 2.14 2.14 0 001.639.661l.004.1z" fill="#fff"/><path d="M93.552 8.923H90.64v2.026h2.624v.768H90.64v2.027h2.912v.79H89.82v-6.4h3.733v.789z" fill="#fff"/><path fill-rule="evenodd" clip-rule="evenodd" d="M89.719 8.033h3.933v.99H90.74v1.826h2.624v.968H90.74v1.827h2.912v.99H89.72v-6.6zm.2.2v6.2h3.533v-.59H90.54v-2.226h2.624v-.568H90.54V8.823h2.912v-.59H89.92z" fill="#fff"/><path d="M85.19 14.533v-6.4H86v5.611h2.773v.79H85.19z" fill="#fff"/><path fill-rule="evenodd" clip-rule="evenodd" d="M85.09 8.033h1.01v5.61h2.773v.99H85.09v-6.6zm.2.2v6.2h3.383v-.59H85.9v-5.61h-.61z" fill="#fff"/><path d="M79.696 14.533v-6.4h2.315c.48-.004.944.17 1.301.491a1.61 1.61 0 01.555 1.248c.002.287-.08.57-.235.81-.157.23-.375.41-.63.523.309.106.58.298.78.555.196.261.3.58.298.907a1.675 1.675 0 01-.576 1.301c-.37.345-.86.532-1.365.523l-2.443.042zm.821-3.658h1.494a.927.927 0 00.746-.31.96.96 0 00.288-.672.992.992 0 00-.245-.693.906.906 0 00-.715-.299h-1.568v1.974zm0 2.87h1.664a.982.982 0 00.768-.332c.185-.196.288-.456.288-.725a1.067 1.067 0 00-.298-.715 1.065 1.065 0 00-.8-.33h-1.622v2.101z" fill="#fff"/><path fill-rule="evenodd" clip-rule="evenodd" d="M83.245 8.698a1.82 1.82 0 00-1.233-.465h-2.216v6.198l2.345-.04c.48.008.944-.17 1.295-.496l.002-.003a1.574 1.574 0 00.542-1.223v-.003a1.393 1.393 0 00-.278-.845 1.575 1.575 0 00-.732-.521l.033-.095-.04-.091a1.41 1.41 0 00.586-.487 1.38 1.38 0 00.218-.754V9.87a1.511 1.511 0 00-.52-1.17l-.002-.002zm-.008 2.496c.243.118.456.29.623.504l.001.002c.21.279.321.618.32.966a1.775 1.775 0 01-.61 1.376 2.052 2.052 0 01-1.432.549l-2.543.044V8.033h2.414a2.02 2.02 0 011.368.516 1.71 1.71 0 01.589 1.324c.002.306-.085.606-.25.864l-.002.002a1.604 1.604 0 01-.478.455zm-1.154-2.393a1.007 1.007 0 01.791.332l.001.001c.184.21.281.483.27.762a1.06 1.06 0 01-.315.738 1.028 1.028 0 01-.822.34h-1.59V8.802h1.665zm.355.262A.807.807 0 0082.09 9h-1.473v1.774h1.4a.828.828 0 00.666-.276l.004-.005a.86.86 0 00.258-.602v-.003a.892.892 0 00-.22-.623.807.807 0 00-.287-.203zm-.3 2.48a1.168 1.168 0 01.873.361c.203.21.32.49.326.781v.003a1.167 1.167 0 01-.314.793 1.082 1.082 0 01-.843.363h-1.763v-2.301h1.72zm.398.273a.967.967 0 00-.395-.073h-1.524v1.901h1.568a.882.882 0 00.69-.297l.001-.002a.967.967 0 00.261-.656.967.967 0 00-.27-.646.97.97 0 00-.331-.227z" fill="#fff"/><path d="M77.467 14.533v-6.4h.821v6.4h-.821z" fill="#fff"/><path fill-rule="evenodd" clip-rule="evenodd" d="M77.367 8.033h1.021v6.6h-1.021v-6.6zm.2.2v6.2h.621v-6.2h-.621z" fill="#fff"/><path d="M71.067 14.533v-6.4h1.002l3.104 4.982V8.133h.832v6.4h-.864l-3.2-5.216v5.217h-.874z" fill="#fff"/><path fill-rule="evenodd" clip-rule="evenodd" d="M70.967 8.033h1.158l2.948 4.732V8.033h1.032v6.6h-1.02l-3.044-4.962v4.962h-1.074v-6.6zm.2.2v6.2h.674v-5.47l3.356 5.47h.708v-6.2h-.632v5.231l-3.26-5.23h-.846z" fill="#fff"/><path d="M51.056 14.533v-6.4h.81v6.4h-.81z" fill="#fff"/><path fill-rule="evenodd" clip-rule="evenodd" d="M50.956 8.033h1.01v6.6h-1.01v-6.6zm.2.2v6.2h.61v-6.2h-.61z" fill="#fff"/><path d="M107.76 14.534v-6.4h2.133a2.005 2.005 0 011.408.544 1.76 1.76 0 01.598 1.365 1.829 1.829 0 01-.438 1.184 1.874 1.874 0 01-1.066.64l1.792 2.667h-.971l-1.749-2.592h-.907v2.592h-.8zm.821-3.36h1.323a1.21 1.21 0 00.843-.32 1.073 1.073 0 00.352-.81 1.161 1.161 0 00-.31-.78 1.06 1.06 0 00-.832-.341h-1.376v2.25z" fill="#fff"/><path fill-rule="evenodd" clip-rule="evenodd" d="M111.233 8.75a1.907 1.907 0 00-1.338-.517h-2.035v6.2h.6v-2.591h1.06l1.749 2.591h.73l-1.687-2.51.083-.056-.021-.098a1.777 1.777 0 001.01-.606l.001-.001c.267-.312.413-.709.414-1.12v-.002a1.645 1.645 0 00-.564-1.287l-.002-.003zm-.676 3.18l1.817 2.704h-1.211l-1.75-2.593h-.753v2.592h-1v-6.6h2.232a2.104 2.104 0 011.476.57 1.844 1.844 0 01.631 1.441c-.001.457-.164.9-.461 1.247a1.98 1.98 0 01-.981.639zm-.602-3.107a1.168 1.168 0 01.908.373c.213.23.332.532.336.845a1.171 1.171 0 01-.385.886 1.306 1.306 0 01-.911.347h-1.422V8.822h1.474zm.418.271a.967.967 0 00-.411-.071h-1.281v2.05h1.225c.286.006.563-.099.773-.293h.001a.973.973 0 00.319-.735 1.07 1.07 0 00-.283-.713.973.973 0 00-.343-.238z" fill="#fff"/><path d="M59.333 14.534h-.821v-6.4h2.133a2.005 2.005 0 011.408.544 1.844 1.844 0 010 2.72c-.38.357-.885.553-1.408.544h-1.312v2.592zm0-3.382h1.387a1.067 1.067 0 00.821-.341 1.067 1.067 0 000-1.547 1.066 1.066 0 00-.821-.341h-1.387v2.23z" fill="#fff"/><path fill-rule="evenodd" clip-rule="evenodd" d="M61.985 8.75a1.905 1.905 0 00-1.338-.517h-2.035v6.2h.621v-2.591h1.414a1.91 1.91 0 001.338-.517v-.001a1.744 1.744 0 000-2.573zm.136-.146a2.101 2.101 0 00-1.477-.57h-2.232v6.6h1.021V12.04h1.212a2.106 2.106 0 001.476-.57 1.945 1.945 0 000-2.867zm-1.403.219a1.167 1.167 0 01.894.37 1.166 1.166 0 010 1.688 1.165 1.165 0 01-.894.371h-1.485v-2.43h1.485zm.412.273a.967.967 0 00-.406-.073h-1.291v2.03h1.29a.967.967 0 00.745-.31l.004-.005a.965.965 0 000-1.401l-.004-.005a.967.967 0 00-.338-.236z" fill="#fff"/><path d="M44.699 14.534v-6.4h1.952a3.2 3.2 0 012.368.885 3.2 3.2 0 01.885 2.315 3.2 3.2 0 01-.885 2.314 3.2 3.2 0 01-2.368.886h-1.952zm.821-.79h1.13a2.217 2.217 0 002.411-2.41 2.23 2.23 0 00-2.41-2.411h-1.13v4.821z" fill="#fff"/><path fill-rule="evenodd" clip-rule="evenodd" d="M47.89 8.426a3.1 3.1 0 00-1.234-.193h-1.857v6.2h1.857a3.1 3.1 0 002.292-.855 3.1 3.1 0 00.856-2.241v-.007a3.1 3.1 0 00-.856-2.24 3.1 3.1 0 00-1.057-.664zm-1.242-.392a3.3 3.3 0 012.44.913l.003.003a3.3 3.3 0 01.913 2.384 3.3 3.3 0 01-.913 2.383l-.003.003a3.3 3.3 0 01-2.44.913h-2.05v-6.6h2.05zm-.002.789a2.329 2.329 0 012.516 2.51 2.319 2.319 0 01-2.516 2.511H45.42V8.823h1.227zm.925.321a2.129 2.129 0 00-.912-.122l-.008.001h-1.03v4.621h1.039a2.12 2.12 0 002.302-2.301l-.001-.01v-.008a2.13 2.13 0 00-1.39-2.181z" fill="#fff"/><path d="M98.522 14.672a2.442 2.442 0 01-1.365-.448 2.134 2.134 0 01-.864-1.28l.747-.31c.091.348.284.66.554.897.255.23.585.359.928.362.33.01.653-.092.918-.288a.886.886 0 00.384-.757.981.981 0 00-.384-.832 4.034 4.034 0 00-1.206-.544 3.019 3.019 0 01-1.28-.693 1.399 1.399 0 01-.437-1.067 1.61 1.61 0 01.544-1.205 2.304 2.304 0 012.741-.096c.308.219.539.528.662.885l-.747.31a1.066 1.066 0 00-.405-.555 1.184 1.184 0 00-.81-.267 1.302 1.302 0 00-.811.267.821.821 0 00-.342.661.747.747 0 00.31.597c.275.198.582.35.906.448.273.08.54.175.8.288.226.107.44.236.64.384.211.151.38.353.491.587.115.258.173.539.171.821.004.29-.062.575-.192.832a1.497 1.497 0 01-.512.576 2.379 2.379 0 01-.683.331c-.246.07-.502.101-.758.096v0z" fill="#fff" stroke="#fff" stroke-width=".2" stroke-miterlimit="10"/><path d="M55.141 14.672a2.388 2.388 0 01-1.354-.448 2.133 2.133 0 01-.875-1.28l.747-.31c.091.348.284.66.554.897.255.23.585.359.928.362.33.011.654-.09.918-.288a.886.886 0 00.384-.757.981.981 0 00-.384-.832 3.95 3.95 0 00-1.195-.544 3.06 3.06 0 01-1.29-.693 1.44 1.44 0 01-.438-1.067 1.61 1.61 0 01.544-1.205 2.304 2.304 0 012.741-.096c.307.219.539.528.662.885l-.747.31a1.12 1.12 0 00-.395-.555 1.227 1.227 0 00-.821-.267 1.302 1.302 0 00-.81.267.81.81 0 00-.251.998.717.717 0 00.229.26c.273.202.58.354.907.448.268.08.532.177.789.288.227.104.441.233.64.384.21.151.38.353.49.587.12.257.179.538.171.821a1.77 1.77 0 01-.192.832 1.493 1.493 0 01-.512.576 2.38 2.38 0 01-.682.331 2.59 2.59 0 01-.758.096z" fill="#fff"/><path fill-rule="evenodd" clip-rule="evenodd" d="M56.364 8.492a2.204 2.204 0 00-2.62.091 1.51 1.51 0 00-.508 1.129v.002a1.34 1.34 0 00.406.992c.355.32.783.55 1.247.67a4.05 4.05 0 011.226.557l.004.003a1.083 1.083 0 01.424.913.986.986 0 01-.426.838 1.55 1.55 0 01-.978.306 1.508 1.508 0 01-.992-.388 1.903 1.903 0 01-.553-.835l-.564.233c.128.463.415.867.813 1.138l.002.002a2.29 2.29 0 001.298.429c.246.005.491-.026.728-.092.233-.07.453-.177.653-.317l.002-.001a1.4 1.4 0 00.478-.538c.123-.243.186-.513.181-.785v-.005a1.723 1.723 0 00-.16-.775 1.425 1.425 0 00-.46-.548l-.002-.002a3.288 3.288 0 00-.62-.372 7 7 0 00-.777-.284 2.958 2.958 0 01-.936-.462.815.815 0 01-.351-.68.912.912 0 01.37-.74c.25-.19.556-.292.87-.287.32-.014.633.088.883.288.173.13.308.303.392.501l.561-.232c-.122-.3-.327-.56-.591-.748zm-2.485 1.22V9.71h.1l-.1.002v-.001zm1.152-1.806a2.404 2.404 0 011.447.422l.001.001c.325.231.568.558.698.934l.03.09-.933.386-.033-.103a1.02 1.02 0 00-.36-.505l-.002-.002a1.127 1.127 0 00-.755-.245h-.006a1.201 1.201 0 00-.748.246l-.002.001a.711.711 0 00-.29.58v.002a.615.615 0 00.267.514l.002.002c.264.195.56.341.875.432.273.082.54.18.802.293h.002c.233.107.453.24.657.395.224.16.404.375.522.624.126.27.188.567.18.865.005.304-.065.605-.203.876-.124.249-.312.46-.544.614a2.478 2.478 0 01-.71.344h-.002a2.716 2.716 0 01-.787.1 2.49 2.49 0 01-1.409-.466l.057-.082-.059.081h.001a2.233 2.233 0 01-.914-1.338l-.02-.083.931-.386.03.111c.086.328.268.623.523.846l.001.001c.237.214.544.334.862.337h.003c.306.01.608-.084.854-.268l.003-.002a.784.784 0 00.34-.672v-.008a.881.881 0 00-.342-.746l.003.002.056-.083-.061.08.002.001a3.844 3.844 0 00-1.161-.528 3.162 3.162 0 01-1.333-.716l-.002-.003a1.54 1.54 0 01-.468-1.14v.002h.1l-.1-.002a1.71 1.71 0 01.578-1.278l.004-.004a2.404 2.404 0 011.413-.522z" fill="#fff"/><path d="M68.933 13.701a3.318 3.318 0 01-4.693 0 3.456 3.456 0 010-4.736 3.317 3.317 0 014.693 0 3.285 3.285 0 01.928 2.368 3.202 3.202 0 01-.928 2.368zm-4.085-.533a2.367 2.367 0 001.739.725 2.336 2.336 0 001.738-.725 2.71 2.71 0 000-3.67 2.337 2.337 0 00-1.738-.725 2.368 2.368 0 00-1.739.726 2.741 2.741 0 000 3.669z" fill="#fff"/><path fill-rule="evenodd" clip-rule="evenodd" d="M66.587 8.093a3.217 3.217 0 00-2.275.942 3.356 3.356 0 000 4.597 3.216 3.216 0 004.55-.002 3.1 3.1 0 00.9-2.293v-.006a3.184 3.184 0 00-.9-2.296 3.216 3.216 0 00-2.275-.942zm2.346 5.608l.071.07a3.415 3.415 0 01-4.835 0l-.002-.001a3.556 3.556 0 010-4.873l.002-.003a3.418 3.418 0 014.835 0l.001.001a3.385 3.385 0 01.956 2.438 3.298 3.298 0 01-.957 2.439l-.07-.07zm-2.347-5.028a2.436 2.436 0 011.812.757h.001a2.81 2.81 0 010 3.806h-.001a2.435 2.435 0 01-1.812.757 2.47 2.47 0 01-1.81-.756l-.002-.002a2.842 2.842 0 010-3.803l.002-.003a2.47 2.47 0 011.81-.756zm.908.372a2.236 2.236 0 00-.905-.172h-.004a2.269 2.269 0 00-1.664.694 2.641 2.641 0 000 3.533 2.268 2.268 0 001.664.693h.004a2.236 2.236 0 001.663-.693 2.61 2.61 0 000-3.533 2.236 2.236 0 00-.758-.522z" fill="#fff"/><defs><linearGradient id="paint0_linear" x1="23.92" y1="9.957" x2="6.021" y2="27.856" gradientUnits="userSpaceOnUse"><stop stop-color="#00A0FF"/><stop offset=".01" stop-color="#00A1FF"/><stop offset=".26" stop-color="#00BEFF"/><stop offset=".51" stop-color="#00D2FF"/><stop offset=".76" stop-color="#00DFFF"/><stop offset="1" stop-color="#00E3FF"/></linearGradient><linearGradient id="paint1_linear" x1="36.752" y1="22" x2="10.949" y2="22" gradientUnits="userSpaceOnUse"><stop stop-color="#FFE000"/><stop offset=".41" stop-color="#FFBD00"/><stop offset=".78" stop-color="orange"/><stop offset="1" stop-color="#FF9C00"/></linearGradient><linearGradient id="paint2_linear" x1="27.152" y1="24.453" x2="2.875" y2="48.72" gradientUnits="userSpaceOnUse"><stop stop-color="#FF3A44"/><stop offset="1" stop-color="#C31162"/></linearGradient><linearGradient id="paint3_linear" x1="8.453" y1=".859" x2="19.291" y2="11.696" gradientUnits="userSpaceOnUse"><stop stop-color="#32A071"/><stop offset=".07" stop-color="#2DA771"/><stop offset=".48" stop-color="#15CF74"/><stop offset=".8" stop-color="#06E775"/><stop offset="1" stop-color="#00F076"/></linearGradient></defs></svg>