<svg width="18" height="16" fill="none" xmlns="http://www.w3.org/2000/svg"><path d="M16.15 3.987c.011.175.011.35.011.526C16.161 9.85 12.45 16 5.665 16A9.783 9.783 0 010 14.187c.297.038.582.05.89.05 1.725 0 3.313-.637 4.58-1.725-1.621-.037-2.98-1.2-3.448-2.8a3.598 3.598 0 001.667-.074C2 9.262.731 7.638.731 5.675v-.05c.491.3 1.062.488 1.667.512C1.405 5.412.754 4.175.754 2.775A4.3 4.3 0 011.256.737c1.816 2.45 4.546 4.05 7.607 4.225a4.971 4.971 0 01-.091-.924C8.772 1.812 10.416 0 12.46 0c1.062 0 2.021.487 2.695 1.275A6.895 6.895 0 0017.497.3a3.982 3.982 0 01-1.621 2.225A6.9 6.9 0 0018 1.9a8.382 8.382 0 01-1.85 2.087z" fill="#F9F7F6"/></svg>