<svg width="411" height="113" fill="none" xmlns="http://www.w3.org/2000/svg"><path d="M3.447 14.004c-1.494 2.764-2.413 5.932-2.758 9.502-.23 1.613-.344 4.089-.344 7.43C.115 35.772 0 39.457 0 41.991l.172 7.775c0 4.031.058 7.026.173 8.984l.172 9.33-.172 9.674.172 2.592c-.115 1.728-.172 4.261-.172 7.602.115 4.607 1.665 9.387 4.652 14.339 2.643 4.377 6.951 7.429 12.925 9.157 2.642.691 5.17 1.037 7.582 1.037 4.366 0 8.846-1.094 13.442-3.283l1.723-.864c1.034-.576 1.896-1.267 2.585-2.073 1.953-1.728 3.676-3.858 5.17-6.392 1.723-2.534 2.7-4.78 2.93-6.738.459-2.42.689-5.183.689-8.293.23-4.377.344-7.717.344-10.02 0-.462-.115-1.383-.344-2.765 0-.23-.173-.403-.517-.518l-1.034-.173h-.517c-.804 0-1.896-.346-3.274-1.037-.46-.23-.805-.288-1.034-.172-.345 0-.977.115-1.896.345-.574.23-.862.403-.862.518-.114 0-.287.058-.517.173a.73.73 0 01-.689 0c-.23-.115-.517-.173-.862-.173-.23 0-.46-.057-.689-.172 0-.23-.057-.404-.172-.519h-.172v.865l-1.38.691c-.114-.345-.171-.806-.171-1.382h-.173c-.804.921-1.436 1.9-1.895 2.937-.115-.346-.173-.921-.173-1.728-.23.23-.344.404-.344.519 0 1.727-.058 2.994-.173 3.8 0 .692-.057 2.074-.172 4.147-.115 1.958-.345 3.743-.69 5.356-.459 1.843-.976 3.167-1.55 3.974l-.517.863c-.69 1.613-1.781 2.592-3.274 2.937-.46.116-.977.23-1.551.346-.575.115-1.264.173-2.068.173-.46 0-1.15-.115-2.068-.346-1.838-.46-2.93-1.21-3.274-2.246-1.264-3.225-1.839-6.335-1.724-9.33V77.41c0-.576-.057-1.498-.172-2.764 0-1.267.057-2.362.172-3.283 0-3.57-.172-6.277-.517-8.12a5.088 5.088 0 01-.172-1.21c.115-.345.172-.633.172-.864 0-.575.058-1.324.173-2.245.114-.922.114-1.67 0-2.246-.115-.346-.173-.807-.173-1.383l.173-2.591c.23-.922.114-1.613-.345-2.073v-.864c.23-.922.345-1.613.345-2.073.114-3.916.172-9.79.172-17.623 0-3.11.517-5.759 1.55-7.947.46-1.267 1.092-2.246 1.896-2.937 1.264-.922 2.585-1.382 3.964-1.382a6.07 6.07 0 012.413.518l1.378.691c1.838.922 2.93 2.304 3.274 4.146.46 1.613.92 3.801 1.379 6.566.115 1.152.172 2.822.172 5.01v3.283l.173.345 2.93 2.937c.114.115.229.173.344.173.23-.115.402-.173.517-.173-.23-.23-.345-.46-.345-.69 0-.231-.057-.404-.172-.52 0-.114.057-.172.172-.172.92.691 1.666 1.152 2.24 1.382v-.345l1.38.518c.229.115.401.288.516.518.23.115.402.23.517.346.69 0 1.206.057 1.551.173.46 0 .804-.173 1.034-.519 0-.23.172-.345.517-.345.69 0 1.034-.346 1.034-1.037.345-.345.574-.518.69-.518l1.55.69c.115-.114.345-.287.69-.517.344-.346.746-.461 1.206-.346.23.115.46.058.689-.173.69-1.152 1.034-2.073 1.034-2.764-.23-2.073-.46-5.068-.69-8.984-.23-5.298-1.033-9.387-2.412-12.267-1.723-3.455-3.446-6.046-5.17-7.774-1.953-2.188-4.423-3.916-7.41-5.183C32.914.816 28.78-.106 24.643.01c-4.136 0-8.387 1.324-12.753 3.973-.114.23-.402.461-.861.691l.69.519-1.552.69-.344-.345-.345.346c.23.345.172.633-.172.864l-.517.518-.517-.173-1.379 1.555-3.446 5.356zm1.206 77.745c0 .116.115.404.344.864a23.455 23.455 0 002.068 5.356 311.75 311.75 0 001.896 2.937c.23.461.345.806.345 1.037l-.345-.346-3.791-7.601a16.63 16.63 0 01-.345-1.21c-.115-.46-.172-.806-.172-1.037-.804-1.957-1.206-4.146-1.206-6.565.46 2.765.861 4.78 1.206 6.047v.519zm28.261-79.3c.345.23.747.46 1.207.691.46.115.919.345 1.378.691 3.217 2.995 5.055 6.565 5.515 10.712.115 1.036.23 2.303.344 3.8.115 1.383.173 2.477.173 3.283l-.173.346c-.114-.576-.172-1.382-.172-2.419-.115-.806-.23-1.958-.345-3.455-.114-1.613-.344-2.938-.689-3.974-.46-2.65-1.666-4.895-3.619-6.738l.517.864c1.379 1.958 2.355 3.8 2.93 5.528.23 1.037.46 2.592.69 4.665l.516 8.811v.519h-.345c0-.346-.057-.634-.172-.864 0-.922-.057-2.131-.172-3.628 0-1.498-.115-3.225-.345-5.183-.23-2.88-.919-5.299-2.068-7.257l-1.034-1.555c-.23 0-.402-.057-.517-.172-1.378-1.383-2.355-2.477-2.93-3.283l2.93 2.592c-1.378-1.958-3.16-3.168-5.342-3.629-2.757-.921-4.997-1.324-6.72-1.209-3.562.23-6.32 1.44-8.272 3.628-1.838 2.304-3.102 5.01-3.792 8.12-.344 1.152-.517 2.995-.517 5.529l-.172 9.157c0 7.601.058 13.303.172 17.104 0 2.649.115 6.277.345 10.884l.173 5.356.172 10.884c0 2.764.287 5.183.861 7.257 0 .23-.057.403-.172.518l-.172-.691a100.87 100.87 0 01-.517-2.246c-.23-1.152-.345-2.189-.345-3.11l-.517-18.486-.517-19.35V34.563c.115-.921.173-2.188.173-3.8V26.96c0-2.534.516-4.895 1.55-7.083.23-.346.403-.749.518-1.21.23-.46.459-.863.689-1.209 1.264-2.073 2.642-3.628 4.136-4.665.804-.575 1.895-.979 3.274-1.209.804-.23 1.953-.346 3.446-.346 1.953 0 3.62.23 4.998.692 2.297.576 4.136 1.382 5.514 2.418l-2.585-1.9-1.895-.518c-2.413-.807-4.423-1.152-6.032-1.037l-.517-.173c.345-.115.862-.172 1.551-.172.92 0 2.183.23 3.791.69l3.102 1.21zm-10.167 93.986c-3.906-.346-7.582-1.958-11.029-4.838-.46-.345-1.091-1.209-1.895-2.591l-2.585-5.01c-.46-1.037-.747-2.016-.862-2.938h-.172l.517 2.074h-.345c-.115-.691-.345-1.555-.69-2.592-.344-1.037-.459-2.016-.344-2.937.115-.23.115-.518 0-.864v-.864c0-2.073-.057-3.628-.172-4.664v-7.948l.344 4.665v4.32c0 1.842.058 3.282.173 4.319.344 3.8 1.436 7.198 3.274 10.193l1.55 2.937c.92 1.728 2.758 3.225 5.515 4.492.345.115 1.15.461 2.413 1.036 1.379.576 2.757.922 4.136 1.037l.172.173h2.757l4.308-.173c-.344.115-.861.173-1.55.173h-5.515zm20.162-89.84a1.129 1.129 0 00-.517-.518 2.008 2.008 0 01-.344-.518c-1.724-2.88-4.71-5.24-8.961-7.084l-2.068-.69c-.115 0-.402.057-.862.172-.345 0-.632-.115-.861-.346-.805-.345-1.781-.518-2.93-.518-1.034-.115-1.78-.173-2.24-.173h-.517c-2.298.461-4.021.864-5.17 1.21-1.494.576-3.39 2.015-5.687 4.319-1.264 1.382-2.412 3.34-3.446 5.874-1.264 2.764-1.896 5.471-1.896 8.12-.23 4.607-.345 8.12-.345 10.539v9.329h-.344V41.82h-.173v1.383h-.172l.172-2.246c0-.346-.057-.749-.172-1.21 0-.46.058-.979.172-1.555 0-5.413.058-9.444.173-12.093.115-3.225 1.034-6.508 2.757-9.848 1.379-2.65 3.274-4.953 5.687-6.91 1.723-1.498 4.136-2.535 7.238-3.11.574-.116 1.436-.174 2.584-.174 2.758 0 6.032.75 9.823 2.246 1.493.692 3.39 2.074 5.687 4.147-.92-1.267-2.24-2.419-3.964-3.455-3.79-2.074-7.41-3.11-10.856-3.11-5.744-.23-10.282 1.785-13.614 6.047-3.562 4.03-5.4 8.696-5.515 13.994A231.71 231.71 0 006.031 41.3c0 2.88.115 7.199.345 12.958l.345 18.659.344 11.92c.23 4.723 1.551 8.87 3.964 12.44-1.149-1.843-2.125-4.32-2.93-7.429-.46-1.497-.689-3.225-.689-5.183 0-1.152.057-2.016.172-2.591l.345-.173.172 1.21c-.23 2.879.345 6.161 1.724 9.847.46 1.267 1.378 3.052 2.757 5.356.46.806 1.206 1.497 2.24 2.073 3.676 2.649 7.755 3.801 12.235 3.455l.862-.172.862.345-.345.346c-.115.115-.23.172-.345.172h-3.274c-.574 0-1.896-.115-3.963-.345.114.115.287.23.517.345.23.116.402.231.517.346-.46 0-.805-.058-1.034-.173-.345-.115-1.322-.403-2.93-.864a12.676 12.676 0 01-4.308-2.591c-.575-.346-1.264-1.037-2.068-2.073L9.823 96.24c-2.183-3.685-3.275-7.947-3.275-12.784l-.344-17.795c0-3.801-.058-6.68-.173-8.639l-.172-8.466-.172-7.601.172-7.43c0-4.376.172-7.601.517-9.674.69-5.99 3.217-10.827 7.583-14.513 1.953-1.843 4.595-3.052 7.927-3.628 1.608-.23 2.814-.346 3.618-.346 3.791 0 7.583 1.152 11.374 3.456 2.987 1.612 5.514 4.55 7.582 8.811 1.494 2.995 2.24 6.392 2.24 10.193l.173 3.11v1.555c0 1.037.115 2.361.345 3.974.114.115.172.345.172.69l-.345.346c0-.23-.115-.576-.344-1.036l-.173-2.765c0-.345-.057-.518-.172-.518-.345-.23-.575-.518-.69-.864v-.864c0-1.612.058-2.822.173-3.628.115.691.172 1.67.172 2.937v-1.727c.115-.691.115-1.498 0-2.42-.23-4.03-1.091-7.428-2.585-10.192l-2.24-3.456-.69-.518 2.758 3.974-.345.172zm-7.582 82.93l-.862.863a8.836 8.836 0 003.275-2.073c2.987-3.456 4.767-6.796 5.342-10.02l.172-.346c0 1.497-.402 3.052-1.206 4.664-.575 1.267-1.551 3.053-2.93 5.356-1.378 1.958-3.389 3.283-6.031 3.974l-4.136 1.036c-1.608.231-2.815.346-3.619.346-3.676 0-7.18-1.152-10.512-3.455-.919-.922-1.55-1.67-1.896-2.246-.574-.922-1.148-2.016-1.723-3.283-1.723-3.455-2.585-7.141-2.585-11.057l-.172-8.293c0-4.492-.057-7.832-.172-10.02l-.173-18.487c-.115-2.994-.172-7.486-.172-13.476 0-.806.057-2.188.172-4.146.115-1.958.288-3.686.517-5.183.69-5.183 2.873-9.33 6.549-12.44 2.068-1.727 4.653-2.879 7.755-3.455.459-.115 1.206-.173 2.24-.173 3.331 0 6.72.922 10.167 2.765 3.906 2.303 6.606 5.874 8.1 10.711.114.346.459 2.65 1.033 6.911.115.691.115 1.44 0 2.246 0 .691.058 1.44.173 2.246v1.037c-1.15-.461-1.724-1.325-1.724-2.592l-.344-3.455c0-.922-.115-2.073-.345-3.456-.69-4.722-2.815-8.408-6.376-11.057-3.676-2.764-7.41-3.973-11.201-3.628-5.17.115-9.076 2.592-11.719 7.43-2.067 3.685-3.044 7.543-2.929 11.575 0 2.303-.057 3.973-.172 5.01l-.173 5.183c0 5.298.058 9.272.173 11.92l.172 4.147c.115 1.037.172 2.477.172 4.32.23 7.371.345 12.842.345 16.413 0 3.455.057 6.046.172 7.774.23 3.11.69 5.644 1.379 7.602.345 1.152.919 2.361 1.723 3.628s1.379 2.246 1.723 2.937c.345.23.402.46.173.691-.115.115-.173.23-.173.346.115.115.23.172.345.172.345.116.632.288.862.519.23.23.517.403.861.518l1.379.691a6.147 6.147 0 011.55.518c1.494.692 3.39.922 5.688.692l5.342-.692c.574-.115 1.034-.287 1.378-.518.46-.23.862-.403 1.207-.518l1.034-.346.172.173zm-7.41-95.369l-3.274-.173c-.115 0-.173.058-.173.173h1.034l-7.582 1.21v-.173a129.45 129.45 0 012.413-.864c2.297-.46 4.02-.691 5.17-.691 3.676.23 6.95 1.036 9.822 2.418.345.23.69.519 1.034.864.46.346.804.576 1.034.691 1.378.346 2.585 1.095 3.619 2.246 1.149 1.152 1.953 1.958 2.412 2.42.69.69.977 1.439.862 2.245 0 .115.115.288.345.518 1.838 3.34 2.93 6.969 3.274 10.885 0 .806-.058 1.44-.172 1.9 0-.69-.115-1.727-.345-3.11-.115-2.418-.747-4.837-1.896-7.256-2.757-5.644-6.778-9.444-12.063-11.403-1.034-.345-3.159-.921-6.376-1.727h.862v-.173zm-8.272 93.813c1.838.922 3.906 1.382 6.204 1.382.92 0 2.183-.115 3.791-.345 3.791-.576 6.72-2.65 8.789-6.22a17.677 17.677 0 002.24-6.392 51.37 51.37 0 00.517-7.257v-1.555c0-1.612.057-2.821.172-3.628h.173l.172.864c0 1.152-.057 2.937-.172 5.356 0 2.419-.173 4.55-.517 6.392-.69 3.916-2.47 7.314-5.342 10.194-1.034 1.036-2.643 1.785-4.825 2.246l-2.93.69c-.46.116-1.149.174-2.068.174-2.068 0-4.366-.576-6.893-1.728 0-.115-.058-.173-.172-.173v-.345l.861.345zm11.546-80.337c2.872 1.382 4.595 3.858 5.17 7.429l.517 6.565.172 4.147v.69l-.172.173c-.23-.46-.345-.806-.345-1.036l-.517-8.12c-.115-3.34-1.608-6.45-4.48-9.33l-.345-.518zm-24.47 31.79c.23.345.46 2.59.689 6.737.23 4.032.345 7.948.345 11.748 0 3.11-.115 4.896-.345 5.356h-.172L6.72 49.421zm15.854-32.654c-.23.23-.402.346-.517.346-.92.345-1.609.863-2.068 1.555-.46.69-1.034 1.727-1.723 3.11-1.15 2.303-1.724 5.47-1.724 9.502l-.172 2.073h-.345l-.172-.864c.23-3.8.517-6.623.862-8.466.344-1.843 1.148-3.685 2.412-5.528.345-.576.92-.98 1.724-1.21a37.975 37.975 0 001.55-.69v.172h.173zm19.473 11.748c-.23-4.952-1.494-8.984-3.791-12.093-1.839-2.534-3.85-4.147-6.032-4.838l-.517-.173c1.034 0 2.183.461 3.447 1.382 1.953 1.152 3.618 3.168 4.997 6.047a12.602 12.602 0 011.379 4.147c.344 1.382.574 2.764.69 4.146.114 1.267.171 2.073.171 2.419v3.283h-.172l-.172-4.32zm-17.75-26.26c3.676-.346 7.582.46 11.718 2.418 4.136 1.843 7.123 4.435 8.961 7.775-4.71-6.22-11.603-9.618-20.679-10.193zM38.946 26.96c-.23-3.57-1.321-6.68-3.274-9.329 0-.23-.058-.346-.173-.346l.173-.172c.689.921 1.436 2.13 2.24 3.628.919 2.073 1.493 4.722 1.723 7.947 0 1.152.115 2.995.345 5.529l-.172.69h-.345v-.69l-.517-7.257zm-2.413-3.11c.804 1.268 1.207 2.765 1.207 4.493.114 1.727.172 2.879.172 3.455l.172 2.419h-.172l-.345-1.9v1.727h-.172l-.862-10.193zM16.371 50.804c-.23-.921-.345-3.512-.345-7.774 0-4.262.115-6.853.345-7.775v15.55zM8.616 8.821c-2.872 3.8-4.94 8.062-6.203 12.785-.115-1.498.574-3.744 2.067-6.738 1.494-3.11 2.873-5.126 4.136-6.047zm7.41 84.138c-1.493-2.65-2.24-5.24-2.24-7.775l2.24 7.775zM8.79 103.67c-.92-.922-1.781-2.131-2.585-3.629L4.48 96.587l4.481 7.084h-.172zm4.652-13.13c.46.69 1.092 1.842 1.896 3.455.804 1.497 1.78 2.706 2.93 3.628h-.173v.172c-.804-.576-1.263-.979-1.378-1.209-.23-.346-.747-1.094-1.551-2.246-.804-1.267-1.321-2.419-1.551-3.455l-.173-.346zm15.51 13.475c.115-.115.172-.23.172-.345 0-.116.058-.173.172-.173.23 0 .575-.058 1.034-.173.575-.23 1.092-.23 1.551 0v.346l-2.757.518-.172-.173zM16.543 93.477c.345.922.805 1.67 1.379 2.246.69.46 1.608.98 2.757 1.555a7.467 7.467 0 01-2.757-1.21c-.804-.69-1.264-1.554-1.379-2.59zM47.907 17.46c.46.806.862 2.016 1.206 3.628.345 1.613.517 2.765.517 3.456l-1.723-7.084zm-22.92-1.382c.345-.346.805-.518 1.379-.518.804 0 1.436.23 1.896.69l-3.275-.172zm25.16 15.204c0 .806.115 2.13.345 3.973h-.345l-.345-3.973h.345zm-5.859 44.574c-.115.576-.172 1.497-.172 2.764h-.345v-1.21c0-.575.057-1.094.172-1.554h.345zm-30.674-.519l.345 4.147h-.345v-4.147zM10.512 6.749c0 .575-.517.806-1.551.69L10.34 6.23l.172.519zm37.05 73.944v-4.146h.345l-.345 4.146zm-14.13-59.26c.689.692 1.033 1.556 1.033 2.592l-1.378-2.591h.344zM1.722 85.358V79.31h.173v6.047h-.173zm29.123-71.353l-3.101-.691c0-.23.057-.403.172-.519l2.93 1.037v.173zM43.6 17.286c0-.115.287.576.861 2.074-.919-.346-1.263-1.037-1.034-2.074h.173zm2.585 63.406V75.51h.172v5.183h-.172zm-10.857-51.83l.345 2.591h-.345l-.345-2.591h.345zm12.58 6.22l-.172-3.456h.172l.345 3.283-.345.172zM46.7 90.195l.517-3.456h.172l-.517 3.456H46.7zm-11.719-73.6l-2.585-2.073h.173v-.173l2.585 2.074-.173.172zM4.652 69.981v-4.32h.173v4.32h-.172zm-3.79-.519v4.492H.689v-4.492h.173zm44.115-48.72c.345.576.402 1.267.173 2.073l-.517-2.073h.344zm1.896 17.968l-.517-1.555h.172l1.034 1.21-.69.345zM37.74 96.933c.344.46.402.806.172 1.036l-.345.173-.172.173c-.115 0-.172-.058-.172-.173-.115 0-.173-.058-.173-.173v-.173l.69-.863zm-3.792-78.61c0 .115-.057.173-.172.173l-1.723-1.555c.115 0 .172-.058.172-.173l1.723 1.555zM4.48 63.588V59.96v3.628zM.517 29.38c.115-.69.172-1.727.172-3.11h.173c0 1.383-.058 2.42-.173 3.11H.517zM23.264 2.428l-2.93.519v-.173l2.758-.518.172.172zM8.272 33.527v15.376-15.376zm.861 29.543v-5.874 5.874zm0-37.49v4.837-4.838zm.173 42.673v-3.628 3.628zm10.684 35.763c-.574-.23-1.608-.633-3.102-1.209-1.379-.576-2.527-1.325-3.447-2.246 1.724 1.497 3.907 2.649 6.549 3.455zm99.781 7.429c1.034-.23 1.436-.806 1.206-1.728l-.172-.518c-.459.115-.689.058-.689-.173v-1.382l-1.723-8.811-2.068-8.984-2.413-11.575-2.068-11.403c-.574-2.65-1.321-6.508-2.24-11.576-.919-4.722-2.011-10.711-3.274-17.968l-2.241-11.92-2.585-12.267c-.344-1.037-.631-2.707-.861-5.01 0-.23-.058-1.095-.172-2.592-.115-1.497-.517-2.764-1.207-3.8-.804.46-1.436.402-1.895-.173-.345-.346-.632-.461-.862-.346l-1.896 1.037c-.23-.461-.402-.691-.517-.691-.689-.23-1.206-.288-1.55-.173-.805.23-1.437.288-1.896.173-.115-.116-.287-.116-.517 0-.23.115-.402.172-.517.172-.115 0-.402-.057-.862-.173-.46-.23-.919-.172-1.378.173 0 .115-.058.173-.173.173-.114 0-.23-.058-.344-.173-.115 0-.345-.057-.69-.173-.344-.115-.574-.23-.689-.345-.46-.23-.804-.346-1.034-.346-.23 0-.574.173-1.034.519a2.7 2.7 0 01-.517.69c-.23.231-.402.462-.517.692-1.034 3.57-1.666 5.932-1.895 7.083l-1.551 7.775-2.068 10.366-.173.691c0 1.267-.114 2.189-.344 2.764l-1.551 7.948c-.115.69-.172 1.785-.172 3.282l-.862 4.147-2.585 14.512c-.23.922-.46 1.498-.69 1.728-.344.346-.516.749-.516 1.21-.115.46-.173 1.094-.173 1.9 0 .69-.057 1.267-.172 1.727l-1.034 5.53c-.46 2.418-.747 4.088-.862 5.01l-.689 3.8c-.804 2.88-1.264 5.414-1.379 7.602-.114 1.497-.516 3.628-1.206 6.392l-.69 1.383v.345c.116 0 .116.058 0 .173 0 .46-.056 1.152-.171 2.073 0 .806-.173 1.555-.517 2.246l-.173.173c-.344-.115-.517 0-.517.345v.346l-.344 3.11-.345 1.382c0 .115-.115.518-.345 1.209 0 .116-.057.288-.172.519 0 .115.057.288.172.518.46.576.862 1.324 1.207 2.246l.344.345.517-.863.69 1.209c1.493 0 2.412-.461 2.757-1.382l.861.173c.575 0 1.092-.116 1.551-.346.575-.23.977-.403 1.207-.518.115.345.23.518.344.518.23 0 .46-.115.69-.345v.518l1.206-.518.862.691v-.173c.46 0 .804.057 1.034.173l.516-.519c.345-.23.632-.345.862-.345.46 0 .69-.231.69-.691l.516-2.592c.69-3.225 1.15-5.586 1.379-7.083l1.034-5.874c0-.576.287-.864.862-.864 1.148 0 2.527-.058 4.136-.173 1.608-.115 2.986-.115 4.135 0l6.549.173c1.838 0 3.216-.115 4.136-.346.23-.115.517-.173.861-.173.46 0 .69.23.69.692.229.92.344 1.612.344 2.073.575 2.534 1.494 7.314 2.757 14.339l.173.692c.229-.231.402-.346.517-.346l.517 1.037c0-.346.115-.749.344-1.21 0 .115.115.403.345.864.23.346.632.518 1.206.518-.115-.23-.172-.633-.172-1.209l.345-.691.517.345.344.346c.23.461.517.749.862.864.345 0 .747-.058 1.206-.173-.115-.345-.172-.864-.172-1.555v-.173l1.034 1.21.344-.173.345.691c0 .115.058.173.172.173.115 0 .23.057.345.173l.345-.519v-1.036c.919.691 1.608 1.267 2.068 1.727.115 0 .229-.057.344-.172.23-.231.402-.173.517.172a2.01 2.01 0 00.345-.518c.115-.23.287-.403.517-.518.115.23.402.461.862.691l1.206.345.345-.518h.861zm-18.783-50.103c-.46-1.958-.747-3.282-.862-3.973h.172c.23 1.843.46 3.167.69 3.973l.516 2.42.517 2.763.862 3.801h-.345l-.517-3.8-.689-2.074-.344-3.11zm5.859-3.973c.229 1.267.689 3.167 1.378 5.701l-.344.173-1.034-5.874-1.034-4.32h.344c.23 1.843.46 3.283.69 4.32zM93.922 42.856c1.494 7.602 2.642 13.88 3.447 18.832.23.576.46 1.67.689 3.282h-.345l-4.48-25.05c-.23-.577-.46-1.671-.69-3.284h.173l.517 3.283.69 2.937zm-16.888-.173l.862-4.146.861-4.665c.805-4.146 1.379-6.968 1.724-8.465.344-1.728 1.148-5.414 2.412-11.058.345-1.036.747-2.591 1.207-4.664 0-.116.057-.173.172-.173l-.172.518-3.792 17.968-1.895 9.33-.517 1.209-.517 4.146h-.345zm6.893-.518l-.172.346h-.172l.517-3.629 1.033-3.8.862-3.629 1.034-7.601c.575 1.036.862 2.303.862 3.8 0 1.152-.173 2.362-.517 3.629.23 0 .344.057.344.172.23-1.151.345-1.9.345-2.246h.345v.519c.114.23.114.518 0 .864-.46 2.764-1.264 6.795-2.413 12.093l-1.723 9.503c-.115.46-.287.979-.517 1.554l-.345 1.383c-.23.69-.344 1.324-.344 1.9-.115.921-.345 1.9-.69 2.937-.344 1.037-.574 1.843-.69 2.419-.344 1.152-.746 2.764-1.205 4.837v2.42l-.69 1.381c-.46 1.152-.574 2.016-.344 2.592.115.115.115.345 0 .69l-.173 1.21c-.115.576-.287.98-.517 1.21-.23.23-.689.288-1.378.172-.46-.115-.69-.403-.69-.863.115-.576.403-1.728.862-3.456.23-.576.402-1.324.517-2.246l.517-2.073c1.149-4.377 1.953-7.717 2.413-10.02.574-2.534 1.32-6.335 2.24-11.403l1.034-4.32 2.24-11.92v-.519c-.345.461-.517.922-.517 1.382L85.65 33.7l-1.723 8.466zm.345 34.9c-.46 0-.747-.058-.862-.174 0-.23.058-.518.172-.863.115-.23.288-1.325.518-3.283l1.55-6.91c1.264-5.184 2.068-8.524 2.413-10.021.46-1.728.747-3.168.862-4.32l.861-4.146c.46-2.303.862-4.031 1.207-5.183a362.641 362.641 0 014.135 21.769l2.413 12.957h-1.034l-12.235.173zm1.723-55.46c.69.231.862.692.517 1.383-.23 1.497-.69 4.204-1.379 8.12L82.55 44.584l-.69 3.8c-.69 3.686-1.149 6.22-1.378 7.602a3.268 3.268 0 00-.173 1.037c.115.346.115.691 0 1.037l-1.55 6.738v1.036c-.115.23-.173.461-.173.691.115.115.115.288 0 .519-.69 1.497-1.206 3.167-1.55 5.01-.23 1.843-.403 2.995-.518 3.455-.115.576-.287.922-.517 1.037-.115.115-.46.057-1.034-.173 0-.345.058-.633.172-.864 1.264-6.22 2.183-10.423 2.758-12.612l2.068-8.465 1.378-7.602 1.724-8.293 1.55-8.811c0-.116.173-1.267.517-3.456l.345-.69.517-2.42c.115-.345.115-.633 0-.863v-.691zm10.34 26.78c-.115-.115-.173-.23-.173-.346 0-.23-.057-.403-.172-.518h-.172l.861 4.837h.173l.172-.518c.115.23.23.749.345 1.555.23.806.23 1.555 0 2.246v.346c0 .69.23 1.267.689 1.727v.173a10.32 10.32 0 01.517 3.282l-.172-.69h-.173l1.207 6.737c0-.115.057-.172.172-.172v-.864c.919 3.685 1.551 6.507 1.895 8.465-.114-.115-.287-.172-.516-.172l.344 2.246h-.344l-.173-.519-1.034-5.528c-.69-2.995-1.149-5.183-1.378-6.565L94.267 41.3c-.69-3.225-1.15-5.644-1.379-7.256 0-.115-.057-.403-.172-.864-.115-.46.057-.749.517-.864.115 0 .115-.057 0-.172v-.519h.172l3.102 16.759h-.172zm3.102-6.22L95.3 20.396h.172l1.034 4.32c0-.576-.172-1.498-.517-2.765-.23-1.382-.345-2.419-.345-3.11 0-.345.115-.979.345-1.9l.517 3.8c.92 3.456 1.551 6.105 1.896 7.948.23.806.46 2.016.689 3.628.345 1.267.747 3.168 1.206 5.702l.173 1.036v2.073l.689 4.838 1.206 6.047c0 .576-.057.979-.172 1.21l-5.17-26.262 2.585 15.204h-.172zM79.964 76.891c.115-.23.172-.518.172-.863l3.619-17.105c.46-1.958.747-3.282.862-3.973l.861-3.974 2.585-13.303 1.034-4.837h.345v.69c-.69 2.88-1.436 6.45-2.24 10.712-1.15 6.22-2.069 10.827-2.758 13.822l-3.791 17.795-.345 1.036h-.344zm14.647-53.73c.23.46.46 1.266.69 2.418.23 1.037.517 1.843.861 2.419-.23.806-.057 1.44.517 1.9v.346c.115.23.058.403-.172.518-.115.116-.172.346-.172.691.115.23.172.404.172.519l1.379 6.565c.46 2.995 1.263 7.602 2.412 13.821l.517 3.456h-.344l-5.86-31.271a1.536 1.536 0 01-.172-.691c.115-.23.172-.461.172-.692zm-6.72 24.014c-.115.576-.23 1.325-.345 2.246-.115.807-.345 1.728-.69 2.765l-2.24 10.711-2.412 11.576c-.115.23-.172.518-.172.864.114.23.114.518 0 .863l-.345.691c-.23 0-.345-.057-.345-.172l7.927-38.01h.345l-1.723 8.466zm-4.653 32.999c.574-.346 3.332-.518 8.272-.518 4.02 0 6.26.115 6.72.345a3.813 3.813 0 01-1.206.173H83.238zm-11.546 27.47c0-1.382.172-2.361.517-2.937.345-.921.632-2.303.862-4.146.574-1.958.919-3.859 1.034-5.702 0 .116-.115.288-.345.519-.115-.576-.115-.922 0-1.037.115-.23.46-.345 1.034-.345l-2.757 15.376-.345-.173v-1.555zm-.517-6.738c-.23-.921-.345-1.555-.345-1.9 0-.806.23-2.016.69-3.628l.689-1.21.345-.345.344.69-.517 3.11-.172.519c.115.115.172.346.172.691 0 .346-.172.749-.517 1.209-.344.346-.574.634-.689.864zm35.155 0c0 .346.057.576.172.691.345.461.517.979.517 1.555v1.21l.172 2.246h-.172l-.345-.691-2.068-11.058c-.115-.23-.172-.576-.172-1.036v-.173h.172l.345.864 1.379 6.392zm-7.41-16.413c-.46.23-3.907.346-10.34.346-3.447 0-5.457-.058-6.031-.173v-.173h16.37zm4.308-47.856l2.585 14.512h-.345l-2.585-14.34.345-.172zM82.032 85.703h16.715v.172H82.032v-.172zm0 .69l17.06-.345v.519h-17.06v-.173zm22.057-22.805c-.229-1.382-.689-4.031-1.378-7.947h.172c.23 1.037.632 2.995 1.206 5.874h.345l-.517-2.937h.172l.862 3.974c-.115 0-.172.057-.172.172l-.517-.518c.115.346.172.749.172 1.21l-.345.172zm12.753 45.266c-.575-1.037-.977-2.304-1.207-3.801-.115-1.498-.229-2.649-.344-3.456 1.034 2.649 1.551 5.068 1.551 7.257zm-42.22-2.419l2.24-12.267h.344l-2.412 12.267h-.172zm15.854-25.57l-1.896.346c-.92.23-1.608.345-2.068.345a3.78 3.78 0 01-1.206-.173 6.677 6.677 0 01-.862-.345v-.173h6.032zM74.62 55.641l2.068-11.23h.173l-2.068 11.23h-.172zm22.75 22.978h-7.41v-.173h7.582l-.172.173zm-.517-39.91l1.723 9.503h-.172L96.68 38.71h.173zm13.441 54.595c.115.346.632 2.707 1.551 7.084h-.172l-1.551-7.084h.172zm-16.199-66.17c.345 1.267.747 3.283 1.207 6.047h-.173a279.111 279.111 0 01-1.206-6.047h.172zm4.136 54.422h-4.825v-.173l4.825-.172v.345zm10.685 17.104c.574 2.534.976 4.204 1.206 5.011h-.345l-1.034-5.01h.173zm-42.048-5.183l-.345 1.728-.345 1.728-.344 1.9h-.172l1.034-5.356h.172zm30.846-58.396l1.034 5.53h-.172v.172L97.54 35.08h.172zm-23.78 24.706c-.116.807-.403 2.304-.862 4.492h-.173l.862-4.492h.172zm7.926-22.46l.862-4.319h.172l-.861 4.32h-.173zm20.679-2.764a46.023 46.023 0 01-.689-3.455h.172l.69 3.455h-.173zm-25.849 72.39c.23-1.382.46-2.534.69-3.455h.172l-.69 3.455h-.172zm-2.93-30.58c.23-1.843.46-3.167.69-3.974l-.517 3.974h-.172zm35.5-6.22c-.23-.575-.459-1.67-.689-3.282h.172l.69 3.282h-.173zm4.136 38.355c0-1.037-.057-1.785-.172-2.246h.172l.345 2.246h-.345zm-12.063-79.473l-.517-2.765h.173l.516 2.765h-.172zm-1.895 25.051l-.517-2.937h.172l.517 2.937h-.172zm5.859 52.176c0 1.037.057 1.785.172 2.246h-.345v-2.246h.173zM76.69 62.552L76 65.143h-.172l.69-2.591h.171zm10.685-28.853l-.345-.172-1.034 5.701h.345l1.034-5.529zm-2.757 15.895c-.92.806-1.38 2.016-1.38 3.628l1.38-3.628zm.516-5.701c.23-.576.46-1.44.69-2.592h-.173c-.23.576-.46 1.44-.689 2.592h.172zM82.032 58.75h.172l.69-2.764h-.173l-.69 2.764zm18.611 13.821h.172l-.517-2.419h-.172l.517 2.42zm35.122-70.143c-1.149-.345-1.781-.518-1.895-.518-.575-.23-.862 0-.862.691l-.345 1.382-.689 5.356.172 5.529c.115 1.267.173 3.167.173 5.701v5.701c-.115 2.42-.173 6.047-.173 10.885v5.874l-.172 1.9v38.009l.172 4.838-.172 7.083v7.084c0 .461.115.806.345 1.036v.346l-.173 2.073.517 2.073c0 .231.058.519.173.864.115.346.172.634.172.864 0 1.037.287 1.728.862 2.073.229 0 .344.173.344.519.23.46.402.691.517.691.23.115.575.115 1.034 0h.689c2.758-.231 4.883-.346 6.377-.346 4.365-.23 7.639-.345 9.822-.345l7.583-.173c1.263 0 3.159.115 5.686.345l7.41.346c1.379 0 2.413-.058 3.102-.173.115 0 .345-.173.69-.518.114-.115.172-.231.172-.346 0-.23.057-.403.172-.518.345-.346.517-.633.517-.864.23-.921.345-1.67.345-2.246v-2.591c-.115-.116-.172-.231-.172-.346.114-.115.172-.23.172-.345v-.346c0-.345.057-.806.172-1.382.115-.576.115-1.037 0-1.382-.115-.115-.115-.173 0-.173.115-.115.173-.23.173-.346a2.02 2.02 0 00-.517-.345 6.692 6.692 0 01-.345-.864c0-.23-.058-.518-.172-.864 0-.345.057-.576.172-.69l.172-.692c0-.23-.057-.518-.172-.864-.115-.46-.115-.806 0-1.036-.689 0-1.149-.058-1.379-.173h-1.206l-3.274.173-3.102-.173c.345.345.804.518 1.379.518.574 0 1.033.058 1.378.173h-3.791c-.115 0-.287-.115-.517-.346l-.689-.345a1.529 1.529 0 00-.69-.173h-6.72c-.23.23-.402.346-.517.346-4.136.23-7.238.345-9.306.345h-.517c.919-.345 2.298-.518 4.136-.518s3.217-.115 4.136-.346h-.69c-2.987 0-5.227.058-6.72.173-.46 0-.805-.057-1.034-.173-.115-.23-.173-.576-.173-1.036l.173-2.937c.115-1.498.172-3.686.172-6.566l-.517-4.319c0-.806.057-1.382.172-1.727l.173-1.9c.115-1.498.172-3.744.172-6.739-.115-3.225-.172-8.12-.172-14.685V37.155c.115-2.88.172-7.199.172-12.958v-4.32c.115-1.842.172-4.549.172-8.12l-.172-2.59V7.438c0-1.037-.115-2.592-.345-4.665 0-.23-.115-.46-.344-.691a2.163 2.163 0 00-.862-.519l-.689-.69c-.575-.576-1.034-.576-1.379 0-.23.345-.517.575-.861.69-.345.116-.69.058-1.034-.172-.69-.576-1.724-.749-3.102-.519-.46.461-.747.692-.862.692h-.517c-.804 0-1.608.172-2.413.518l-.689.345zm3.791 13.476c0-.806.058-1.382.173-1.727h.172l.172 3.11v8.983c-.115 3.456-.172 8.639-.172 15.55-.23 5.989-.345 10.48-.345 13.475l.173 10.194c0 3.225-.058 5.643-.173 7.256v21.078c0 .46-.057.748-.172.864-.115.115-.345.172-.689.172-.575 0-.862-.288-.862-.863 0-3.571-.172-6.278-.517-8.12-.115-.346-.172-.807-.172-1.383.115-.576.172-1.036.172-1.382h.345v3.628c.23 0 .344.058.344.173.23-.46.345-.806.345-1.037v-5.528c.115-1.958.172-4.838.172-8.639l-.172-11.057.172-16.413c.115-2.764.173-7.026.173-12.785l.172-13.648v-4.492l.172-1.21h.345v3.801h.172zm6.032-2.937c.23 2.534.344 4.377.344 5.529 0 5.874-.057 10.25-.172 13.13l-.172 15.376v15.723c0 9.675-.058 16.988-.173 21.941 0 3.225.173 5.586.517 7.084l.345-22.979c.115-2.188.115-4.088 0-5.701v-4.147c-.115-1.382-.172-3.57-.172-6.565 0-2.88.057-5.01.172-6.392h.172v38.7c.23-5.298.345-9.157.345-11.575h.345v21.768l-.345.173-.172-.864c0-.345-.058-.633-.173-.864v1.728h-.344l-.345-.864h-.172l-.517.864-.172-1.036V75.855l.172-12.44c0-2.649-.058-4.664-.172-6.046l-.173-5.874c0-2.534.115-6.22.345-11.058l.172-13.821c0-5.99.058-10.481.172-13.476v-.173h.173zm-5.687 81.892c-.115-.345-.172-.921-.172-1.727v-3.629c0-6.22.057-10.884.172-13.994l.172-3.628c.115-.69.173-1.843.173-3.455 0-1.843-.115-4.492-.345-7.948l.172-10.366v-4.664l.345-.691v15.03h.172l.517-22.114h.173v5.356l-.173 14.685c0 2.419.115 6.047.345 10.885.23 2.533.345 4.492.345 5.874l-.173 5.874c0 1.036.115 2.822.345 5.356l-.172 1.554v7.084c0 .115-.173.346-.517.691-.345-.345-.517-.576-.517-.691-.115-.921-.173-2.303-.173-4.146l.173-12.612-.173-2.42h-.344V94.86h-.345zm2.757-22.114c-.115-.23-.172-.518-.172-.864-.23-6.68-.345-11.633-.345-14.858l.173-11.92.172-13.304c.115-3.34.172-8.293.172-14.858l.173-.691.172.864v5.528l.172 6.393-.517 25.915c0 2.188.058 3.8.173 4.837l.172 5.183c0 3.11-.058 5.414-.172 6.911v.864h-.173zm4.825-64.443c.23 5.529.345 9.56.345 12.094 0 3.57-.115 8.927-.345 16.068-.229 9.214-.344 16.182-.344 20.905l.172 11.92c0 .461-.057.807-.172 1.037v-3.282c-.115-1.037-.173-2.477-.173-4.32l-.172-1.382v-3.455c0-.806-.057-1.785-.172-2.937 0-1.267.057-2.65.172-4.147 0-3.455.115-8.753.345-15.894l.172-5.356V17.459l-.172-8.984V7.44h.344v.863zm-12.752 10.712c.115 1.843.173 4.665.173 8.466l-.173 14.858c-.23 6.68-.344 11.69-.344 15.03 0 2.65.114 6.623.344 11.922h-.344v-.864c-.23-7.602-.345-13.303-.345-17.104 0-3.57.115-8.927.345-16.068l.172-7.947.172-8.293zm12.235 5.874l-.172 16.068-.172 3.628h-.173V12.276l.345 1.382.172 11.23zm9.478 71.526c3.677 0 9.306.115 16.888.346l.517-.173c.345 0 .575-.058.69-.173l.172.864c-2.068 0-5.055-.115-8.961-.345l-9.133-.173c-1.724 0-4.194.115-7.41.345l-.345-.172v-.173l.517-.173 7.065-.173zm-14.13-1.21l-.173-.863.173-8.293v-9.675l.172-1.382h.172v20.041l-.344.173zm22.919 6.566c-3.906.23-9.42.461-16.543.691l-.345-.173v-.172l.689-.173 6.721-.518 3.619-.173c1.264 0 2.93.115 4.997.345l.862.173zm-9.133 3.455c2.412-.115 6.031-.057 10.856.173 2.528.231 4.366.346 5.515.346v.173l-16.371-.519v-.173zm-7.41-.518c4.825-.23 8.444-.345 10.856-.345 2.872 0 4.998.115 6.376.345h-2.585c-.919-.115-2.067-.115-3.446 0-1.838 0-3.159.058-3.964.173l-4.135.173c-.69.115-1.724.172-3.102.172v-.518zm.172-6.392c.574-.115 1.379-.173 2.413-.173-.23-.23-.403-.346-.517-.346 5.055.23 8.903.346 11.545.346l-13.096.518-.345-.345zm10.684 9.502c-4.825.23-8.501.345-11.029.345v-.345l11.029-.346v.346zm-15.337-21.942v8.812-8.812zm-9.822-65.306c0 1.037-.058 2.304-.173 3.8-.115 1.383-.23 2.42-.344 3.11v-8.983h.344l.173 2.073zm21.023 84.656c-.919.461-2.355.692-4.308.692-1.149 0-1.953-.116-2.412-.346l6.72-.346zm11.374-9.847c-.345.345-.862.518-1.551.518a4.927 4.927 0 01-2.24-.518h3.791zm-30.674-9.675v5.874h-.172v-5.874h.172zm37.739 20.041c.919 0 1.609.057 2.068.173v.345c-.459-.115-1.206-.173-2.24-.173 0-.23.058-.345.172-.345zm-13.958-10.54c1.034 0 1.781.059 2.24.174v.345l-2.24-.345v-.173zm.517 2.247h2.24-2.24zm-21.886-2.246c.345-.115.517 0 .517.345.115.23.288.404.517.519-.344 0-.631-.058-.861-.173-.23-.115-.287-.346-.173-.691zm1.034-71.526h.173v-5.874h-.173v5.874zm1.724 64.097h.172V72.572h-.172v15.204zm57.739 20.214c.229 0 .574.115 1.033.345l3.792 2.073c.689.231 1.206.346 1.551.346 1.608.461 2.757.691 3.446.691.919.23 1.781.23 2.585 0l3.447-.345c2.987-.231 5.227-.461 6.72-.692 2.528-.345 4.596-1.094 6.204-2.246 3.217-2.073 5.687-5.298 7.41-9.675a39.183 39.183 0 001.551-6.565c1.034-4.722 1.551-8.696 1.551-11.92V66.697c.115-4.261.172-10.711.172-19.35 0-2.419.115-6.047.345-10.884.23-4.723.115-8.754-.345-12.094-.229-1.497-.804-3.859-1.723-7.084-.574-2.534-1.436-4.55-2.585-6.047-2.872-4.146-6.204-6.795-9.995-7.947l-.861-.518c.229-.115.574-.058 1.034.173 5.859 1.958 9.995 6.162 12.407 12.612.575 1.727 1.206 4.319 1.896 7.774.574 1.958.861 4.492.861 7.602l-.172 4.492c-.23 5.99-.345 10.539-.345 13.649 0 6.335.058 11.114.173 14.34v3.628c.229-.23.344-.519.344-.864l.173-6.565-.173-12.267a5.08 5.08 0 00-.172-1.21c0-.575.057-1.209.172-1.9 0-.921.058-1.843.173-2.764.115-1.037.172-1.958.172-2.764.115-1.958.172-4.838.172-8.639-.229-2.994-.459-5.356-.689-7.083l-1.723-6.565c-.115-1.613-.804-3.34-2.068-5.183-1.379-2.304-2.643-4.032-3.791-5.184-1.953-1.958-4.309-3.397-7.066-4.319-2.183-.69-4.825-1.152-7.927-1.382-1.838-.23-3.217-.345-4.136-.345-.574 0-1.436.115-2.585.345a19.94 19.94 0 01-1.895.346c-.804.115-1.723.345-2.757.69-.46.116-1.379.404-2.758.865-1.378.345-2.585.806-3.618 1.382-2.987 1.497-5.457 4.492-7.411 8.984-.689 1.842-1.378 4.492-2.067 7.947 0 .23-.058.749-.173 1.555a4.088 4.088 0 01-.861 1.9c-.115.116-.173.346-.173.691.115.23.173.461.173.692 0 .345-.058.575-.173.69-.574.692-.861 1.843-.861 3.456v.864l.172 3.282c.115 1.498.172 3.801.172 6.911v35.765l.173 5.01c0 2.303.114 5.643.344 10.02 0 2.188.46 4.377 1.379 6.565 1.264 2.534 2.585 4.492 3.963 5.874 1.149 1.152 1.953 2.074 2.413 2.765.345.575.976 1.209 1.896 1.9l2.412 1.209c2.183 1.613 4.538 2.592 7.066 2.937 2.297.231 4.021.346 5.169.346 1.379 0 2.413-.058 3.102-.173l5.859-.864c2.298-.46 3.906-.921 4.825-1.382 2.643-.921 4.998-2.822 7.066-5.701 2.068-3.225 3.332-5.76 3.791-7.602l.862-3.974c.115-.806.344-2.303.689-4.492.345-2.303.517-4.376.517-6.22.115-1.612.172-4.03.172-7.255v-7.084c-.115-.115-.172-.346-.172-.691h-.172l-.173.346v6.737c0 8.063-.574 14.455-1.723 19.178-.919 4.146-2.125 7.256-3.619 9.329-.115.231-.574.864-1.378 1.901-.69 1.036-1.494 1.9-2.413 2.591a8.59 8.59 0 01-2.585 1.555l-.345.173c-.344.115-.861.345-1.55.691-.69.345-1.322.576-1.896.691a45.353 45.353 0 01-13.097 1.555c-3.561-.115-7.238-1.382-11.029-3.801l-.517-.346.173-.172zm-.517-35.59c-.23-.692-.345-1.268-.345-1.728-.115-.115-.172-.288-.172-.519.114-.23.114-.403 0-.518v1.555h-.173l.173-3.455v-5.702l-.173-3.628.173-11.575-.173-6.91c0-1.038.115-2.477.345-4.32l.172-.691h.345v1.036c-.23 3.686-.345 6.45-.345 8.293V72.4c.23 4.146.345 7.198.345 9.156h-.172c-.115-.46-.173-1.21-.173-2.246v-5.874c0-.46.058-.806.173-1.037zm1.206 19.522c0-.23-.058-.518-.172-.864 0-.345.057-.748.172-1.209 0-.691.172-1.382.517-2.073l.172 3.282c.23.346.345.807.345 1.383.115.575.23 1.036.344 1.382l1.551 2.073 1.379 1.382c1.723 1.267 2.872 2.016 3.447 2.246.919.46 2.125.691 3.618.691 1.149 0 2.011-.057 2.585-.173l7.41-1.209c1.034-.346 1.953-1.094 2.758-2.246 1.378-2.073 2.125-4.146 2.24-6.22.115-1.036.287-2.246.517-3.628.23-1.497.402-3.225.517-5.183.115-1.727.115-3.225 0-4.492v-6.91c0-.461.057-.807.172-1.037l.172.518V81.73c0 1.267-.229 3.282-.689 6.047 0 .806-.115 1.9-.345 3.282-.229 1.383-.459 2.362-.689 2.938-.115.345-.23.863-.344 1.554-.115.692-.345 1.267-.69 1.728-.459.806-1.206 1.44-2.24 1.9-3.676 1.383-7.41 2.074-11.201 2.074-2.413 0-4.251-.461-5.515-1.382l-.861-.864-2.241-2.073c-1.263-.922-2.068-2.074-2.412-3.456l-.689-1.036c-.46-.23-.747-.576-.862-1.037v-1.037h.172l.69 2.074.172-.519zm22.23-70.662c1.034 2.188 1.666 4.78 1.896 7.775v7.947c.114-.115.172-.288.172-.518.115-1.267.172-3.053.172-5.356 0-2.419-.172-4.204-.517-5.356a62.901 62.901 0 00-2.068-7.429c0-.23-.172-.403-.517-.518-.344-.346-.689-.576-1.034-.691a5.686 5.686 0 01-.861-.691l.172-.173c1.723.806 2.815 1.843 3.274 3.11l1.551 2.937.517 2.591c.345 2.073.517 4.204.517 6.393l-.172 5.183a110.51 110.51 0 00-.172 5.701c.114 1.613.172 2.995.172 4.147v.345c0 .23.172.23.517 0v11.748c-.115-.23-.172-.518-.172-.864h-.173l-.172 3.283c-.23 4.838-.345 8.523-.345 11.057v6.565c.115 1.152.115 2.534 0 4.147 0 .921-.115 2.188-.344 3.8l-.517 3.974c-.115 1.382-.69 2.995-1.724 4.838-1.034 1.497-2.527 2.361-4.48 2.591l-5.515.519-.689.172v.173l3.964-.172c-1.724.46-3.619.69-5.687.69-.919 0-1.723-.172-2.413-.518-.689-.46-1.493-1.094-2.412-1.9-.69-.576-1.207-1.152-1.551-1.728-.69-.576-1.264-1.728-1.724-3.455-.344-1.728-.517-4.32-.517-7.775v-3.8c-.114-2.304-.172-5.817-.172-10.54 0-.345.058-.633.172-.863h.173l.517 2.764 1.034.173v9.33h.172v-4.32c0-1.958.057-3.398.172-4.32.115-1.151.115-2.188 0-3.11v-2.245c-.115-1.037-.172-2.534-.172-4.492l.345-10.366V37.154c0-1.381.229-2.418.689-3.11l.172 1.383c-.115 2.995-.172 7.371-.172 13.13-.115 2.074-.172 5.183-.172 9.33l-.173 7.947c0 2.419.115 4.204.345 5.356v17.45c0 .115.172 1.382.517 3.8v.346c-.345.576-.287 1.094.172 1.555.115.23.402.576.862 1.037.459.46.976.748 1.551.864 1.608.23 2.757.345 3.446.345 1.034 0 1.781-.058 2.241-.173l4.48-.345c1.609-.115 2.815-1.094 3.619-2.937.689-1.383 1.264-3.686 1.723-6.911.345-1.843.517-4.607.517-8.293v-4.146l.173-2.074-.173-1.382.173-8.293V44.411c0-.23-.058-.346-.173-.346l-.172 2.42v16.93l-.517 17.623c0 2.88-.517 6.508-1.551 10.884l-.345.346 1.034-4.838c.23-1.727.46-4.55.69-8.465l.344-13.995V48.212c-.229 2.303-.344 4.089-.344 5.356v2.246c.115.806.115 1.785 0 2.937 0 2.534-.115 6.335-.345 11.402v7.084c0 4.377-.747 9.214-2.24 14.513-.46 1.842-1.724 2.879-3.791 3.11a68.432 68.432 0 01-4.481.172 30.083 30.083 0 00-2.93-.173c-.919 0-1.723-.576-2.412-1.727-.46-1.383-.689-2.477-.689-3.283l-.345-17.104c0-3.8-.057-6.68-.172-8.638l.172-3.629.172-10.366-.172-7.601c.23-3.917.345-6.796.345-8.639a9.766 9.766 0 000-2.591c0-.922.057-1.843.172-2.765l.517-5.355c.115-.922.574-1.959 1.379-3.11.114-.115.517-.691 1.206-1.728.23-.23.402-.346.517-.346 2.298-.46 4.021-.69 5.17-.69 1.034 0 2.068.172 3.101.518h.173c1.378.115 2.355.518 2.929 1.21.575.69.977 1.784 1.207 3.282.115.806.402 2.015.861 3.628l.345.345-1.034-5.01zm13.441 54.25c0 2.994-.057 5.24-.172 6.737 0 2.88-.574 7.084-1.723 12.612-.689 2.88-2.183 5.702-4.481 8.466-1.608 2.073-3.848 3.398-6.72 3.974-5.055.921-8.961 1.382-11.719 1.382-2.642-.231-5.054-.979-7.237-2.246-.69-.461-1.207-.749-1.551-.864-1.034-.576-2.355-1.785-3.964-3.628-1.493-1.728-2.7-3.34-3.619-4.838-.459-.806-.804-1.727-1.034-2.764-.689-2.188-1.034-5.586-1.034-10.193 0-2.073-.057-3.628-.172-4.665a19.762 19.762 0 01-.172-2.764c.115-1.037.172-1.786.172-2.246l-.172-4.838c0-8.869.057-15.549.172-20.04l-.172-6.739c.23-3.686.344-6.508.344-8.465l.345-.346v.346c0 4.952-.057 8.696-.172 11.23l-.173 20.386c0 1.497.115 3.974.345 7.43v11.402l.345 6.565c.344 3.57 1.608 6.45 3.791 8.638l3.274 3.629c.919.691 1.609 1.151 2.068 1.382.575.345 1.379.806 2.413 1.382 1.034.576 1.895.979 2.585 1.209 1.148.346 2.355.518 3.618.518h2.413a54.445 54.445 0 0010.684-1.727c1.838-.461 3.504-1.613 4.998-3.456 2.642-3.11 4.193-6.565 4.653-10.366.689-3.685 1.148-6.45 1.378-8.293.115-2.188.172-5.528.172-10.02 0-3.225.058-5.644.173-7.256v-.864h.344v9.329zm-20.506 26.087c-1.379.691-2.356 1.037-2.93 1.037-1.953-.346-3.044-.518-3.274-.518-.689-.231-1.723-.691-3.102-1.383h.172v-.172c.115 0 .287.057.517.172.345 0 .69.116 1.034.346.575.346 1.264.518 2.068.518h1.551c1.494.115 3.159.058 4.998-.172 1.838-.346 3.159-.576 3.963-.692.689-.115 1.264-.287 1.723-.518.46-.23.862-.403 1.207-.518.919-.346 1.665-1.094 2.24-2.246.919-1.843 1.551-3.225 1.895-4.147l.517-2.591 1.034-5.701a1.6 1.6 0 000-1.037c0-.346.058-.749.173-1.21 0-.23.057-.403.172-.518.115-.115.172-.288.172-.518.115-.115.173-.288.173-.518V48.212l.344-8.639.517-7.428-.172-3.629h.172c.115.116.173.346.173.691.115 3.686 0 7.833-.345 12.44-.23 1.267-.345 2.764-.345 4.492.115 1.612.173 2.764.173 3.455v19.523c0 .46-.115 1.036-.345 1.728 0 .23.057.46.172.69.115.116.173.289.173.519l-.173 3.282c.345 4.608 0 10.079-1.034 16.413 0-1.266-.057-2.188-.172-2.764h-.172c-.23.691-.287 1.21-.173 1.555.23.46.345.749.345.864l-.345 1.382c-.114.806-.459 1.785-1.034 2.937-.459 1.037-.804 1.9-1.033 2.592-.69 1.151-1.781 1.843-3.275 2.073l-1.723.345c-1.723.807-3.791 1.325-6.204 1.555l.173-.691zm-25.677-67.206c-.115 1.727-.172 4.434-.172 8.12-.115 4.492-.173 11.287-.173 20.386 0 9.79.058 17.162.173 22.115 0 3.34.229 6.392.689 9.156.689 3.225 2.125 5.932 4.308 8.12.23.231.402.519.517.864.23.346.517.691.862 1.037l-.345.345-.172-.691c-1.838-2.188-2.815-3.34-2.93-3.455-1.149-1.728-2.01-3.974-2.585-6.738-.344-1.382-.574-2.995-.689-4.838v-4.319c-.23-8.293-.345-14.512-.345-18.659l.173-18.14c0-2.074-.058-3.629-.173-4.665l-.172-4.492c0-.23.172-1.9.517-5.01h.345l.172.864zm6.721-.173c.115.115.172 1.958.172 5.528 0 5.644-.115 11.806-.345 18.486-.229 6.68-.402 10.251-.517 10.712l-.172-1.9.172-13.822v-15.03l.517-3.974h.173zm9.478 68.761c-1.034-.115-1.953-.46-2.758-1.036a61.767 61.767 0 01-2.412-2.592c-1.264-1.267-2.126-2.303-2.585-3.11-.23-.23-.575-.978-1.034-2.245-.46-1.383-.689-3.456-.689-6.22l-.517-8.984V74.3l-.173-3.974.173-1.036h.344l.345 3.282c0 .576-.057 1.267-.172 2.073 0 .692.057 1.498.172 2.42l.172 8.465.345 5.183c0 3.11 1.149 5.701 3.446 7.775.46.345.805.748 1.034 1.209.345.345.69.633 1.034.864.345.345.747.691 1.207 1.036.459.231.861.461 1.206.691l.862.691zm-6.204-45.956c0 9.214.172 18.486.517 27.816h-.345L199.191 80c0-3.11-.058-5.413-.172-6.91-.115-2.074-.173-5.126-.173-9.157 0-5.644.058-9.848.173-12.612l-.173-7.084.345-9.33.172-.517-.172 22.632zm30.329 38.355c-.115.345-.229.806-.344 1.382-.115.46-.288.806-.517 1.036-1.609 2.304-2.528 3.571-2.757 3.801-.575.691-1.207 1.21-1.896 1.555-.689.231-1.666.461-2.93.691-2.068.346-3.906.576-5.514.691-1.494.116-2.757.231-3.791.346-.575.23-.862.115-.862-.346l.172-.172c.23-.116.46-.173.69-.173l1.034.173c.574 0 1.206-.058 1.895-.173a59.476 59.476 0 011.896-.518 139.4 139.4 0 012.585-.346 23.23 23.23 0 012.757-.518c2.642-.576 4.538-2.016 5.687-4.32.23-.69.804-1.727 1.723-3.11h.172zm-28.261-41.292c0-4.262.115-10.539.344-18.832h.345c.115.922.115 2.131 0 3.628-.115 1.383-.172 2.534-.172 3.456v7.083c-.115 1.613-.173 4.032-.173 7.257l-.517 6.738.173-9.33zm25.332-24.015c-.115.806-.173 2.073-.173 3.801-.229 4.031-.574 7.026-1.033 8.984 0-.576.057-1.037.172-1.382 0-1.037.115-2.592.345-4.665l.172-5.356c0-2.188-.172-4.376-.517-6.565-.115-.921-.402-1.958-.862-3.11a101.164 101.164 0 00-.861-2.764l-.173-.518.173-.173.689 1.382c.459 1.037.747 2.016.862 2.937l.861 5.01c0 .23.058.461.172.692.115.23.173.403.173.518.115.345.172.921.172 1.728h-.172v-.519zm8.444 18.314l.517-11.748v-.346 2.419c.115.806.115 1.785 0 2.937-.23 1.843-.345 4.607-.345 8.293.115 3.225.172 8.005.172 14.34.115.114.115.287 0 .518v.172h-.172v-1.382l-.172-15.203zm-7.066 3.628c-.114-1.037-.172-2.65-.172-4.838 0-2.534.058-4.78.172-6.738.115-1.958.23-3.628.345-5.01l.345-4.146-.69 20.732zm-36.533 12.785l.172 19.004h-.172l-.517-19.004h.517zm13.269 25.397c-.229-2.65-.344-6.623-.344-11.921v-7.948h.344v19.869zm13.269-79.992c2.643 0 4.711.691 6.204 2.073 1.379 1.152 2.183 1.843 2.413 2.073.23.115.459.634.689 1.555-1.493-1.958-3.332-3.455-5.514-4.492-.69-.345-1.551-.576-2.585-.69-1.034-.116-1.724-.173-2.068-.173-.689-.116-1.321-.116-1.896 0h-1.378l.172-.346h3.963zm-26.366 27.643v6.738c0 2.994-.057 5.24-.172 6.738h-.172V37.846h.344zm36.189 32.135l-.172-1.555.172-8.639.345-5.528h.172l-.172 15.722h-.345zm-8.961 24.878c-.23.23-.402.346-.517.346-3.332.691-6.491.979-9.478.864-.804-.115-1.436-.346-1.895-.691-.46-.346-.977-.98-1.551-1.9l1.723 1.554c.689.46 1.838.691 3.446.691 3.102 0 5.63-.288 7.583-.864l.689-.172v.172zm8.789-8.984c0-1.612.057-2.822.172-3.628l.172-3.973-.172-3.801.172-3.801c.115.23.173 1.382.173 3.455 0 2.304-.058 4.55-.173 6.738-.114 2.189-.229 3.859-.344 5.01zm-36.533-22.632a61.414 61.414 0 01-.173-4.32c.115-1.266.173-2.303.173-3.11v-3.627h.344v11.057h-.344zm34.465-3.974c0 3.801-.115 9.387-.345 16.759.115 0 .173.057.173.172V59.27h.172zm-27.572 21.423c.574 1.383.861 2.707.861 3.974 0 .691-.057 1.21-.172 1.555h-.345c0-1.152-.115-2.995-.344-5.529zm13.958-64.442c.23-.23 1.034-.346 2.413-.346 1.953 0 3.389.173 4.308.519l-6.721-.173zm-5.514 87.421h.344c.115-.116.287-.116.517 0l2.068.691h.345l.517.172c-.115 0-.23.058-.345.173v.173l-1.723-.346-1.896-.518.173-.345zm-4.481-6.566c-.689 0-1.264-.288-1.723-.864a20.674 20.674 0 01-.689-1.209c-.115-.23-.173-.403-.173-.518.115-.23.173-.403.173-.518l2.412 3.11zm-2.24-47.165v-8.812h.172v8.812h-.172zm24.47 41.982l1.034-9.502h.173l-1.034 9.502h-.173zM204.533 51.15v7.774-7.774zm32.57 12.612v8.12h-.173v-8.12h.173zm-2.93 30.235c0 1.612-.517 3.34-1.551 5.183l1.551-5.183zm1.551-58.742v-7.947 7.947zm-36.016 32.654c0 1.497.115 3.858.344 7.083h-.172l-.344-7.084h.172zm-6.032-14.34v3.973-3.973zm34.638-34.9c.46 1.613.862 2.822 1.206 3.629h-.517c-.115-1.037-.402-2.189-.861-3.456v-.172h.172zm1.723 71.7a1.04 1.04 0 01.69-.692c-.46.461-.69 1.037-.69 1.728v1.037c0 .345-.115.748-.344 1.209-.115.46-.173.806-.173 1.037l.517-4.32zm-27.572 8.12h.172v-.173l1.379.69c.115.116.287.231.517.346.23.115.287.403.172.864l-2.24-1.728zm-8.616-18.66l-.345-4.837h.345v4.838zm-.173-15.203v3.282h-.172v-3.282h.172zm43.771-25.397h-.172l.172-5.183v5.183zm-40.324 58.914c-.46-.23-.919-.691-1.379-1.382-.344-.691-.574-1.325-.689-1.9l2.068 3.282zm.862 8.984c0 .115-.058.173-.173.173l-2.068-2.074.173-.172 2.068 2.073zm32.052-96.06c0-.114.058-.172.173-.172 1.378 1.728 2.125 2.65 2.24 2.764l-.345.173-2.068-2.764zm-34.465 17.969c-.23 1.843-.345 3.167-.345 3.973h-.172l.345-3.973h.172zm29.813 48.375v3.628-3.628zm-3.447 19.523c0-.116-.115-.173-.345-.173l1.207-1.9.344.172-1.206 1.9zm-5.17-82.756c.575.115 1.379.172 2.413.172v.346l-2.413-.346v-.172zm-22.747 74.117c.23 1.613.345 2.764.345 3.456h-.173l-.172-3.456zm21.713-73.772c-.459-.115-1.206-.173-2.24-.173v-.345c.574.115 1.321.173 2.24.173v.345zm-15.165 4.32l-.517 3.282h-.172l.517-3.283h.172zm8.617-4.32c.459 0 .861-.058 1.206-.173v.346l-1.206.345v-.518zm-6.893 17.795c0-.576.115-1.324.344-2.246h.173l-.345 2.246h-.172zm25.504 73.081l1.551-1.382h.172l-1.551 1.555-.172-.173zm-3.446-54.595v3.974c.114 1.613.114 3.513 0 5.701-.23 8.293-.345 14.57-.345 18.832a57.66 57.66 0 01-1.551 13.303v.173c.115 0 .172.058.172.173l.862-2.592c.115-.23.115-.518 0-.864v-.863a43.797 43.797 0 001.034-9.503l.172-14.512v-16.24h-.344v2.418zm-16.544 46.82c.804.116 2.011.173 3.619.173 1.953 0 3.389-.115 4.308-.345 1.838-.23 3.102-.46 3.791-.691.805-.23 1.436-.806 1.896-1.728-.46.23-1.091.576-1.896 1.037-.804.46-1.551.748-2.24.864-1.378.23-3.676.46-6.893.69-2.412.116-4.48-.92-6.204-3.11a8.76 8.76 0 01-1.034-2.072c-.115-.807-.229-1.325-.344-1.555a98.272 98.272 0 00-.345-2.246l-.345-2.42c0-.575-.172-.748-.517-.517 0 .23.058.403.173.518.115.115.172.288.172.518.115.576.172 1.325.172 2.246 0 .806.058 1.498.173 2.073.23 1.613.632 2.765 1.206 3.456.46.345.804.749 1.034 1.21.345.345.747.69 1.206 1.036l2.241 1.382c.114 0 .172-.058.172-.173l-.345-.345zm16.027-57.877c0-.115-.058-.172-.173-.172 0 .69-.115 1.842-.344 3.455h.172l.345-3.283zm67.199-34.382h-.172v-.172c-.23.69-.345 1.209-.345 1.555V16.94l.345 11.057v20.387l.172 12.785-.172 2.073h-.173c-.115-.346-.23-.576-.344-.691a2.01 2.01 0 00-.345-.519c-.574-2.073-1.379-4.434-2.413-7.083l-2.068-5.702c-.344-.92-1.436-3.973-3.274-9.156l-3.791-9.675-5.687-14.858c-.689-2.189-1.723-4.723-3.102-7.602l-1.378-3.455c-.345.23-.575.23-.69 0-.114-.346-.229-.576-.344-.692L266.39 2.6l-.344 1.037c-.46-.461-.747-.807-.862-1.037-.345-.345-.632-.518-.862-.518-.229 0-.459.23-.689.69v-.517l-2.585-.691-1.034-.346c-.459 0-.862.288-1.206.864-.23 0-.575-.058-1.034-.173-.345-.23-.632-.288-.862-.173h-.517c-.574 0-1.034-.23-1.378-.69l-.173 1.554c0 .691-.229.806-.689.346 0 .345-.057.633-.172.863l-.69-.518c.345.46.517 1.152.517 2.073 0 .23.115.576.345 1.037l.172 1.037-.172 3.973h.172l.173-.69.689 3.8h-.172c0-.23-.058-.345-.173-.345h-.172c.23 4.376.287 7.774.172 10.193l-.172 10.366c.115 2.304.172 5.701.172 10.193v10.366l-.172 10.367v10.193h-.172c-.115-.46-.173-1.094-.173-1.9v6.737c0 2.42-.057 4.262-.172 5.529a81.074 81.074 0 00-.172 5.01c.115 1.382.172 2.592.172 3.628 0 6.22.115 10.885.345 13.995.229 1.151.344 2.13.344 2.937.23-.346.46-.519.69-.519.344-.115.689-.057 1.034.173.459.23.919.23 1.378 0 .46-.23.804-.173 1.034.173h2.757c.115 0 .402.115.862.345.115 0 .172.058.172.173.115.115.23.173.345.173l.517-.691v-1.382c.115.115.115.288 0 .518 0 .115.057.23.172.346.23.691.46 1.036.69 1.036.229.231.459.288.689.173h.689l-.172-.173.862-.691c.804.461 1.378.691 1.723.691.344 0 .689-.23 1.034-.691l1.034.346c-.115-.461-.115-.691 0-.691.115-.116.344-.173.689-.173l.172-2.246c-.229-3.225-.344-5.644-.344-7.256a3.838 3.838 0 01-.173-1.21c.115-.576.173-.979.173-1.21l-.173-8.292c0-1.037.058-2.073.173-3.11.115-1.036.172-2.073.172-3.11l-.172-15.722v-2.59c.115-1.152.115-2.419 0-3.801 0-1.497-.115-3.974-.345-7.43v-5.182l.517.69 2.24 5.702 7.238 18.314c1.034 2.764 2.7 6.91 4.997 12.439.115.46.288.979.517 1.555.345.576.575 1.037.69 1.382 0 .806.172 1.67.517 2.592l.517 1.209c.804 2.073 1.263 3.398 1.378 3.974l2.068 5.183c.919 2.534 1.551 4.434 1.896 5.701.115.346.574 1.67 1.378 3.974.23-.576.517-.749.862-.519.46.116.747.116.862 0v-.863l.517.345c.459-.23.804-.23 1.034 0 .344.23.574.403.689.518l.517-.863c.345.345.574.518.689.518.23-.115.517-.346.862-.691.919 1.152 1.895 1.382 2.929.691 0-.115.058-.173.173-.173.115 0 .172.058.172.173.689.23 1.206.288 1.551.173l1.551-.346c.804 0 1.206-.115 1.206-.345.345-.922.345-1.555 0-1.901-.115-.115-.172-.288-.172-.518 0-.231-.057-.403-.172-.519h.172l.345.519v-.173h.172v-.691c0-.461-.115-1.037-.345-1.728-.115-.806-.115-1.439 0-1.9v-.691c-.115-.231-.172-.576-.172-1.037v-.518c.115-.346.172-.922.172-1.728V87.43c0-1.152-.115-2.764-.344-4.837V80.52c.115-.922.115-1.959 0-3.11l-.173-10.885a98.6 98.6 0 01-.172-5.356c.115-1.612.172-2.936.172-3.973V27.134l.173-12.266v-3.11.518c0 .23-.173.288-.517.173.115.46.172 1.21.172 2.246 0 1.152-.23 2.994-.689 5.529l-.345-.692c-.23-2.073-.345-3.57-.345-4.492l.173-3.282c0-.23.057-.403.172-.518.115-.23.23-.404.345-.519l-.173-1.555.345-.69.345-1.037c.115.23.172.518.172.863 0 .116-.057.404-.172.864 0 .346.115.634.344.864.23-.46.345-1.382.345-2.764 0-.806-.057-1.325-.172-1.555-.23-.576-.23-1.094 0-1.555.229-.576.287-1.094.172-1.555 0-.23-.057-.403-.172-.518-.115-.23-.23-.346-.345-.346-1.494-.23-2.585-.288-3.274-.173-1.609.23-2.815.346-3.619.346l-.689-.173c-.23 0-.575-.057-1.034-.173-.345-.23-.632-.287-.862-.172h-.862c-1.148 0-2.01.115-2.585.345l-.861-.345c0 .23-.23.403-.689.518-.46 0-.747.173-.862.518 0 .576-.23 1.21-.689 1.9v.174h.172l.689-1.383h.345c-.115.116-.172.288-.172.519.114.23.114.403 0 .518-.69 1.267-1.034 2.995-1.034 5.183 0 .576-.115 1.44-.345 2.592.115-.922.172-2.304.172-4.147v-.69c-.459 0-.632-.116-.517-.346.115-.23.173-.404.173-.519 0-.345.057-.633.172-.864zm-7.755 66.343c0 .116-.057.288-.172.519 0 .115.057.288.172.518.46 1.382.747 2.419.862 3.11-.345-.922-.747-1.9-1.206-2.937a66.944 66.944 0 00-1.207-3.628c.23 0 .402.115.517.345.23.115.402.346.517.691l.517 1.382c.46 1.152.862 2.016 1.206 2.592l-.344.173-.862-2.765zm-20.162-41.81c.23.922.689 2.189 1.379 3.801.574 1.383.804 2.534.689 3.456 0 .806.057 1.382.172 1.727v-1.727l.345-.173c.23.921.345 1.555.345 1.9.114 1.152.114 2.189 0 3.11v2.419l-.173.173c-.115 0-.172.057-.172.173 0 .115-.058.288-.172.518 0 .115.057.288.172.518.23.346.345.922.345 1.728 0 .806-.058 1.44-.173 1.9l-.172.691.517 6.738v4.665c.23.46.345 1.152.345 2.073l-.173 3.456.173 9.33-.173 10.71v9.849l-.344 2.764c-.23-1.498-.345-3.859-.345-7.084-.115-.806-.172-1.958-.172-3.455 0 1.958-.058 3.398-.173 4.32 0 3.915-.115 6.852-.344 8.81h-.173v-1.555l-.517-1.727v-.346l.173-3.8v-1.556h-.345l-.172 8.466h-.173c-.115-.115-.172-.345-.172-.691 0-2.534.057-4.434.172-5.701l.173-14.34c0-2.304-.115-5.76-.345-10.366 0-.46-.057-.806-.172-1.037h-.173v1.555c0 6.45.058 11.288.173 14.513 0 .345-.058.864-.173 1.554 0 .692.058 1.267.173 1.728.115.115.057.288-.173.519-.115.115-.172.23-.172.345v1.555l-.172 6.565-.345.691-.172-5.528v-7.43l.172-6.565-.172-10.366c0-4.952-.058-8.638-.173-11.057l-.517-16.24c0-5.759.058-10.078.173-12.958V27.48h.172l1.034 2.418zm38.601 63.234c-.574-1.037-.861-2.304-.861-3.801l.172-3.456c-.115-1.727-.172-4.376-.172-7.947 0-.576.114-1.325.344-2.246v-.518c-.23-1.152-.344-1.958-.344-2.419v-5.356l.172-7.947-.172-4.492-.173-14.34.173-15.376.344-11.23c0-.23.058-.346.173-.346v8.293l.344-3.8h.173c.114.114.172.345.172.69 0 9.1-.058 15.895-.172 20.387l-.173 14.34.173 14.34c.114 3.34.172 8.292.172 14.858l.172 10.538v.519c-.115 0-.172.057-.172.173l-.345-.864zm-1.551-3.456a12.3 12.3 0 00-.517-1.555c-.115-.69-.172-1.267-.172-1.727-.23-14.282-.345-24.937-.345-31.962 0-3.801.115-9.388.345-16.759l.172-7.947V17.459l.173-7.602.344-4.837.173-.518h.172l.172.863c-.23 3.686-.459 8.984-.689 15.895l.172 15.722-.172 13.13c0 4.147.115 10.366.345 18.66.114 1.842.114 3.455 0 4.837v7.948l.344 7.255v.864h-.517zm-2.929-61.16c-.23 12.44-.345 21.827-.345 28.162 0 5.067.115 12.784.345 23.15-.805-.69-1.207-1.67-1.207-2.937V61.17c0-2.418-.114-4.664-.344-6.737-.23-1.498-.345-3.744-.345-6.738l.172-6.393c.115-3.225.173-8.062.173-14.512v-1.555h.172l-.172 14.685h.172l.517-17.795h.172c.23 1.843.345 3.167.345 3.974l-.172 5.355h.344v-2.937h.173zm-2.413-13.648c0 9.675-.057 16.989-.172 21.941l.172-.345v10.02h-.172v-5.183h-.173v31.271h-.344l-.173-1.21c-.114-1.15-.172-2.936-.172-5.355l-.172-11.921c0-6.795.057-11.921.172-15.376 0-3.57.115-8.812.345-15.722v-6.22l.172-1.9h.517zm3.274 20.386c0 3.11-.057 5.414-.172 6.911v1.555c.115.46.172 1.094.172 1.9l-.172 3.629c0 1.151.057 2.533.172 4.146.115 1.612.115 2.995 0 4.146 0 .807.058 1.786.173 2.938.115 1.036.115 1.958 0 2.764v.864c.115.23.115.518 0 .863 0 .23.057.519.172.864.115.346-.057.634-.517.864-.115.115-.172.346-.172.691.115.23.172.403.172.519.115 2.533.172 6.392.172 11.575 0 .46.058.749.173.864v-6.22h.172v10.02a9.565 9.565 0 01-1.034-4.319l-.172-12.957c0-3.455.057-6.047.172-7.775l-.172-5.355c0-3.571.057-6.22.172-7.948 0-2.649.115-6.623.345-11.92v-.52h.172l.172 1.901zm-30.674 6.738c.23 7.141.345 12.497.345 16.068.115 3.225.172 8.062.172 14.512v6.22c0 2.649.058 4.665.172 6.047.115.921.115 2.073 0 3.455-.114 1.382-.172 2.534-.172 3.456 0 1.036.058 1.842.172 2.418 0 .922-.114 2.304-.344 4.147v4.319c0 .691-.058 1.209-.173 1.555h-.172c-.115-.231-.172-.576-.172-1.037V65.834c.115-1.382.172-3.455.172-6.22l-.517-11.23v-6.392c0-.345.058-.633.173-.864h.172l.172.864zm23.264 36.973c.115.23.173.518.173.864-.115 0-.173.057-.173.172l-1.551-3.455-6.031-16.068-2.068-5.183-.172-.345-3.102-8.293-2.93-7.429-4.308-11.403-.345-1.555h.345l20.162 52.695zm-33.259-33.863c.115 3.225.173 8.12.173 14.685l-.173 5.01c.115 1.037.115 1.959 0 2.765v1.9c0 1.613.115 2.822.345 3.629.115.115.172.345.172.69l-.344 5.53.172 7.774v7.256l.517 12.094v1.9c-.115 0-.172.058-.172.173a3.836 3.836 0 01-.173-1.209c-.459-7.948-.689-19.811-.689-35.59v-31.79h.172v5.183zm10.857-.518c.23.46.402 3.398.517 8.811.23 5.413.344 11.172.344 17.277 0 12.9-.229 19.81-.689 20.732l-.172-.173.344-5.528.173-6.738-.173-10.02c-.114-3.226-.172-8.179-.172-14.859-.115-1.728-.172-4.377-.172-7.947v-1.555zm22.23 30.234c-.919-1.727-1.436-2.88-1.551-3.455l-1.034-3.974-1.034-3.455-3.446-8.293-4.998-13.649c-1.149-2.764-1.953-4.837-2.413-6.22-.229-.46-.287-.806-.172-1.036l.517 1.555 3.102 7.256 2.068 5.874c.23.461.345.806.345 1.037l4.135 10.539 1.724 3.973c.574 1.037.861 1.67.861 1.9 1.034 2.88 1.666 4.723 1.896 5.53.115.345.23.748.345 1.209.114.46.172.806.172 1.037-.115.115-.287.172-.517.172zm-33.948-9.848V14.177h.172V64.97h-.172zm4.652-3.8c-.574-7.717-.861-14.686-.861-20.905 0-3.571.115-8.927.344-16.068.115 2.995.115 5.644 0 7.948v12.093c0 7.602.173 13.246.517 16.931zm31.364-40.774c0-2.419.115-6.047.345-10.884 0-.46.057-.864.172-1.21a6.87 6.87 0 01.344-.863 379.926 379.926 0 00-.516 13.13c-.115 4.722-.173 8.063-.173 10.02 0 3.686-.115 9.215-.344 16.586h-.173v-4.319l.345-22.46zm-10.167 54.422c1.263 2.65 2.987 6.969 5.169 12.958 2.298 5.99 3.389 9.214 3.275 9.675a166.725 166.725 0 01-2.413-6.393l-6.204-16.067c.115 0 .173-.058.173-.173zm8.616 14.167v.691h-.345l-9.822-25.224.517-.173 7.41 19.178 2.24 5.528zm-4.998-16.067a4.4 4.4 0 00.517 1.036c.23.346.403.749.517 1.21l1.724 3.973c.229 1.152.459 1.959.689 2.42l1.034 2.072.517 2.074c-.23 0-.402.057-.517.172-.46-1.497-1.264-3.628-2.413-6.392a166.609 166.609 0 01-2.412-6.392l.344-.173zm16.544-21.596h-.345c0-4.723.115-11.69.345-20.905v-.173 21.078zM261.22 76.373c.115 1.267.173 3.168.173 5.701 0 1.959-.058 3.398-.173 4.32h-.172V70.672l.172 5.701zm41.703-63.924c0 3.11-.114 7.544-.344 13.303-.115-.46-.173-1.9-.173-4.32 0-5.182.173-8.177.517-8.983zm2.241 81.547h-.173v.172l-.172-21.769.345 21.597zm-13.097-68.071c-.115-.23-.172-2.304-.172-6.22 0-4.146.057-6.392.172-6.738v12.958zm13.097-19.35l-.517 16.413h-.173l.517-16.413h.173zm-47.907 30.234V20.396h.172V36.81h-.172zm-.345 57.532l.517 10.193h-.344l-.345-10.193h.172zm38.774-31.616v13.13h-.173v-13.13h.173zm-3.102-1.901v6.392h-.172v-6.392h.172zm13.958 27.643l-.344-5.874h.517v5.874h-.173zm-15.164-48.375c.229-2.995.344-5.126.344-6.393v6.393h-.344zm14.13-22.806l.173-5.528v.173h.172v5.355h-.345zm-50.836 88.803c0-1.727-.057-2.994-.172-3.801h.344v3.801h-.172zm50.319-3.801v-6.22h.173v6.22h-.173zm-43.943-7.256v7.602h-.172v-7.602h.172zm31.364-42.5V48.73v3.801zm-31.364 35.935v5.01h-.172v-5.01h.172zm28.951 9.848c.574 1.267.976 2.015 1.206 2.246l-.344.172c-.345-.46-.575-.863-.69-1.209-.115-.46-.229-.806-.344-1.037l.172-.172zm-21.541-3.456c.23.116.345.288.345.519 0 .46-.115.921-.345 1.382v-1.9zm-7.065-44.92c-.115-.69-.173-1.842-.173-3.455h.173v3.456zm41.013 10.54c0 1.266.058 2.245.173 2.937h-.345v-2.938h.172zm-30.501-25.052c.115 0 .172-.057.172-.173l1.379 3.456h-.173l-1.378-3.283zm34.293-7.429l-.173-3.455h.173v3.455zm-49.63 41.119c0-1.382-.058-2.419-.173-3.11h.173v3.11zm35.327-40.773c.114.575.172 1.497.172 2.764h-.172v-2.764zm4.652 58.913c.23.692.345 1.21.345 1.555l-.345.173-.344-1.728h.344zm-39.118-71.353v3.11h-.172v-3.11h.172zm13.097 4.147l1.034 2.591h-.172l-1.034-2.418.172-.173zM256.74 71.19v3.8h-.172v-3.8h.172zm26.021-8.294l-1.034-2.246.345-.173.689 2.42zm-3.274-7.774c.115 0 .172-.058.172-.173l1.034 2.246h-.172l-1.034-2.073zm-25.16-7.775h-.172v3.628h.172v-3.628zm9.306-2.419c0 .461-.057 1.037-.172 1.728-.115.691-.058 1.267.172 1.728v.172l.172 1.555c0 .461-.115 1.152-.344 2.074v.69c0 .577.115 1.44.344 2.592l.517 8.639-.172 1.209c-.115-.346-.172-.864-.172-1.555 0-.806-.23-1.44-.69-1.9v6.738l.69-.519c0 .461.057.806.172 1.037.115-1.382.172-3.398.172-6.047 0-2.419-.115-6.047-.344-10.884-.23-3.225-.345-5.644-.345-7.257zm.862 39.737v-2.591c.114-1.152.114-2.477 0-3.974a19.856 19.856 0 01-.173-2.419c.115-.691.173-1.267.173-1.728 0-1.036-.058-1.785-.173-2.246v12.958h.173zm-1.034-46.82c-.115 1.382-.173 3.57-.173 6.565h.173l.172-6.565h-.172zm2.068 49.239c.114 0 .172.057.172.172l.172-2.764h-.344v2.592zm36.016.345c-.23.461-.345.98-.345 1.555.115.576.173 1.037.173 1.382.229-1.151.344-2.13.344-2.937h-.172zm-.172-4.664h-.173v2.418h.173v-2.418zm22.634-80.509c-.115.115-.173.345-.173.69v7.603c0 1.036.115 2.591.345 4.664l-.172 8.12v2.42c-.23 3.454-.345 5.988-.345 7.6l.172 7.257c.115.576.115 1.325 0 2.246v7.429l-.517 5.356v30.061c.23 2.304.345 4.147.345 5.53v10.02c-.23 2.994-.345 5.183-.345 6.565 0 1.267.058 2.188.173 2.764l.689.173-.517 1.037c.345.23.574.23.689 0 .115-.346.173-.576.173-.691.229.115.517.172.861.172l.517.864 1.034-.345c.345-.116.747-.231 1.206-.346l.345.691c.23.231.402.346.517.346l1.206-.173.173.173.517-.864c.115 0 .172.057.172.173.345.806.747.863 1.206.172.115-.115.345-.172.69-.172h.861c.804 0 1.494.057 2.068.172l.345-.691c.23.576.689.749 1.378.519h2.241l.172-1.037c.23-3.225.345-5.759.345-7.602V87.949c0-.807-.058-1.555-.173-2.246a13.705 13.705 0 01-.172-2.246V77.41c.115-1.037.115-1.9 0-2.592v-1.9h-.172v.518h-.345V49.594l.172-.173v.691h.173v-3.628h-.173v1.21c-.229-1.843-.344-3.283-.344-4.32V30.59c.115-.807.115-1.728 0-2.765 0-1.612-.058-2.88-.173-3.8l-.172-3.629v-7.083c.115-.691.115-1.267 0-1.728v-1.21c.23 0 .46.116.689.346l-.344-4.146c0-.46.057-.806.172-1.037v-1.9c.115-.23.115-.403 0-.519-.115-.115-.747-.921-1.896-2.418 0-.116-.115-.173-.344-.173l-.345.691-1.034-1.21c-1.264 0-2.068.461-2.412 1.383l-.69-.173c-.574 0-1.149.115-1.723.345l-1.034.519c-.115-.346-.287-.519-.517-.519-.115 0-.287.116-.517.346l-.172-.518c-.23 0-.575.115-1.034.345-.345.23-.632.115-.862-.345h-1.378l-1.379.864h-.172zm4.48 36.108l-.172.173c-.115-.691-.173-1.785-.173-3.283l.173-5.01c.23-3.34.287-5.817.172-7.429.23.46.345 1.037.345 1.728v1.727c0 .807.115 2.016.344 3.628-.229-11.517-.344-20.271-.344-26.26l.344.345.173 3.801c.115 1.267.115 2.419 0 3.455v6.911l.517-.518.172 3.282h.172c.115-.806.173-2.073.173-3.8v5.701h-.173l-.172-.518c.46 3.8.747 6.507.862 8.12h.344v-2.592c-.23-1.151-.344-2.015-.344-2.591V15.04c-.345-.345-.517-.633-.517-.863 0-.23.115-.519.344-.864a9.47 9.47 0 00.517-1.21c.575.576.862 1.498.862 2.765v1.382c0 1.036-.115 1.843-.345 2.419-.23.806-.23 1.382 0 1.727.23.346.287.806.173 1.382 0 .576.057.98.172 1.21.23.46.287 1.036.172 1.727v1.21l.173 21.941c0 1.728-.115 4.204-.345 7.43l-.172 3.627.172 4.32-.172 18.831v9.848h-.345c0-1.382-.058-2.418-.172-3.11-.115-2.418-.173-5.931-.173-10.538V60.133l-.172-1.728-.345.518h-.172l.345-1.036c.229-.576.229-1.037 0-1.382-.115-.115-.173-.46-.173-1.037.23-4.377.345-7.66.345-9.848l-.172-11.575c0-.576-.058-1.037-.173-1.382v5.183l-.172 3.628c0 1.497-.057 2.65-.172 3.455-.23 7.602-.345 13.361-.345 17.277a38.5 38.5 0 00-.172 3.456c.115.92.172 1.727.172 2.418v14.686c0 .23.057.403.172.518.115.115.173.23.173.345.229.461.344.75.344.864l.173 13.13h-.173l-.344-8.983h-.173v1.9c0 .806-.115 1.785-.344 2.937 0 .23.057.46.172.691.115.23.172.403.172.519 0 .23-.057.576-.172 1.036 0 .46.057 1.037.172 1.728v.518c0 .691-.057 1.325-.172 1.9-.115.461-.23.864-.345 1.21-.229-1.958-.344-4.895-.344-8.811l-.345-8.811c0-2.074-.115-5.068-.345-8.984 0 .69-.057 1.497-.172 2.418 0 .807.058 1.786.172 2.938 0 2.533.058 4.376.173 5.528l.172 5.529v1.727c0 1.613-.172 2.822-.517 3.629h-.172l-.345-32.48h.345v.345c.459-1.383.689-2.304.689-2.765l-.345-1.382-.344 2.764h-.173v.173l-.172-.518v-.691c0-1.037.115-1.785.345-2.246.115-.23.115-.519 0-.864v-.864c-.115-.46-.173-1.152-.173-2.073 0-1.037.115-2.592.345-4.665.115-1.036.172-2.591.172-4.664 0-.461-.057-.98-.172-1.555a8.802 8.802 0 01-.172-1.728c0-.346.057-.691.172-1.037a3.83 3.83 0 00.172-1.21l-.172-2.418zm-1.034 1.728c0 2.534-.115 6.22-.345 11.057l-.172 5.529.172 13.994v10.884l.173 16.24-.173.346c-.344-1.267-.517-3.11-.517-5.529v-3.628c0-1.612-.057-2.764-.172-3.455v-.173c.115 0 .172.115.172.346h.173v-2.42c-.115-2.072-.173-5.182-.173-9.329v-16.93c0-2.42.115-5.817.345-10.194l-.172-16.586c-.115-3.34-.173-8.35-.173-15.03v-3.629h.345v4.665l.517 23.842zm-1.895-15.031c.114.576.172 1.555.172 2.937.115 1.958.172 5.01.172 9.157v10.711c-.115 1.843-.172 4.608-.172 8.293v17.623c-.115 2.303-.058 5.816.172 10.538 0 1.383-.057 2.477-.172 3.283l-.172-1.728-.173-20.213-.172-8.984c0-2.65.057-4.665.172-6.047l.173-6.22-.173-11.057V25.06h.173zm10.856 83.101c.345-6.91.517-17.219.517-30.925V40.091v16.414c0 1.958.115 5.125.345 9.502v28.161l-.517 13.994h-.345zm-2.757-67.206l-.345-21.424h.345l.172 21.424h-.172zm-2.93 30.234c.115 1.497.058 3.513-.172 6.047l-.172 4.146V71.19h.344zm6.721-22.805v-11.23l.172-.173v11.403h-.172zm-.689-26.434v10.712h-.173V21.95h.173zm.344-2.419v-7.774h.173v7.774h-.173zm.173 14.859v-9.675h.172v9.675h-.172zm-3.964 42.673v6.047-6.047zm-6.031 22.115v3.973h-.173v-3.974h.173zm1.034-85.175V7.266h.172v6.738h-.172zm-1.724-7.43v3.802h-.172V6.575h.172zm6.549 37.319v5.01h-.172v-5.01h.172zm-8.789-34.381V5.71h.173v3.8h-.173zm13.097 94.677v-2.764 2.764zm-5.342-13.476v3.283-3.283zm-2.93-59.26h-.172v3.801h.172v-3.8zm-.517 36.8h.173V64.97h-.173v3.283zm0 4.32h.173v-2.765l-.173-.173v2.937zm0-14.513h.173v-3.628h-.173v3.628zm81.072 53.385c1.034-.23 1.436-.806 1.206-1.728l-.172-.518c-.459.115-.689.058-.689-.173v-1.382l-1.724-8.811-2.067-8.984-2.413-11.575-2.068-11.403c-.574-2.65-1.321-6.508-2.24-11.576-.919-4.722-2.011-10.711-3.274-17.968l-2.241-11.92-2.585-12.267c-.344-1.037-.631-2.707-.861-5.01 0-.23-.058-1.095-.173-2.592-.114-1.497-.516-2.764-1.206-3.8-.804.46-1.436.402-1.895-.173-.345-.346-.632-.461-.862-.346l-1.896 1.037c-.229-.461-.402-.691-.517-.691-.689-.23-1.206-.288-1.551-.173-.804.23-1.436.288-1.895.173-.115-.116-.287-.116-.517 0-.23.115-.402.172-.517.172-.115 0-.402-.057-.862-.173-.459-.23-.919-.172-1.378.173 0 .115-.058.173-.173.173-.115 0-.229-.058-.344-.173-.115 0-.345-.057-.69-.173-.344-.115-.574-.23-.689-.345-.459-.23-.804-.346-1.034-.346-.23 0-.574.173-1.034.519a2.7 2.7 0 01-.517.69c-.23.231-.402.462-.517.692-1.034 3.57-1.666 5.932-1.895 7.083l-1.551 7.775-2.068 10.366-.173.691c0 1.267-.115 2.189-.344 2.764l-1.551 7.948c-.115.69-.173 1.785-.173 3.282l-.861 4.147-2.585 14.512c-.23.922-.46 1.498-.689 1.728-.345.346-.517.749-.517 1.21-.115.46-.173 1.094-.173 1.9 0 .69-.057 1.267-.172 1.727l-1.034 5.53c-.46 2.418-.747 4.088-.862 5.01l-.689 3.8c-.804 2.88-1.264 5.414-1.379 7.602-.114 1.497-.517 3.628-1.206 6.392l-.689 1.383v.345c.115 0 .115.058 0 .173 0 .46-.058 1.152-.172 2.073 0 .806-.173 1.555-.517 2.246l-.173.173c-.344-.115-.517 0-.517.345v.346l-.344 3.11-.345 1.382c0 .115-.115.518-.345 1.209 0 .116-.057.288-.172.519 0 .115.057.288.172.518.46.576.862 1.324 1.207 2.246l.344.345.517-.863.69 1.209c1.493 0 2.412-.461 2.757-1.382l.861.173c.575 0 1.092-.116 1.551-.346.575-.23.977-.403 1.207-.518.114.345.229.518.344.518.23 0 .46-.115.69-.345v.518l1.206-.518.861.691v-.173c.46 0 .805.057 1.034.173l.517-.519c.345-.23.632-.345.862-.345.46 0 .689-.231.689-.691l.517-2.592c.69-3.225 1.149-5.586 1.379-7.083l1.034-5.874c0-.576.287-.864.862-.864a59.19 59.19 0 004.135-.173c1.609-.115 2.987-.115 4.136 0l6.549.173c1.838 0 3.216-.115 4.136-.346.229-.115.517-.173.861-.173.46 0 .689.23.689.692.23.92.345 1.612.345 2.073.575 2.534 1.494 7.314 2.757 14.339l.173.692c.229-.231.402-.346.517-.346l.517 1.037c0-.346.114-.749.344-1.21 0 .115.115.403.345.864.23.346.632.518 1.206.518-.115-.23-.172-.633-.172-1.209l.345-.691.517.345.344.346c.23.461.517.749.862.864a5.06 5.06 0 001.206-.173c-.115-.345-.172-.864-.172-1.555v-.173l1.034 1.21.344-.173.345.691c0 .115.058.173.172.173.115 0 .23.057.345.173l.345-.519v-1.036c.919.691 1.608 1.267 2.068 1.727.114 0 .229-.057.344-.172.23-.231.402-.173.517.172a2.01 2.01 0 00.345-.518c.115-.23.287-.403.517-.518.115.23.402.461.861.691l1.207.345.344-.518h.862zm-18.784-50.103c-.459-1.958-.746-3.282-.861-3.973h.172c.23 1.843.46 3.167.689 3.973l.517 2.42.517 2.763.862 3.801h-.345l-.517-3.8-.689-2.074-.345-3.11zm5.86-3.973c.229 1.267.689 3.167 1.378 5.701l-.344.173-1.034-5.874-1.034-4.32h.344c.23 1.843.46 3.283.69 4.32zm-12.925-14.513c1.494 7.602 2.642 13.88 3.447 18.832.229.576.459 1.67.689 3.282h-.345l-4.48-25.05c-.23-.577-.46-1.671-.69-3.284h.173l.517 3.283.689 2.937zm-16.888-.173l.862-4.146.861-4.665c.804-4.146 1.379-6.968 1.724-8.465.344-1.728 1.148-5.414 2.412-11.058.345-1.036.747-2.591 1.206-4.664 0-.116.058-.173.173-.173l-.173.518-3.791 17.968-1.895 9.33-.517 1.209-.517 4.146h-.345zm6.893-.518l-.172.346h-.173l.517-3.629 1.034-3.8.862-3.629 1.034-7.601c.574 1.036.862 2.303.862 3.8 0 1.152-.173 2.362-.517 3.629.229 0 .344.057.344.172.23-1.151.345-1.9.345-2.246h.345v.519c.114.23.114.518 0 .864-.46 2.764-1.264 6.795-2.413 12.093l-1.723 9.503c-.115.46-.287.979-.517 1.554l-.345 1.383c-.23.69-.345 1.324-.345 1.9a15.29 15.29 0 01-.689 2.937c-.344 1.037-.574 1.843-.689 2.419-.345 1.152-.747 2.764-1.206 4.837v2.42l-.69 1.381c-.459 1.152-.574 2.016-.344 2.592.114.115.114.345 0 .69l-.173 1.21c-.115.576-.287.98-.517 1.21-.229.23-.689.288-1.378.172-.46-.115-.69-.403-.69-.863.115-.576.402-1.728.862-3.456.23-.576.402-1.324.517-2.246l.517-2.073c1.149-4.377 1.953-7.717 2.413-10.02.574-2.534 1.321-6.335 2.24-11.403l1.034-4.32 2.24-11.92v-.519c-.345.461-.517.922-.517 1.382l-.345 2.246-1.723 8.466zm.345 34.9c-.46 0-.747-.058-.862-.174 0-.23.058-.518.172-.863.115-.23.288-1.325.517-3.283l1.551-6.91c1.264-5.184 2.068-8.524 2.413-10.021.46-1.728.747-3.168.862-4.32l.861-4.146c.46-2.303.862-4.031 1.206-5.183a361.464 361.464 0 014.136 21.769l2.413 12.957h-1.034l-12.235.173zm1.723-55.46c.689.231.862.692.517 1.383-.23 1.497-.689 4.204-1.379 8.12l-2.585 13.476-.689 3.8c-.689 3.686-1.149 6.22-1.378 7.602a3.266 3.266 0 00-.173 1.037 1.6 1.6 0 010 1.037l-1.551 6.738v1.036c-.115.23-.172.461-.172.691.115.115.115.288 0 .519-.689 1.497-1.206 3.167-1.551 5.01-.23 1.843-.402 2.995-.517 3.455-.115.576-.287.922-.517 1.037-.115.115-.459.057-1.034-.173 0-.345.058-.633.172-.864 1.264-6.22 2.183-10.423 2.758-12.612l2.068-8.465 1.378-7.602 1.723-8.293 1.551-8.811c0-.116.173-1.267.517-3.456l.345-.69.517-2.42c.115-.345.115-.633 0-.863v-.691zm10.34 26.78c-.115-.115-.173-.23-.173-.346 0-.23-.057-.403-.172-.518h-.172l.861 4.837h.173l.172-.518c.115.23.23.749.345 1.555.229.806.229 1.555 0 2.246v.346c0 .69.229 1.267.689 1.727v.173a10.32 10.32 0 01.517 3.282l-.172-.69h-.173l1.207 6.737c0-.115.057-.172.172-.172v-.864c.919 3.685 1.551 6.507 1.895 8.465-.114-.115-.287-.172-.517-.172l.345 2.246h-.345l-.172-.519-1.034-5.528c-.689-2.995-1.149-5.183-1.378-6.565L384.227 41.3c-.69-3.225-1.149-5.644-1.379-7.256 0-.115-.057-.403-.172-.864-.115-.46.057-.749.517-.864.115 0 .115-.057 0-.172v-.519h.172l3.102 16.759h-.172zm3.102-6.22l-4.136-21.769h.172l1.034 4.32c0-.576-.172-1.498-.517-2.765-.23-1.382-.345-2.419-.345-3.11 0-.345.115-.979.345-1.9l.517 3.8c.919 3.456 1.551 6.105 1.896 7.948.229.806.459 2.016.689 3.628.345 1.267.747 3.168 1.206 5.702l.172 1.036v2.073l.69 4.838 1.206 6.047c0 .576-.057.979-.172 1.21l-5.17-26.262 2.585 15.204h-.172zm-19.473 34.726c.114-.23.172-.518.172-.863l3.619-17.105c.459-1.958.747-3.282.861-3.973l.862-3.974 2.585-13.303 1.034-4.837h.345v.69c-.69 2.88-1.436 6.45-2.241 10.712-1.149 6.22-2.068 10.827-2.757 13.822l-3.791 17.795-.345 1.036h-.344zm14.647-53.73c.23.46.46 1.266.69 2.418.229 1.037.517 1.843.861 2.419-.229.806-.057 1.44.517 1.9v.346c.115.23.058.403-.172.518-.115.116-.172.346-.172.691.115.23.172.404.172.519l1.379 6.565c.459 2.995 1.263 7.602 2.412 13.821l.517 3.456h-.345l-5.859-31.271a1.535 1.535 0 01-.172-.691c.115-.23.172-.461.172-.692zm-6.72 24.014c-.115.576-.23 1.325-.345 2.246-.115.807-.345 1.728-.689 2.765l-2.241 10.711-2.412 11.576c-.115.23-.172.518-.172.864.114.23.114.518 0 .863l-.345.691c-.23 0-.345-.057-.345-.172l7.927-38.01h.345l-1.723 8.466zm-4.653 32.999c.574-.346 3.331-.518 8.271-.518 4.021 0 6.262.115 6.721.345a3.81 3.81 0 01-1.206.173h-13.786zm-11.546 27.47c0-1.382.172-2.361.517-2.937.345-.921.632-2.303.862-4.146.574-1.958.919-3.859 1.033-5.702 0 .116-.114.288-.344.519-.115-.576-.115-.922 0-1.037.115-.23.459-.345 1.034-.345l-2.757 15.376-.345-.173v-1.555zm-.517-6.738c-.23-.921-.345-1.555-.345-1.9 0-.806.23-2.016.69-3.628l.689-1.21.345-.345.344.69-.517 3.11-.172.519c.115.115.172.346.172.691 0 .346-.172.749-.517 1.209-.344.346-.574.634-.689.864zm35.155 0c0 .346.057.576.172.691.345.461.517.979.517 1.555v1.21l.172 2.246h-.172l-.345-.691-2.068-11.058c-.115-.23-.172-.576-.172-1.036v-.173h.172l.345.864 1.379 6.392zm-7.41-16.413c-.46.23-3.907.346-10.34.346-3.447 0-5.457-.058-6.032-.173v-.173h16.372zm4.308-47.856l2.585 14.512h-.345l-2.585-14.34.345-.172zm-21.196 49.066h16.715v.172h-16.715v-.172zm0 .69l17.06-.345v.519h-17.06v-.173zm22.057-22.805c-.229-1.382-.689-4.031-1.378-7.947h.172c.23 1.037.632 2.995 1.206 5.874h.345l-.517-2.937h.172l.862 3.974c-.115 0-.172.057-.172.172l-.517-.518c.115.346.172.749.172 1.21l-.345.172zm12.753 45.266c-.575-1.037-.977-2.304-1.207-3.801-.115-1.498-.23-2.649-.344-3.456 1.034 2.649 1.551 5.068 1.551 7.257zm-42.221-2.419l2.241-12.267h.344l-2.412 12.267h-.173zm15.855-25.57l-1.896.346c-.919.23-1.608.345-2.068.345a3.78 3.78 0 01-1.206-.173 6.677 6.677 0 01-.862-.345v-.173h6.032zm-15.855-25.224l2.068-11.23h.173l-2.068 11.23h-.173zm22.748 22.978h-7.41v-.173h7.582l-.172.173zm-.517-39.91l1.723 9.503h-.172l-1.724-9.502h.173zm13.441 54.595c.115.346.632 2.707 1.551 7.084h-.172l-1.551-7.084h.172zm-16.199-66.17c.345 1.267.747 3.283 1.207 6.047h-.173a285.58 285.58 0 01-1.206-6.047h.172zm4.136 54.422h-4.825v-.173l4.825-.172v.345zm10.684 17.104c.575 2.534.977 4.204 1.207 5.011h-.345l-1.034-5.01h.172zm-42.047-5.183l-.345 1.728-.345 1.728-.344 1.9h-.173l1.034-5.356h.173zm30.846-58.396l1.034 5.53h-.172v.172l-1.034-5.702h.172zm-23.781 24.706c-.115.807-.402 2.304-.861 4.492h-.173l.862-4.492h.172zm7.927-22.46l.862-4.319h.172l-.861 4.32h-.173zm20.679-2.764a46.023 46.023 0 01-.689-3.455h.172l.69 3.455h-.173zm-25.849 72.39c.23-1.382.46-2.534.69-3.455h.172l-.689 3.455h-.173zm-2.929-30.58c.23-1.843.459-3.167.689-3.974l-.517 3.974h-.172zm35.499-6.22c-.23-.575-.459-1.67-.689-3.282h.172l.689 3.282h-.172zm4.136 38.355c0-1.037-.057-1.785-.172-2.246h.172l.345 2.246h-.345zm-12.063-79.473l-.517-2.765h.172l.517 2.765h-.172zm-1.895 25.051l-.517-2.937h.172l.517 2.937h-.172zm5.859 52.176c0 1.037.057 1.785.172 2.246h-.345v-2.246h.173zm-28.607-43.71l-.689 2.591h-.172l.689-2.591h.172zm10.685-28.853l-.345-.172-1.034 5.701h.345l1.034-5.529zm-2.758 15.895c-.919.806-1.378 2.016-1.378 3.628l1.378-3.628zm.517-5.701c.23-.576.46-1.44.69-2.592h-.173c-.229.576-.459 1.44-.689 2.592h.172zm-3.101 14.858h.172l.689-2.764h-.172l-.689 2.764zm18.611 13.821h.172l-.517-2.419h-.172l.517 2.42z" fill="#fff"/></svg>