<svg width="163" height="43" fill="none" xmlns="http://www.w3.org/2000/svg"><path d="M1.367 5.329C.775 6.38.41 7.586.273 8.945c-.09.613-.136 1.556-.136 2.827C.046 13.612 0 15.015 0 15.979l.068 2.959c0 1.534.023 2.673.069 3.419l.068 3.55-.068 3.681.068.986c-.046.658-.068 1.622-.068 2.893.045 1.753.66 3.572 1.845 5.457 1.048 1.665 2.756 2.827 5.126 3.484 1.048.263 2.05.395 3.007.395 1.731 0 3.508-.417 5.33-1.25.092-.043.32-.153.684-.328.41-.22.752-.482 1.025-.789.775-.657 1.458-1.468 2.05-2.432.684-.965 1.071-1.82 1.162-2.564.183-.92.274-1.973.274-3.156.09-1.666.136-2.937.136-3.813 0-.176-.045-.526-.136-1.052 0-.088-.069-.154-.205-.198l-.41-.065h-.205c-.32 0-.752-.132-1.299-.395-.182-.087-.319-.11-.41-.065-.137 0-.387.043-.752.131-.228.088-.341.153-.341.197a.54.54 0 00-.206.066.3.3 0 01-.273 0 .787.787 0 00-.341-.066.625.625 0 01-.274-.066c0-.087-.023-.153-.068-.197h-.069v.329l-.546.263a1.651 1.651 0 01-.069-.526h-.068c-.319.35-.57.723-.752 1.118-.045-.132-.068-.35-.068-.658-.091.088-.137.154-.137.198 0 .657-.023 1.14-.068 1.446 0 .263-.023.789-.069 1.578a13.076 13.076 0 01-.273 2.038c-.182.701-.387 1.205-.615 1.512l-.205.329c-.273.613-.706.986-1.299 1.117-.182.044-.387.088-.615.132a4.41 4.41 0 01-.82.066c-.182 0-.455-.044-.82-.132-.729-.175-1.162-.46-1.298-.855-.502-1.227-.73-2.41-.684-3.55v-1.71a12.8 12.8 0 00-.068-1.051c0-.482.023-.899.068-1.25 0-1.358-.068-2.388-.205-3.09a1.863 1.863 0 01-.068-.46c.045-.13.068-.24.068-.328 0-.22.023-.504.068-.855.046-.35.046-.635 0-.854a1.65 1.65 0 01-.068-.526l.068-.987c.092-.35.046-.613-.136-.788v-.33c.09-.35.136-.613.136-.788.046-1.49.069-3.726.069-6.706 0-1.183.205-2.191.615-3.024.182-.482.433-.855.752-1.118.5-.35 1.025-.526 1.572-.526.318 0 .637.066.956.197l.547.263c.73.351 1.162.877 1.299 1.578.182.614.364 1.447.546 2.499.046.438.069 1.073.069 1.906v1.25l.068.13 1.162 1.118c.046.044.091.066.137.066a.54.54 0 01.205-.066c-.091-.087-.137-.175-.137-.263 0-.087-.023-.153-.068-.197 0-.044.022-.066.068-.066.365.263.66.439.888.526v-.131l.547.197a.44.44 0 01.205.197.79.79 0 01.205.132c.274 0 .479.022.615.066.183 0 .32-.066.41-.198 0-.087.069-.131.205-.131.274 0 .41-.132.41-.395.137-.131.228-.197.274-.197l.615.263a2.02 2.02 0 01.273-.197.489.489 0 01.479-.132c.09.044.182.022.273-.065.273-.439.41-.79.41-1.052-.091-.79-.182-1.929-.273-3.419-.091-2.016-.41-3.572-.957-4.668-.683-1.315-1.367-2.3-2.05-2.958-.775-.833-1.754-1.49-2.94-1.972C13.054.31 11.414-.04 9.774.004c-1.64 0-3.326.504-5.057 1.512-.046.087-.16.175-.342.263l.273.197-.615.263-.136-.132-.137.132c.091.131.068.241-.068.329-.092.087-.16.153-.205.197l-.206-.066-.546.592-1.367 2.038zm.478 29.584c0 .044.046.154.137.33.182.7.456 1.38.82 2.037.41.614.66.986.752 1.118.091.175.137.307.137.394l-.137-.131-1.504-2.893a6.14 6.14 0 01-.136-.46 1.735 1.735 0 01-.069-.395c-.319-.745-.478-1.577-.478-2.498.182 1.052.342 1.82.478 2.301v.197zM13.054 4.738c.136.088.296.176.478.263.182.044.365.132.547.263 1.276 1.14 2.005 2.498 2.187 4.076.045.395.09.877.137 1.447.045.526.068.942.068 1.249l-.069.131a4.773 4.773 0 01-.068-.92 20.97 20.97 0 01-.136-1.315c-.046-.614-.137-1.118-.274-1.512a4.442 4.442 0 00-1.435-2.564l.205.329c.547.745.934 1.446 1.162 2.103.09.395.182.987.273 1.775l.205 3.353v.198h-.136a.707.707 0 00-.069-.33c0-.35-.023-.81-.068-1.38 0-.57-.046-1.227-.137-1.972-.091-1.096-.364-2.016-.82-2.761l-.41-.592c-.091 0-.16-.022-.205-.066-.547-.526-.934-.942-1.162-1.249l1.162.986c-.547-.745-1.253-1.205-2.119-1.38-1.093-.351-1.982-.504-2.665-.46-1.413.087-2.506.547-3.28 1.38-.73.877-1.23 1.907-1.504 3.09-.137.438-.205 1.14-.205 2.104l-.069 3.484c0 2.893.023 5.062.069 6.509 0 1.008.045 2.389.136 4.142l.069 2.038.068 4.142c0 1.052.114 1.972.342 2.76 0 .089-.023.154-.069.198l-.068-.263c-.045-.175-.114-.46-.205-.855a5.87 5.87 0 01-.137-1.183l-.205-7.034-.205-7.364v-4.405c.046-.35.069-.832.069-1.446V10.26c0-.965.205-1.863.615-2.696.09-.131.16-.285.205-.46.09-.175.182-.329.273-.46.501-.79 1.048-1.38 1.64-1.775.32-.22.752-.373 1.299-.46.319-.088.775-.132 1.367-.132.774 0 1.435.088 1.982.263.911.22 1.64.526 2.187.92l-1.025-.723-.752-.197c-.957-.307-1.754-.438-2.392-.394l-.205-.066c.136-.044.341-.066.615-.066.364 0 .866.088 1.503.263l1.23.46zM9.02 40.502c-1.549-.132-3.007-.745-4.374-1.841-.182-.132-.432-.46-.751-.986L2.87 35.768a3.874 3.874 0 01-.341-1.117H2.46l.205.788H2.53a6.556 6.556 0 00-.274-.986 2.435 2.435 0 01-.136-1.117c.045-.088.045-.197 0-.329v-.329c0-.789-.023-1.38-.069-1.775V27.88l.137 1.775v1.644c0 .7.023 1.249.068 1.643.137 1.447.57 2.74 1.299 3.88l.615 1.117c.364.657 1.093 1.227 2.187 1.71.137.043.456.174.957.393.547.22 1.093.351 1.64.395l.068.066h1.094l1.708-.066c-.136.044-.341.066-.615.066H9.021zm7.997-34.187a.439.439 0 00-.206-.197.764.764 0 01-.136-.197c-.684-1.096-1.868-1.995-3.554-2.696l-.82-.263c-.046 0-.16.022-.342.066a.474.474 0 01-.342-.132c-.319-.131-.706-.197-1.161-.197a9.472 9.472 0 00-.889-.066h-.205c-.911.176-1.595.33-2.05.46-.593.22-1.344.768-2.256 1.644-.5.526-.956 1.271-1.366 2.235-.502 1.052-.752 2.082-.752 3.09-.091 1.754-.137 3.09-.137 4.01v3.552h-.137v-1.71h-.068v.527H2.53l.068-.855a1.88 1.88 0 00-.068-.46c0-.176.022-.373.068-.592 0-2.06.023-3.594.068-4.602.046-1.227.41-2.476 1.094-3.747a8.38 8.38 0 012.255-2.63c.684-.57 1.64-.964 2.87-1.184.228-.043.57-.065 1.026-.065 1.093 0 2.392.285 3.895.854.593.263 1.345.79 2.256 1.578-.365-.482-.889-.92-1.572-1.315-1.504-.789-2.939-1.183-4.306-1.183-2.278-.088-4.078.68-5.399 2.301-1.412 1.534-2.141 3.31-2.187 5.325a84.615 84.615 0 00-.205 5.851c0 1.096.046 2.74.137 4.931l.136 7.1.137 4.537c.091 1.797.615 3.375 1.572 4.733-.456-.7-.843-1.643-1.162-2.827-.182-.57-.273-1.227-.273-1.972 0-.438.023-.767.068-.986l.137-.066.068.46c-.091 1.096.137 2.345.684 3.748.182.482.546 1.161 1.093 2.038.182.307.479.57.889.789 1.458 1.008 3.075 1.446 4.852 1.315l.342-.066.341.131-.136.132c-.046.044-.091.066-.137.066h-1.3c-.227 0-.751-.044-1.571-.132a.8.8 0 00.205.132c.09.043.16.087.205.131-.183 0-.32-.022-.41-.066a43.993 43.993 0 00-1.162-.328 5.075 5.075 0 01-1.709-.987c-.228-.131-.501-.394-.82-.789l-.683-1.117c-.866-1.403-1.299-3.024-1.299-4.865l-.137-6.772c0-1.446-.022-2.542-.068-3.287l-.068-3.221-.069-2.893.069-2.827c0-1.666.068-2.893.205-3.682.273-2.279 1.275-4.12 3.007-5.522.774-.701 1.822-1.162 3.144-1.38.638-.088 1.116-.132 1.435-.132 1.503 0 3.007.438 4.51 1.315 1.185.613 2.188 1.73 3.008 3.353.592 1.14.888 2.432.888 3.878l.069 1.184v.591c0 .395.045.899.136 1.513.046.043.069.131.069.263l-.137.131c0-.088-.046-.22-.137-.394l-.068-1.052c0-.132-.023-.198-.069-.198a.638.638 0 01-.273-.328v-.329c0-.614.023-1.074.068-1.38.046.262.069.635.069 1.117v-.657c.045-.263.045-.57 0-.92-.091-1.535-.433-2.828-1.025-3.88l-.889-1.315-.273-.197 1.093 1.512-.136.066zM14.01 37.872l-.341.329a3.526 3.526 0 001.298-.79c1.185-1.314 1.891-2.585 2.119-3.812l.068-.132c0 .57-.16 1.162-.478 1.775-.228.482-.615 1.162-1.162 2.038-.547.745-1.344 1.25-2.392 1.512l-1.64.395c-.638.088-1.116.131-1.435.131-1.458 0-2.848-.438-4.17-1.314-.364-.351-.615-.636-.751-.855-.228-.35-.456-.767-.684-1.25a8.993 8.993 0 01-1.025-4.207l-.068-3.156c0-1.709-.023-2.98-.069-3.813l-.068-7.034c-.045-1.14-.068-2.85-.068-5.128 0-.307.023-.833.068-1.578.046-.745.114-1.403.205-1.972.274-1.973 1.14-3.55 2.597-4.734.82-.657 1.846-1.096 3.076-1.315.182-.044.478-.066.888-.066 1.322 0 2.666.351 4.033 1.052 1.549.877 2.62 2.236 3.212 4.076.045.132.182 1.008.41 2.63a2.72 2.72 0 010 .855c0 .263.023.548.068.854v.395c-.456-.175-.683-.504-.683-.986l-.137-1.315c0-.35-.046-.789-.137-1.315-.273-1.797-1.116-3.2-2.528-4.208-1.458-1.051-2.94-1.512-4.443-1.38-2.05.044-3.6.986-4.647 2.827-.82 1.402-1.208 2.87-1.162 4.405 0 .876-.023 1.512-.068 1.906l-.069 1.973c0 2.016.023 3.528.069 4.536l.068 1.578c.046.394.068.942.068 1.643.091 2.805.137 4.887.137 6.246 0 1.315.023 2.3.068 2.958.091 1.184.274 2.148.547 2.893.137.438.365.899.684 1.38.318.483.546.855.683 1.118.137.088.16.176.068.263-.045.044-.068.088-.068.132.045.044.091.066.137.066.136.043.25.11.341.197a.865.865 0 00.342.197l.547.263c.228.044.433.11.615.197.592.263 1.344.35 2.255.263l2.119-.263c.228-.044.41-.11.547-.197a3.84 3.84 0 01.478-.197l.41-.132.069.066zm-2.938-36.29l-1.299-.066c-.045 0-.068.022-.068.065h.41l-3.007.46v-.065c.5-.175.82-.285.957-.329.91-.175 1.594-.263 2.05-.263 1.458.088 2.756.395 3.896.92a2.7 2.7 0 01.41.33c.182.13.319.219.41.262a2.85 2.85 0 011.435.855l.957.92c.273.263.387.548.341.855 0 .044.046.11.137.197A10.074 10.074 0 0119 9.865c0 .307-.023.548-.069.723 0-.263-.045-.657-.137-1.183-.045-.92-.296-1.84-.751-2.761-1.094-2.148-2.688-3.594-4.784-4.34-.41-.13-1.253-.35-2.529-.657h.342v-.066zM7.792 37.28c.728.35 1.548.526 2.46.526.364 0 .865-.044 1.503-.131 1.504-.22 2.665-1.008 3.486-2.367a6.549 6.549 0 00.888-2.432c.137-.92.205-1.841.205-2.762v-.591c0-.614.023-1.074.069-1.381h.068l.068.329c0 .438-.023 1.117-.068 2.038 0 .92-.069 1.731-.205 2.432-.274 1.49-.98 2.783-2.119 3.88-.41.394-1.048.678-1.914.854l-1.161.263c-.183.044-.456.066-.82.066-.82 0-1.732-.22-2.734-.658 0-.044-.023-.066-.069-.066v-.131l.342.131zM12.37 6.71c1.14.525 1.823 1.468 2.05 2.826l.206 2.499.068 1.578v.263l-.068.065c-.092-.175-.137-.307-.137-.394l-.205-3.09c-.046-1.271-.638-2.455-1.777-3.55l-.137-.197zM2.665 18.805c.092.132.183.986.274 2.564.09 1.534.136 3.024.136 4.47 0 1.184-.045 1.864-.136 2.039H2.87l-.205-9.073zM8.953 6.381c-.091.087-.16.131-.205.131-.365.132-.638.329-.82.592-.182.263-.41.657-.684 1.183-.455.877-.683 2.082-.683 3.616l-.068.79h-.137l-.068-.33c.09-1.446.205-2.52.341-3.221.137-.701.456-1.403.957-2.104.137-.219.365-.372.684-.46.319-.131.524-.22.615-.263v.066h.068zm7.723 4.47c-.091-1.884-.592-3.418-1.504-4.602-.729-.964-1.526-1.578-2.392-1.84l-.205-.066c.41 0 .866.175 1.367.526.775.438 1.435 1.205 1.982 2.3a4.66 4.66 0 01.547 1.579 9.54 9.54 0 01.273 1.577c.046.482.069.79.069.92v1.25h-.069l-.068-1.644zM9.636.858c1.459-.131 3.008.176 4.648.92 1.64.702 2.825 1.688 3.554 2.96-1.868-2.368-4.602-3.66-8.202-3.88zm5.81 9.402c-.091-1.359-.524-2.542-1.299-3.55 0-.088-.023-.132-.068-.132l.068-.066c.274.35.57.811.889 1.38.364.79.592 1.798.683 3.025 0 .438.046 1.14.137 2.104l-.069.263h-.136v-.263l-.205-2.761zm-.957-1.184c.319.482.478 1.052.478 1.71.046.657.069 1.095.069 1.315l.068.92h-.068l-.137-.723v.657h-.068l-.342-3.879zM6.493 19.332c-.091-.35-.137-1.337-.137-2.958 0-1.622.046-2.608.137-2.959v5.917zM3.417 3.357a13.755 13.755 0 00-2.46 4.865c-.046-.57.228-1.425.82-2.564.592-1.184 1.139-1.95 1.64-2.301zm2.939 32.017c-.592-1.008-.888-1.995-.888-2.959l.888 2.959zm-2.87 4.076c-.365-.35-.707-.811-1.026-1.38l-.683-1.316 1.777 2.696h-.068zm1.845-4.997c.182.263.433.702.752 1.315.319.57.706 1.03 1.161 1.38h-.068v.067c-.319-.22-.501-.373-.547-.46a60.156 60.156 0 00-.615-.855c-.319-.482-.524-.92-.615-1.315l-.068-.132zm6.15 5.128c.046-.044.07-.087.07-.131 0-.044.022-.066.067-.066.092 0 .228-.022.41-.066.228-.087.433-.087.616 0v.132l-1.094.197-.068-.066zm-4.92-4.01c.137.35.319.636.547.855.273.175.638.372 1.093.591a3.023 3.023 0 01-1.093-.46 1.456 1.456 0 01-.547-.986zM19 6.644c.182.307.341.767.478 1.38.137.614.205 1.052.205 1.315L19 6.644zm-9.09-.526c.136-.132.319-.197.547-.197.318 0 .57.087.751.263L9.91 6.118zm9.978 5.785c0 .307.046.811.137 1.512h-.137l-.137-1.512h.137zm-2.324 16.962c-.045.22-.068.57-.068 1.052h-.137v-.46c0-.22.023-.417.069-.592h.136zM5.4 28.668l.137 1.578H5.4v-1.578zm-1.23-26.1c0 .219-.205.306-.615.263l.547-.46.068.197zm14.694 28.138v-1.578H19l-.137 1.578zM13.26 8.156c.273.263.41.592.41.986l-.547-.986h.137zM.683 32.48v-2.3h.069v2.301H.683zm11.55-27.152l-1.23-.263c0-.088.023-.153.069-.197l1.162.394v.066zm5.058 1.249c0-.044.114.22.342.789-.365-.132-.502-.395-.41-.789h.068zm1.025 24.128v-1.972h.069v1.972h-.069zm-4.305-19.723l.136.986h-.136l-.137-.986h.136zM19 13.35l-.069-1.315H19l.136 1.249-.136.066zm-.479 20.972l.205-1.315h.069l-.206 1.315h-.068zM13.874 6.315l-1.025-.789h.068V5.46l1.025.79-.068.065zM1.845 26.63v-1.644h.069v1.644h-.069zm-1.503-.197v1.709H.273v-1.71h.069zm17.496-18.54c.136.219.16.482.068.789l-.205-.79h.137zm.752 6.837l-.206-.591h.069l.41.46-.273.131zm-3.623 22.156c.137.175.16.307.069.394l-.137.066-.068.066c-.046 0-.069-.022-.069-.066-.045 0-.068-.022-.068-.066v-.065l.273-.33zM13.464 6.972c0 .044-.023.066-.069.066l-.683-.591c.046 0 .068-.022.068-.066l.684.591zM1.777 24.197v-1.38 1.38zM.205 11.18c.046-.263.068-.657.068-1.183h.069c0 .526-.023.92-.069 1.183H.205zM9.226.924l-1.161.197v-.065L9.158.858l.068.066zM3.28 12.758v5.851-5.851zM3.623 24v-2.235V24zm0-14.266v1.84-1.84zm.069 16.238v-1.38 1.38zm4.237 13.61a95.24 95.24 0 00-1.23-.46 4.195 4.195 0 01-1.367-.855c.683.57 1.549 1.008 2.597 1.314zM47.5 42.408c.41-.087.57-.306.479-.657l-.069-.197c-.182.043-.273.022-.273-.066v-.527l-.683-3.352-.82-3.419-.957-4.404-.82-4.34a136.83 136.83 0 01-.889-4.404 349.42 349.42 0 01-1.298-6.838l-.889-4.536L40.256 5c-.137-.394-.25-1.03-.342-1.906 0-.088-.023-.417-.068-.987-.046-.57-.205-1.051-.478-1.446-.32.175-.57.153-.752-.066-.137-.131-.25-.175-.342-.131l-.752.394c-.09-.175-.16-.263-.205-.263-.273-.087-.478-.11-.615-.065-.319.087-.57.11-.752.065-.045-.043-.114-.043-.205 0a.54.54 0 01-.205.066 2.13 2.13 0 01-.34-.066c-.183-.087-.365-.065-.547.066 0 .044-.023.066-.069.066-.045 0-.09-.022-.136-.066-.046 0-.137-.022-.274-.066A.752.752 0 0133.9.464c-.182-.088-.319-.132-.41-.132-.091 0-.228.066-.41.198a1.036 1.036 0 01-.205.263c-.091.087-.16.175-.205.263-.41 1.358-.66 2.257-.752 2.695l-.615 2.959-.82 3.944-.069.263c0 .482-.045.833-.136 1.052l-.615 3.024c-.046.263-.069.68-.069 1.25l-.341 1.577-1.026 5.523c-.09.35-.182.57-.273.657a.62.62 0 00-.205.46 3.01 3.01 0 00-.068.723c0 .263-.023.483-.069.658l-.41 2.104c-.182.92-.296 1.556-.341 1.906l-.274 1.447c-.319 1.095-.5 2.06-.546 2.892-.046.57-.206 1.381-.479 2.433l-.273.526v.131c.045 0 .045.022 0 .066 0 .175-.023.438-.069.789 0 .307-.068.592-.205.855l-.068.065c-.137-.043-.205 0-.205.132v.131l-.137 1.184-.136.526c0 .044-.046.197-.137.46a.49.49 0 01-.068.197c0 .044.022.11.068.197.182.22.342.504.478.855l.137.131.205-.328.273.46c.593 0 .957-.175 1.094-.526l.342.066a1.4 1.4 0 00.615-.132c.228-.087.387-.153.478-.197.046.132.091.197.137.197.091 0 .182-.044.273-.131v.197l.479-.197.341.263v-.066c.183 0 .32.022.41.066l.205-.197c.137-.088.251-.132.342-.132.182 0 .274-.088.274-.263l.205-.986c.273-1.227.455-2.126.546-2.696l.41-2.235c0-.219.114-.328.342-.328.456 0 1.002-.023 1.64-.066a10.182 10.182 0 011.64 0l2.598.066c.729 0 1.275-.044 1.64-.132a.785.785 0 01.342-.066c.182 0 .273.088.273.263.091.35.137.614.137.79.227.963.592 2.782 1.093 5.456l.069.263c.09-.088.159-.132.205-.132l.205.395c0-.132.045-.285.136-.46 0 .043.046.153.137.328.091.132.25.197.478.197-.045-.087-.068-.24-.068-.46l.137-.263.205.132.136.131c.092.176.206.285.342.33.137 0 .296-.023.479-.067-.046-.131-.069-.328-.069-.591v-.066l.41.46.137-.066.137.263c0 .044.022.066.068.066.046 0 .091.022.137.066l.136-.197v-.395c.365.263.638.482.82.657.046 0 .092-.021.137-.065.091-.088.16-.066.205.066a.762.762 0 00.137-.198.439.439 0 01.205-.197c.046.088.16.175.342.263l.478.132.137-.198h.342zm-7.449-19.065a27.838 27.838 0 01-.342-1.512h.069c.09.7.182 1.205.273 1.512l.205.92.205 1.052.342 1.446h-.137l-.205-1.446-.273-.789-.137-1.183zm2.324-1.512c.09.482.273 1.205.546 2.17l-.136.065-.41-2.235-.41-1.644h.136c.091.701.183 1.25.274 1.643zm-5.126-5.523c.592 2.893 1.048 5.282 1.367 7.166.09.22.182.636.273 1.25h-.137l-1.777-9.534c-.09-.219-.182-.635-.273-1.249h.069l.204 1.25.274 1.117zm-6.698-.066l.342-1.578.342-1.775a110.4 110.4 0 01.683-3.221c.137-.657.456-2.06.957-4.208.137-.394.296-.986.478-1.775 0-.044.023-.065.069-.065l-.069.197-1.503 6.837-.752 3.55-.205.46-.205 1.578h-.137zm2.734-.197l-.068.132h-.069l.205-1.381.41-1.446.342-1.381.41-2.893c.228.395.342.877.342 1.447 0 .438-.069.898-.205 1.38.091 0 .136.022.136.066.092-.438.137-.723.137-.855h.137v.198c.046.087.046.197 0 .328-.182 1.052-.501 2.586-.957 4.602l-.683 3.616a4.533 4.533 0 01-.205.592l-.137.526a2.223 2.223 0 00-.137.723c-.045.35-.136.723-.273 1.118a8.038 8.038 0 00-.273.92 26.856 26.856 0 00-.479 1.84v.921l-.273.526c-.183.439-.228.767-.137.986.046.044.046.132 0 .263l-.068.46c-.046.22-.114.373-.205.46-.091.088-.274.11-.547.067-.182-.044-.273-.154-.273-.33.045-.218.159-.657.341-1.314.091-.22.16-.504.205-.855l.205-.789c.456-1.665.775-2.936.957-3.813.228-.964.524-2.41.889-4.339l.41-1.643.888-4.537v-.197c-.137.175-.205.35-.205.526l-.137.855-.683 3.221zm.137 13.28c-.183 0-.296-.022-.342-.065 0-.088.023-.198.068-.33.046-.087.114-.503.205-1.248l.615-2.63c.502-1.972.82-3.243.957-3.813.183-.658.296-1.206.342-1.644l.342-1.578c.182-.876.341-1.534.478-1.972a133.026 133.026 0 011.64 8.284l.957 4.93h-.41l-4.852.066zm.683-21.103c.274.087.342.263.205.526-.091.57-.273 1.6-.547 3.09l-1.025 5.127-.273 1.447a167.73 167.73 0 00-.547 2.893 1.197 1.197 0 00-.068.394.587.587 0 010 .394l-.615 2.564v.395a.565.565 0 00-.069.263c.046.044.046.11 0 .197a7.877 7.877 0 00-.615 1.907c-.09.701-.16 1.14-.205 1.315-.045.219-.114.35-.205.394-.045.044-.182.022-.41-.066 0-.131.023-.24.068-.328.502-2.367.866-3.967 1.094-4.8l.82-3.221.547-2.893.683-3.155.615-3.353c0-.044.069-.483.205-1.315l.137-.263.205-.92c.046-.132.046-.242 0-.33v-.262zm4.1 10.19c-.045-.044-.068-.088-.068-.132 0-.087-.022-.153-.068-.197h-.068l.341 1.841h.069l.068-.197c.046.087.091.285.137.591.09.307.09.592 0 .855v.132c0 .263.09.482.273.657v.066c.137.394.205.81.205 1.249l-.068-.263h-.069l.479 2.564c0-.044.023-.066.068-.066v-.329c.365 1.403.615 2.477.752 3.222-.045-.044-.114-.066-.205-.066l.137.855h-.137l-.068-.197-.41-2.104c-.274-1.14-.456-1.973-.547-2.498l-1.64-8.679c-.274-1.227-.456-2.147-.547-2.76a1.89 1.89 0 00-.069-.33c-.045-.175.023-.284.205-.328.046 0 .046-.022 0-.066v-.197h.069l1.23 6.377h-.068zm1.23-2.367l-1.64-8.284h.069l.41 1.644c0-.22-.068-.57-.205-1.052-.091-.526-.137-.92-.137-1.183 0-.132.046-.373.137-.723l.205 1.446c.365 1.315.615 2.323.752 3.024.091.307.182.767.273 1.38.137.483.296 1.206.479 2.17l.068.395v.789l.273 1.84.479 2.302c0 .219-.023.372-.069.46l-2.05-9.993 1.025 5.785h-.068zM31.714 29.26a.71.71 0 00.068-.33l1.436-6.508c.182-.745.296-1.249.341-1.512l.342-1.512 1.025-5.062.41-1.841h.137v.263a85.26 85.26 0 00-.889 4.076c-.455 2.367-.82 4.12-1.093 5.26l-1.504 6.771-.136.395h-.137zm5.81-20.447c.09.176.181.482.273.92.09.395.205.702.341.921-.09.307-.022.548.205.723v.132c.046.087.023.153-.068.197-.046.044-.068.132-.068.263a.491.491 0 01.068.197l.547 2.498c.182 1.14.501 2.893.957 5.26l.205 1.315h-.137l-2.324-11.9a.565.565 0 01-.068-.263.565.565 0 00.068-.263zm-2.666 9.139a11.87 11.87 0 00-.137.854 5.933 5.933 0 01-.273 1.052l-.889 4.076-.956 4.405a.709.709 0 00-.069.329c.046.088.046.197 0 .329l-.136.263c-.092 0-.137-.022-.137-.066l3.144-14.464h.136l-.683 3.222zm-1.845 12.557c.227-.132 1.32-.198 3.28-.198 1.595 0 2.483.044 2.666.132a1.57 1.57 0 01-.479.066h-5.467zm-4.58 10.453c0-.526.069-.899.206-1.118.136-.35.25-.876.341-1.578a9.535 9.535 0 00.41-2.17c0 .045-.045.11-.136.198-.046-.219-.046-.35 0-.394.045-.088.182-.132.41-.132l-1.094 5.851-.136-.065v-.592zm-.204-2.564c-.092-.35-.137-.592-.137-.723 0-.307.091-.767.273-1.38l.274-.461.136-.132.137.263-.205 1.184-.068.197c.045.044.068.132.068.263s-.068.285-.205.46a1.422 1.422 0 00-.274.329zm13.942 0c0 .131.022.22.068.263a.938.938 0 01.205.592v.46l.068.855h-.068l-.137-.264-.82-4.207c-.045-.088-.068-.22-.068-.395v-.065h.068l.137.328.547 2.433zm-2.94-6.246c-.181.088-1.548.132-4.1.132-1.367 0-2.164-.022-2.392-.066v-.066h6.493zm1.71-18.21l1.025 5.522h-.137l-1.025-5.457.137-.066zm-8.407 18.67h6.63v.066h-6.63v-.066zm0 .264l6.766-.132v.197h-6.766v-.066zm8.748-8.679a313.28 313.28 0 00-.547-3.024h.069c.09.395.25 1.14.478 2.235h.137l-.205-1.117h.068l.342 1.512c-.046 0-.068.022-.068.066l-.206-.198c.046.132.069.285.069.46l-.137.066zm5.058 17.225c-.228-.394-.388-.876-.479-1.446a20.878 20.878 0 00-.136-1.315c.41 1.008.615 1.928.615 2.761zm-16.745-.92l.889-4.668h.137l-.957 4.668h-.069zm6.288-9.73l-.752.131c-.364.088-.638.132-.82.132a1.56 1.56 0 01-.478-.066 2.71 2.71 0 01-.342-.132v-.065h2.392zm-6.288-9.599l.82-4.273h.069l-.82 4.273h-.069zm9.022 8.744h-2.939v-.066h3.007l-.068.066zM38.41 14.73l.683 3.616h-.068l-.684-3.616h.069zm5.33 20.775c.046.132.251 1.03.616 2.696h-.069l-.615-2.696h.069zm-6.424-25.18c.137.482.296 1.25.479 2.301h-.069c-.136-.613-.296-1.38-.478-2.3h.068zm1.64 20.71h-1.913v-.066l1.914-.066v.132zm4.238 6.508c.228.965.387 1.6.478 1.907h-.137l-.41-1.907h.069zm-16.676-1.972l-.137.657-.136.658-.137.723h-.068l.41-2.038h.068zM38.752 13.35l.41 2.103h-.068v.066l-.41-2.17h.069zm-9.431 9.401c-.046.307-.16.877-.342 1.71h-.068l.342-1.71h.068zm3.144-8.547l.342-1.643h.068l-.342 1.643h-.068zm8.201-1.052a16.62 16.62 0 01-.273-1.314h.068l.273 1.314h-.068zM30.415 40.7c.09-.526.182-.964.273-1.315h.068l-.273 1.315h-.069zm-1.162-11.637c.09-.7.182-1.205.273-1.512l-.205 1.512h-.068zm14.078-2.366c-.09-.22-.182-.636-.273-1.25h.069l.273 1.25h-.069zm1.64 14.595c0-.395-.022-.68-.068-.855h.069l.136.855h-.136zM40.188 11.05l-.205-1.052h.068l.205 1.052h-.068zm-.752 9.532l-.205-1.117h.068l.205 1.117h-.068zm2.324 19.855c0 .395.022.68.068.855h-.137v-.855h.069zM30.415 23.803l-.274.986h-.068l.273-.986h.069zm4.237-10.98l-.137-.065-.41 2.17h.137l.41-2.104zm-1.094 6.05c-.364.306-.546.766-.546 1.38l.546-1.38zm.205-2.17c.092-.22.183-.548.274-.987h-.069c-.09.22-.182.548-.273.987h.068zm-1.23 5.654h.069l.273-1.052h-.068l-.274 1.052zm7.381 5.259h.069l-.205-.92h-.069l.205.92zM53.844.924c-.456-.131-.707-.197-.752-.197-.228-.088-.342 0-.342.263l-.137.526-.273 2.038.068 2.104c.046.482.069 1.205.069 2.17v2.169c-.046.92-.069 2.3-.069 4.142v2.235l-.068.723V31.56l.068 1.841-.068 2.696v2.695c0 .176.046.307.137.395v.131l-.069.79.205.788c0 .088.023.197.069.329.045.131.068.241.068.329 0 .394.114.657.342.789.091 0 .136.065.136.197.092.175.16.263.206.263.09.044.227.044.41 0h.273c1.094-.088 1.936-.132 2.529-.132 1.731-.087 3.03-.131 3.895-.131l3.007-.066c.502 0 1.253.044 2.256.132l2.939.131c.546 0 .956-.022 1.23-.066.045 0 .136-.066.273-.197.046-.044.069-.088.069-.131 0-.088.022-.154.068-.198.136-.131.205-.24.205-.328.09-.351.137-.636.137-.855v-.986c-.046-.044-.069-.088-.069-.132.046-.044.069-.087.069-.131v-.132c0-.131.022-.306.068-.526.045-.219.045-.394 0-.526-.046-.043-.046-.065 0-.065.045-.044.068-.088.068-.132a.798.798 0 00-.205-.131 2.477 2.477 0 01-.137-.329c0-.088-.022-.197-.068-.329 0-.131.023-.219.069-.263l.068-.263c0-.087-.023-.197-.069-.328-.045-.176-.045-.307 0-.395-.273 0-.455-.022-.546-.066h-.479l-1.298.066-1.23-.066c.136.132.319.198.546.198.228 0 .41.021.547.065h-1.504c-.045 0-.113-.044-.205-.131l-.273-.132a.626.626 0 00-.273-.065h-2.666c-.09.087-.16.131-.205.131-1.64.088-2.87.132-3.69.132h-.205c.364-.132.911-.198 1.64-.198.729 0 1.276-.043 1.64-.131h-.273c-1.185 0-2.073.022-2.666.066-.182 0-.319-.022-.41-.066-.045-.088-.068-.22-.068-.395l.068-1.117c.046-.57.069-1.403.069-2.498l-.205-1.644c0-.307.023-.526.068-.658l.068-.723c.046-.57.069-1.424.069-2.564-.046-1.227-.069-3.09-.069-5.588v-6.77c.046-1.096.069-2.74.069-4.931V7.564c.045-.701.068-1.731.068-3.09l-.068-.986v-.657c0-.395-.046-.987-.137-1.775 0-.088-.046-.176-.137-.263a.866.866 0 00-.341-.198l-.274-.263c-.227-.219-.41-.219-.547 0a.655.655 0 01-.341.263.467.467 0 01-.41-.065c-.274-.22-.684-.285-1.23-.198-.183.176-.297.263-.342.263h-.205c-.32 0-.638.066-.957.198l-.273.131zm1.503 5.128c0-.307.023-.526.069-.657h.068l.068 1.183v3.419c-.045 1.315-.068 3.287-.068 5.917-.091 2.279-.137 3.988-.137 5.128l.069 3.878c0 1.228-.023 2.148-.069 2.762v8.021c0 .175-.023.284-.068.328-.046.044-.137.066-.274.066-.227 0-.341-.11-.341-.329 0-1.358-.069-2.389-.205-3.09a1.648 1.648 0 01-.069-.526 2.73 2.73 0 00.069-.526h.136v1.381c.092 0 .137.022.137.066.091-.176.137-.307.137-.395v-2.104c.045-.745.068-1.84.068-3.287l-.068-4.207.068-6.246c.046-1.052.069-2.673.069-4.865l.068-5.194v-1.71l.068-.46h.137v1.447h.068zm2.392-1.118c.091.965.137 1.666.137 2.104 0 2.236-.023 3.901-.068 4.997l-.069 5.85v5.984c0 3.681-.023 6.464-.068 8.349 0 1.227.068 2.126.205 2.695l.137-8.743a17.16 17.16 0 000-2.17v-1.578c-.046-.526-.069-1.358-.069-2.498 0-1.096.023-1.907.069-2.433h.068v14.727c.091-2.016.137-3.484.137-4.405h.136v8.284l-.136.066-.069-.33a.708.708 0 00-.068-.328v.658h-.137l-.136-.33h-.069l-.205.33-.068-.395v-6.903l.068-4.733c0-1.009-.023-1.776-.068-2.302l-.069-2.235c0-.964.046-2.366.137-4.207l.069-5.26c0-2.279.022-3.988.068-5.128v-.066h.068zm-2.255 31.163c-.046-.132-.069-.35-.069-.657v-1.381c0-2.367.023-4.142.069-5.325l.068-1.381c.046-.263.069-.701.069-1.315 0-.701-.046-1.71-.137-3.024l.068-3.945v-1.775l.137-.263v5.72h.068l.205-8.415h.069v2.038l-.069 5.588c0 .92.046 2.301.137 4.142.091.964.137 1.71.137 2.235l-.069 2.235c0 .395.046 1.074.137 2.038l-.068.592V35.9c0 .044-.069.131-.205.263-.137-.132-.205-.22-.205-.263-.046-.351-.069-.877-.069-1.578l.069-4.8-.069-.92h-.136v7.495h-.137zm1.093-8.415a.707.707 0 01-.068-.329c-.091-2.542-.137-4.427-.137-5.654l.069-4.536.068-5.063c.046-1.27.068-3.155.068-5.653l.069-.263.068.328v2.104l.068 2.433-.205 9.861c0 .833.023 1.447.069 1.841l.068 1.972c0 1.184-.023 2.06-.068 2.63v.329h-.069zm1.914-24.523c.091 2.104.137 3.638.137 4.602 0 1.36-.046 3.397-.137 6.115-.091 3.506-.137 6.158-.137 7.955l.069 4.536c0 .175-.023.307-.069.394v-1.249a15.185 15.185 0 01-.068-1.643l-.068-.526v-1.315c0-.307-.023-.68-.069-1.118 0-.482.023-1.008.069-1.578 0-1.315.045-3.33.136-6.048l.069-2.038V6.644l-.069-3.419v-.394h.137v.328zm-5.057 4.076c.045.702.068 1.776.068 3.222l-.068 5.654c-.092 2.542-.137 4.448-.137 5.72 0 1.008.045 2.52.137 4.536h-.137v-.329c-.091-2.893-.137-5.062-.137-6.509 0-1.358.046-3.396.137-6.114l.068-3.024.069-3.156zm4.852 2.236l-.068 6.114-.069 1.38h-.068V4.671l.137.526.068 4.274zm3.759 27.218c1.458 0 3.69.043 6.698.131l.205-.066c.136 0 .227-.022.273-.065l.068.328c-.82 0-2.005-.044-3.554-.131l-3.622-.066c-.683 0-1.663.044-2.939.132l-.136-.066v-.066l.205-.066 2.802-.065zm-5.604-.46l-.069-.33.069-3.155v-3.682l.068-.526h.068v7.627l-.136.065zm9.09 2.498c-1.55.087-3.737.175-6.562.263l-.136-.066v-.066l.273-.066 2.666-.197 1.435-.066c.5 0 1.162.044 1.982.132l.341.066zm-3.623 1.315c.957-.044 2.392-.022 4.306.065 1.002.088 1.731.132 2.187.132v.066l-6.493-.198v-.066zm-2.939-.198c1.914-.087 3.35-.131 4.306-.131 1.14 0 1.982.044 2.529.131h-1.025c-.365-.044-.82-.044-1.367 0-.73 0-1.253.022-1.572.066l-1.64.066c-.274.044-.684.066-1.23.066v-.198zm.069-2.432a5.36 5.36 0 01.957-.066c-.092-.088-.16-.131-.206-.131 2.005.087 3.532.131 4.58.131l-5.195.197-.136-.131zm4.237 3.616c-1.914.087-3.372.131-4.374.131v-.131l4.374-.132v.132zm-6.082-8.35v3.353-3.353zm-3.896-24.85c0 .394-.023.876-.069 1.446-.045.525-.09.92-.136 1.183V7.038h.136l.069.79zm8.338 32.213c-.365.176-.934.264-1.709.264-.455 0-.774-.044-.957-.132l2.666-.132zm4.51-3.747c-.136.132-.341.197-.615.197-.319 0-.615-.065-.888-.197h1.504zM53.98 32.613v2.235h-.068v-2.236h.068zm14.968 7.626c.364 0 .637.022.82.066v.131c-.183-.044-.479-.066-.889-.066 0-.087.023-.131.069-.131zm-5.536-4.01c.41 0 .706.021.888.065v.132l-.888-.132v-.066zm.205.854h.888-.888zm-8.68-.855c.137-.043.205 0 .205.132a.439.439 0 00.205.197.787.787 0 01-.342-.066c-.09-.044-.113-.131-.068-.263zm.41-27.217h.069V6.775h-.069v2.236zm.684 24.39h.068v-5.785h-.068v5.785zm22.899 7.692c.09 0 .227.044.41.132l1.503.789c.273.087.478.131.615.131.638.176 1.094.263 1.367.263a2.02 2.02 0 001.025 0l1.367-.131c1.185-.088 2.073-.175 2.665-.263 1.003-.132 1.823-.417 2.46-.855 1.277-.789 2.256-2.016 2.94-3.681a14.39 14.39 0 00.615-2.499c.41-1.797.615-3.309.615-4.536v-5.062c.045-1.622.068-4.076.068-7.364 0-.92.046-2.3.137-4.141.091-1.797.045-3.332-.137-4.602-.09-.57-.319-1.469-.683-2.696-.228-.964-.57-1.731-1.025-2.301-1.14-1.578-2.46-2.586-3.964-3.024l-.342-.197c.091-.044.228-.022.41.065 2.324.745 3.964 2.345 4.92 4.8.229.657.48 1.643.752 2.958.228.745.342 1.71.342 2.893l-.068 1.71c-.091 2.278-.137 4.01-.137 5.193 0 2.41.023 4.23.069 5.457v1.38a.437.437 0 00.136-.329l.069-2.498-.069-4.668c0-.131-.022-.284-.068-.46 0-.219.023-.46.068-.723 0-.35.023-.701.069-1.052.045-.394.068-.745.068-1.052.046-.745.068-1.84.068-3.287a49.42 49.42 0 00-.273-2.695l-.683-2.499c-.046-.613-.32-1.27-.82-1.972-.547-.877-1.049-1.534-1.504-1.972-.775-.745-1.709-1.293-2.802-1.644-.866-.263-1.914-.438-3.144-.526-.73-.088-1.276-.131-1.64-.131-.228 0-.57.043-1.025.131a8.105 8.105 0 01-.752.132 6.575 6.575 0 00-1.094.263 19.4 19.4 0 00-1.093.328 6.033 6.033 0 00-1.435.526c-1.185.57-2.165 1.71-2.94 3.419-.273.701-.546 1.71-.82 3.024 0 .088-.022.285-.068.592-.045.263-.16.504-.342.723-.045.044-.068.132-.068.263a.566.566 0 01.069.263c0 .131-.023.22-.069.263-.228.263-.341.701-.341 1.315v.329l.068 1.249c.045.57.068 1.446.068 2.63v13.608l.069 1.907c0 .877.045 2.148.136 3.813 0 .833.182 1.666.547 2.498.501.965 1.025 1.71 1.572 2.236.455.438.774.788.957 1.052.136.219.387.46.751.723l.957.46a6.18 6.18 0 002.802 1.117c.912.088 1.595.132 2.05.132.547 0 .957-.022 1.23-.066l2.324-.328c.912-.176 1.55-.351 1.914-.526 1.048-.351 1.982-1.074 2.802-2.17.82-1.227 1.322-2.191 1.504-2.893l.341-1.512c.046-.307.137-.876.274-1.71.137-.876.205-1.665.205-2.366.046-.613.068-1.534.068-2.761v-2.696c-.045-.043-.068-.131-.068-.263h-.068l-.069.132v2.564c0 3.068-.228 5.5-.683 7.297-.365 1.578-.843 2.762-1.435 3.55-.046.088-.228.33-.547.724a4.036 4.036 0 01-.957.986c-.319.263-.66.46-1.025.592l-.137.065a5.365 5.365 0 00-.615.263c-.273.132-.524.22-.752.263a18.705 18.705 0 01-5.194.592c-1.412-.044-2.87-.526-4.374-1.446l-.205-.132.069-.066zm-.206-13.543a2.088 2.088 0 01-.136-.657c-.046-.044-.069-.11-.069-.197.046-.088.046-.154 0-.198v.592h-.068l.068-1.315v-2.17l-.068-1.38.068-4.405-.068-2.63c0-.394.046-.942.137-1.643l.068-.263h.137v.394c-.091 1.403-.137 2.455-.137 3.156V27.55c.091 1.578.137 2.74.137 3.485h-.069c-.045-.176-.068-.46-.068-.855v-2.235c0-.176.023-.307.069-.395zm.479 7.43c0-.088-.023-.198-.069-.33 0-.13.023-.284.069-.46 0-.263.068-.526.205-.789l.068 1.25c.091.131.137.306.137.525.046.22.091.395.137.526l.615.79.547.525c.683.482 1.138.767 1.366.855.365.175.843.263 1.435.263.456 0 .798-.022 1.026-.066l2.938-.46c.41-.132.775-.416 1.094-.855.547-.789.843-1.578.888-2.366.046-.395.114-.855.206-1.381.09-.57.159-1.227.205-1.972.045-.658.045-1.228 0-1.71v-2.629c0-.176.022-.307.068-.395l.068.197V31.1c0 .482-.09 1.25-.273 2.301 0 .307-.046.724-.137 1.25-.091.525-.182.898-.273 1.117a4.042 4.042 0 00-.137.592 1.453 1.453 0 01-.273.657c-.183.307-.479.548-.889.723a13.001 13.001 0 01-4.442.79c-.957 0-1.686-.176-2.187-.526l-.342-.33-.888-.788c-.501-.35-.82-.79-.957-1.315l-.273-.395a.595.595 0 01-.342-.394v-.394h.068l.273.788.069-.197zm8.816-26.89c.41.833.66 1.819.752 2.959v3.024c.046-.044.068-.11.068-.197.046-.483.069-1.162.069-2.038 0-.92-.069-1.6-.205-2.039a23.275 23.275 0 00-.82-2.827c0-.087-.069-.153-.206-.197a1.08 1.08 0 00-.41-.263 2.225 2.225 0 01-.341-.263l.068-.065c.683.306 1.116.7 1.299 1.183l.615 1.118.205.986c.136.789.205 1.6.205 2.432l-.069 1.973a40.38 40.38 0 00-.068 2.17c.046.613.068 1.139.068 1.577v.131c0 .088.069.088.205 0v4.471a.709.709 0 01-.068-.329h-.068l-.069 1.25c-.09 1.84-.136 3.243-.136 4.207v2.498c.045.439.045.965 0 1.578 0 .35-.046.833-.137 1.447l-.205 1.512c-.046.526-.273 1.14-.683 1.84-.41.57-1.003.899-1.777.987l-2.187.197-.274.066v.065l1.572-.066a9.07 9.07 0 01-2.255.264c-.365 0-.684-.066-.957-.198a9.518 9.518 0 01-.957-.723 2.711 2.711 0 01-.615-.657c-.273-.22-.501-.658-.683-1.315-.137-.658-.205-1.644-.205-2.959v-1.446c-.046-.877-.069-2.213-.069-4.01a.71.71 0 01.069-.33h.068l.205 1.053.41.066v3.55h.068v-1.644c0-.745.023-1.293.069-1.643a5.12 5.12 0 000-1.184v-.855c-.046-.394-.069-.964-.069-1.709l.137-3.944v-5.654c0-.526.091-.92.273-1.184l.069.526c-.046 1.14-.069 2.805-.069 4.997-.045.788-.068 1.972-.068 3.55l-.068 3.024c0 .92.045 1.6.136 2.038v6.64c0 .044.069.526.206 1.447v.131c-.137.22-.114.416.068.592.045.087.16.219.342.394.182.175.387.285.615.329.638.088 1.093.131 1.367.131.41 0 .706-.022.888-.065l1.777-.132c.638-.044 1.116-.416 1.435-1.117.273-.526.501-1.403.684-2.63.136-.702.205-1.753.205-3.156v-1.578l.068-.789-.068-.526.068-3.155V16.9c0-.088-.023-.132-.068-.132l-.069.92v6.444l-.205 6.705c0 1.096-.205 2.477-.615 4.142l-.136.132.41-1.841c.09-.658.182-1.731.273-3.222l.137-5.325v-6.377c-.092.877-.137 1.556-.137 2.038v.855c.045.307.045.68 0 1.117 0 .965-.046 2.411-.137 4.34v2.695c0 1.666-.296 3.506-.888 5.523-.183.7-.684 1.095-1.504 1.183a28.16 28.16 0 01-1.777.066 12.41 12.41 0 00-1.162-.066c-.364 0-.683-.22-.956-.657-.183-.526-.274-.943-.274-1.25l-.136-6.508c0-1.447-.023-2.542-.069-3.287l.069-1.381.068-3.945-.069-2.892c.092-1.49.137-2.586.137-3.288.046-.35.046-.679 0-.986 0-.35.023-.701.069-1.052l.205-2.038c.045-.35.227-.745.546-1.183.046-.044.205-.263.479-.658.09-.087.16-.131.205-.131.911-.175 1.594-.263 2.05-.263.41 0 .82.066 1.23.197h.069c.546.044.934.197 1.161.46.228.263.388.68.479 1.25.045.306.16.767.342 1.38l.136.132-.41-1.907zm5.331 20.644c0 1.14-.023 1.994-.068 2.564 0 1.095-.228 2.695-.684 4.799-.273 1.096-.865 2.17-1.777 3.221-.638.79-1.526 1.293-2.665 1.513-2.005.35-3.554.525-4.648.525a7.03 7.03 0 01-2.87-.854c-.273-.176-.478-.285-.615-.329-.41-.22-.934-.68-1.572-1.38a14.396 14.396 0 01-1.435-1.841 3.656 3.656 0 01-.41-1.052c-.274-.833-.41-2.126-.41-3.88 0-.788-.023-1.38-.069-1.774a7.22 7.22 0 01-.068-1.052c.046-.395.068-.68.068-.855l-.068-1.84c0-3.375.023-5.918.068-7.627l-.068-2.564c.091-1.402.137-2.476.137-3.221l.136-.132v.132c0 1.884-.022 3.309-.068 4.273l-.068 7.758c0 .57.045 1.512.136 2.827v4.339l.137 2.498c.137 1.359.638 2.455 1.504 3.287l1.298 1.38c.365.264.638.44.82.527.228.131.547.307.957.526.41.219.752.372 1.025.46a5.15 5.15 0 001.436.197h.956a22.429 22.429 0 004.238-.657c.729-.176 1.39-.614 1.982-1.315 1.047-1.183 1.663-2.498 1.845-3.945.273-1.402.456-2.454.547-3.155.045-.833.068-2.104.068-3.814 0-1.227.023-2.147.068-2.76v-.33h.137v3.551zm-8.133 9.927c-.547.263-.934.394-1.162.394-.774-.131-1.207-.197-1.298-.197-.274-.087-.684-.263-1.23-.526h.068v-.066a.54.54 0 01.205.066c.137 0 .273.044.41.132.228.131.501.197.82.197h.615c.593.044 1.253.022 1.982-.066a43.2 43.2 0 011.572-.263 2.5 2.5 0 00.683-.197 3.84 3.84 0 01.479-.197c.364-.132.66-.417.888-.855.365-.701.616-1.227.752-1.578l.205-.986.41-2.17a.587.587 0 000-.394c0-.131.023-.285.069-.46 0-.088.022-.154.068-.197.046-.044.068-.11.068-.198.046-.043.069-.11.069-.197V18.346l.136-3.287.205-2.827-.068-1.38h.068c.046.043.069.13.069.262.045 1.403 0 2.98-.137 4.734a9.323 9.323 0 00-.137 1.71c.046.613.069 1.051.069 1.314v7.429c0 .175-.046.395-.137.658 0 .087.023.175.068.262.046.044.069.11.069.198l-.069 1.249c.137 1.753 0 3.835-.41 6.245 0-.482-.022-.832-.068-1.051h-.068c-.092.263-.114.46-.069.591.091.176.137.285.137.329l-.137.526c-.045.307-.182.68-.41 1.118-.182.394-.319.723-.41.986-.273.438-.706.701-1.298.789l-.684.131c-.683.307-1.503.504-2.46.592l.068-.263zM75.034 13.087c-.046.657-.068 1.687-.068 3.09-.046 1.709-.069 4.295-.069 7.757 0 3.726.023 6.53.069 8.415 0 1.272.09 2.433.273 3.485.273 1.227.843 2.257 1.709 3.09a.82.82 0 01.205.329c.09.131.205.263.341.394l-.136.132-.069-.263a79.873 79.873 0 00-1.162-1.315c-.455-.658-.797-1.512-1.025-2.564a9.943 9.943 0 01-.273-1.841v-1.644c-.091-3.155-.137-5.522-.137-7.1l.069-6.903c0-.789-.023-1.38-.069-1.775l-.068-1.71c0-.087.068-.723.205-1.906h.137l.068.329zm2.665-.066c.046.044.069.745.069 2.104 0 2.147-.046 4.492-.137 7.034-.091 2.542-.16 3.901-.205 4.076l-.068-.723.068-5.26v-5.719l.205-1.512h.068zm3.76 26.166a2.336 2.336 0 01-1.094-.395 23.918 23.918 0 01-.957-.986c-.501-.482-.843-.876-1.025-1.183-.091-.088-.228-.373-.41-.855-.183-.526-.274-1.315-.274-2.367l-.205-3.418v-1.71l-.068-1.512.068-.394h.137l.137 1.249c0 .22-.023.482-.069.789 0 .263.023.57.069.92l.068 3.222.137 1.972c0 1.183.455 2.17 1.367 2.959.182.131.319.284.41.46.136.131.273.24.41.328.136.132.296.263.478.395.182.088.342.175.478.263l.342.263zm-2.461-17.488c0 3.506.068 7.035.205 10.585h-.137l-.068-1.841c0-1.183-.023-2.06-.069-2.63-.045-.789-.068-1.95-.068-3.484 0-2.148.023-3.748.069-4.8l-.069-2.695.137-3.55.068-.197-.068 8.612zm12.028 14.595a4.426 4.426 0 00-.136.526.823.823 0 01-.205.395c-.638.876-1.003 1.358-1.094 1.446-.228.263-.478.46-.752.592a9.23 9.23 0 01-1.162.263c-.82.131-1.549.219-2.187.263a44.8 44.8 0 00-1.503.131c-.228.088-.342.044-.342-.131l.069-.066a.627.627 0 01.273-.066l.41.066c.228 0 .478-.022.752-.066.319-.088.57-.153.752-.197.319-.044.66-.088 1.025-.132a9.556 9.556 0 011.093-.197c1.048-.219 1.8-.767 2.255-1.644.092-.262.32-.657.684-1.183h.068zM79.818 20.581c0-1.621.046-4.01.137-7.166h.136c.046.351.046.811 0 1.381a15.94 15.94 0 00-.068 1.315v2.695c-.046.614-.068 1.534-.068 2.762l-.205 2.564.068-3.55zm10.047-9.138c-.046.307-.069.789-.069 1.446-.091 1.534-.228 2.674-.41 3.42 0-.22.023-.395.068-.527 0-.394.046-.986.137-1.775l.069-2.038c0-.833-.069-1.665-.206-2.498a4.715 4.715 0 00-.341-1.184 35.53 35.53 0 00-.342-1.052l-.068-.197.068-.066.273.526c.183.395.297.767.342 1.118l.342 1.907c0 .087.023.175.068.263a.491.491 0 01.069.197c.045.131.068.35.068.657h-.069v-.197zm3.348 6.969l.205-4.47v-.132.92c.046.307.046.68 0 1.118-.09.701-.136 1.753-.136 3.156.045 1.227.068 3.046.068 5.456.046.044.046.11 0 .197v.066h-.068v-.526l-.069-5.785zm-2.802 1.38c-.045-.394-.068-1.008-.068-1.84 0-.965.023-1.82.068-2.564.046-.745.091-1.381.137-1.907l.137-1.578-.274 7.89zm-14.489 4.865l.069 7.232h-.069l-.205-7.232h.205zm5.263 9.665c-.091-1.008-.137-2.52-.137-4.537v-3.024h.137v7.56zm5.262-30.44c1.048 0 1.868.264 2.46.79.547.438.866.7.958.788.09.044.182.241.273.592a5.861 5.861 0 00-2.187-1.71c-.273-.13-.615-.218-1.025-.262a9.68 9.68 0 00-.82-.066 2.161 2.161 0 00-.752 0h-.547l.068-.131h1.572zm-10.456 10.52v2.563c0 1.14-.023 1.995-.069 2.564h-.068v-5.127h.137zM90.343 26.63l-.069-.592.069-3.287.137-2.104h.068l-.068 5.983h-.137zm-3.554 9.467c-.091.088-.16.131-.205.131-1.321.263-2.574.373-3.759.33-.319-.045-.57-.132-.752-.264-.182-.131-.387-.372-.615-.723l.684.592c.273.175.729.263 1.367.263 1.23 0 2.232-.11 3.007-.33l.273-.065v.066zm3.486-3.419c0-.613.022-1.074.068-1.38l.068-1.512-.068-1.447.068-1.446c.046.087.069.526.069 1.315 0 .876-.023 1.73-.069 2.564a41.991 41.991 0 01-.136 1.906zm-14.49-8.612a22.42 22.42 0 01-.068-1.644c.046-.482.069-.876.069-1.183v-1.38h.136v4.207h-.136zm13.67-1.512c0 1.446-.046 3.572-.137 6.377.045 0 .068.022.068.066v-6.443h.068zm-10.936 8.152c.228.526.342 1.03.342 1.512 0 .263-.023.46-.068.592h-.137c0-.439-.046-1.14-.137-2.104zm5.536-24.522c.091-.088.41-.132.957-.132.775 0 1.344.066 1.709.197l-2.666-.065zM81.868 39.45h.137c.046-.044.114-.044.205 0l.82.263h.137l.205.066c-.046 0-.091.021-.137.065v.066l-.683-.131-.752-.198.068-.131zm-1.777-2.498a.853.853 0 01-.683-.33 8.172 8.172 0 01-.273-.46.492.492 0 01-.069-.197.492.492 0 00.069-.197l.956 1.184zm-.888-17.948V15.65h.068v3.353h-.068zm9.705 15.975l.41-3.616h.068l-.41 3.616h-.068zm-7.791-15.515v2.958-2.958zm12.916 4.8v3.089h-.068v-3.09h.068zm-1.161 11.504c0 .614-.205 1.271-.615 1.972l.615-1.972zm.615-22.353v-3.024 3.024zM79.203 25.841c0 .57.045 1.468.137 2.695h-.069l-.136-2.695h.068zm-2.392-5.457v1.512-1.512zm13.737-13.28c.182.614.342 1.074.478 1.38h-.205a5.581 5.581 0 00-.341-1.314v-.066h.068zm.683 27.284a.403.403 0 01.274-.263.875.875 0 00-.274.657v.395c0 .131-.045.284-.136.46a1.734 1.734 0 00-.069.394l.205-1.643zm-10.935 3.09h.069v-.066l.547.263a.8.8 0 00.204.131c.092.044.114.154.069.329l-.889-.657zm-3.417-7.1l-.136-1.842h.136v1.841zm-.068-5.786v1.249h-.069v-1.25h.069zm17.36-9.664h-.07l.07-1.973v1.973zM78.177 37.346c-.182-.088-.365-.263-.547-.526a2.857 2.857 0 01-.273-.723l.82 1.249zm.341 3.419c0 .044-.022.066-.068.066l-.82-.79.068-.065.82.789zM91.231 4.21c0-.044.023-.066.069-.066.547.658.843 1.009.888 1.052l-.136.066-.82-1.052zm-13.668 6.84c-.091.7-.137 1.205-.137 1.512h-.068l.136-1.512h.069zm11.823 18.408v1.38-1.38zm-1.367 7.429c0-.044-.045-.066-.137-.066l.479-.723.137.066-.479.723zM85.97 5.395c.228.043.547.065.957.065v.132l-.957-.132v-.065zm-9.021 28.204c.09.613.136 1.052.136 1.315h-.068l-.069-1.315zm8.61-28.073c-.181-.044-.478-.066-.888-.066v-.13c.228.044.524.066.889.066v.131zM79.546 7.17l-.205 1.249h-.069l.205-1.25h.069zm3.417-1.644c.182 0 .341-.022.478-.066v.132l-.478.131v-.197zm-2.734 6.772c0-.22.046-.504.137-.855h.068l-.137.855h-.068zm10.115 27.81l.615-.527h.068l-.615.592-.068-.066zm-1.367-20.776v1.512a16.98 16.98 0 010 2.17c-.091 3.156-.137 5.544-.137 7.166 0 1.71-.205 3.397-.615 5.062v.066c.046 0 .069.022.069.066l.341-.986c.046-.088.046-.198 0-.33v-.328a16.01 16.01 0 00.41-3.616l.069-5.522v-6.18h-.137v.92zM82.415 37.15c.319.044.797.066 1.435.066.775 0 1.344-.044 1.709-.132.729-.088 1.23-.175 1.503-.263.32-.088.57-.307.752-.657a16.38 16.38 0 00-.752.394 2.789 2.789 0 01-.888.329c-.547.087-1.458.175-2.734.263-.957.044-1.777-.35-2.46-1.184a3.273 3.273 0 01-.41-.789c-.046-.306-.091-.504-.137-.591a36.575 36.575 0 00-.137-.855l-.136-.92c0-.22-.069-.285-.205-.198 0 .088.022.154.068.198.046.044.068.11.068.197.046.22.069.504.069.855 0 .306.023.57.068.789.091.613.25 1.051.478 1.314.183.132.32.285.41.46.137.132.297.264.479.395l.888.526c.046 0 .069-.022.069-.066l-.137-.131zm6.356-22.024c0-.044-.023-.066-.068-.066 0 .263-.046.701-.137 1.315h.068l.137-1.25zm26.651-13.084h-.069v-.066c-.091.263-.136.46-.136.592v3.879l.136 4.207v7.757l.069 4.866-.069.789h-.068a.689.689 0 00-.137-.263.763.763 0 00-.136-.197 27.662 27.662 0 00-.957-2.696l-.82-2.17c-.137-.35-.57-1.511-1.299-3.484l-1.503-3.681-2.256-5.654c-.273-.833-.683-1.797-1.23-2.893l-.547-1.315c-.136.088-.227.088-.273 0a.69.69 0 00-.137-.263l-.341-.46-.137.394c-.182-.175-.296-.307-.342-.394-.136-.132-.25-.197-.341-.197-.092 0-.183.087-.274.263V.858L103.53.595l-.41-.131c-.182 0-.342.11-.478.329-.092 0-.228-.022-.411-.066-.136-.088-.25-.11-.341-.066h-.205a.659.659 0 01-.547-.263l-.068.592c0 .263-.091.307-.274.131a.715.715 0 01-.068.329l-.273-.197c.136.175.205.438.205.789 0 .087.045.219.136.394l.069.395-.069 1.512h.069l.068-.263.273 1.446h-.068c0-.088-.023-.131-.068-.131h-.069c.091 1.665.114 2.958.069 3.879l-.069 3.944c.046.877.069 2.17.069 3.879v3.945l-.069 3.944v3.88h-.068a2.986 2.986 0 01-.068-.724v2.564c0 .92-.023 1.622-.069 2.104a30.042 30.042 0 00-.068 1.906c.045.526.068.986.068 1.38 0 2.368.046 4.143.137 5.326.091.438.137.811.137 1.118.091-.132.182-.197.273-.197a.466.466 0 01.41.065.602.602 0 00.547 0c.182-.087.319-.065.41.066h1.093c.046 0 .16.044.342.132.046 0 .068.021.068.065.046.044.092.066.137.066l.205-.263v-.526c.046.044.046.11 0 .197 0 .044.023.088.069.132.091.263.182.394.273.394.091.088.182.11.273.066h.274l-.069-.066.342-.263c.319.176.547.263.683.263.137 0 .274-.087.411-.263l.41.132c-.046-.175-.046-.263 0-.263.045-.044.136-.066.273-.066l.068-.855c-.091-1.227-.136-2.147-.136-2.76a1.393 1.393 0 01-.069-.461c.046-.22.069-.373.069-.46l-.069-3.156c0-.394.023-.789.069-1.183.045-.395.068-.79.068-1.184l-.068-5.982v-.987a7.75 7.75 0 000-1.446c0-.57-.046-1.512-.137-2.827v-1.972l.205.263.888 2.17 2.871 6.968c.41 1.052 1.071 2.63 1.982 4.734.045.175.114.372.205.591.137.22.228.395.273.526 0 .307.069.636.205.986l.205.46c.319.79.501 1.294.547 1.513l.82 1.972c.365.964.615 1.688.752 2.17.046.131.228.635.547 1.512.091-.22.205-.285.341-.197.183.043.297.043.342 0v-.33l.205.132c.182-.087.319-.087.41 0 .137.088.228.154.274.197l.205-.328c.136.131.227.197.273.197a1.47 1.47 0 00.342-.263c.364.438.752.526 1.162.263 0-.044.022-.066.068-.066.045 0 .068.022.068.066.274.088.479.11.615.066l.615-.132c.319 0 .479-.044.479-.131.137-.35.137-.592 0-.723-.046-.044-.068-.11-.068-.198 0-.087-.023-.153-.069-.197h.069l.136.197v-.065h.069v-.263c0-.176-.046-.395-.137-.658-.046-.307-.046-.548 0-.723v-.263c-.046-.088-.068-.219-.068-.394v-.198c.045-.131.068-.35.068-.657V33.27c0-.438-.046-1.052-.137-1.84v-.79c.046-.35.046-.745 0-1.183l-.068-4.142a35.723 35.723 0 01-.069-2.038c.046-.614.069-1.118.069-1.512v-11.44l.068-4.667V4.474v.197c0 .088-.068.11-.205.066.046.176.068.46.068.855 0 .438-.091 1.14-.273 2.104l-.137-.263c-.091-.79-.136-1.359-.136-1.71l.068-1.249c0-.087.023-.153.068-.197a.79.79 0 01.137-.197l-.068-.592.136-.263.137-.394a.703.703 0 01.068.328c0 .044-.022.154-.068.33 0 .13.046.24.137.328.091-.176.137-.526.137-1.052 0-.307-.023-.504-.069-.592-.091-.219-.091-.416 0-.592.091-.219.114-.416.069-.591 0-.088-.023-.154-.069-.197-.045-.088-.091-.132-.137-.132-.592-.088-1.025-.11-1.298-.066-.638.088-1.116.132-1.435.132l-.274-.066c-.091 0-.227-.022-.41-.066-.136-.087-.25-.11-.341-.065h-.342c-.456 0-.797.043-1.025.131l-.342-.131c0 .087-.091.153-.273.197-.183 0-.297.066-.342.197 0 .22-.091.46-.273.723v.066h.068l.273-.526h.137c-.046.044-.068.11-.068.197.045.088.045.154 0 .198-.274.482-.41 1.14-.41 1.972 0 .219-.046.548-.137.986.045-.35.068-.877.068-1.578V2.7c-.182 0-.25-.044-.205-.131a.482.482 0 00.068-.198c0-.131.023-.24.069-.328zm-3.076 25.245c0 .044-.022.11-.068.198 0 .043.023.11.068.197.183.526.297.92.342 1.183-.137-.35-.296-.723-.478-1.117a24.445 24.445 0 00-.479-1.381c.091 0 .16.044.205.131.091.044.16.132.205.263l.205.526c.183.439.342.767.479.986l-.137.066-.342-1.052zm-7.996-15.91c.091.35.274.833.547 1.447.228.526.319.964.273 1.315 0 .306.023.526.069.657v-.657l.136-.066c.091.35.137.591.137.723.046.438.046.833 0 1.183v.92l-.068.066c-.046 0-.069.022-.069.066 0 .044-.022.11-.068.198 0 .043.023.11.068.197.091.131.137.35.137.657 0 .307-.023.548-.068.723l-.069.263.205 2.564v1.775c.091.176.137.439.137.79l-.068 1.314.068 3.55-.068 4.076v3.748l-.137 1.052c-.091-.57-.137-1.469-.137-2.696-.045-.307-.068-.745-.068-1.315 0 .745-.023 1.293-.068 1.644 0 1.49-.046 2.608-.137 3.353h-.068v-.592l-.205-.657v-.132l.068-1.446v-.592h-.137l-.068 3.222h-.068c-.046-.044-.069-.132-.069-.263 0-.965.023-1.688.069-2.17l.068-5.457c0-.876-.046-2.191-.137-3.944 0-.175-.023-.307-.068-.395h-.069v.592c0 2.454.023 4.295.069 5.522 0 .132-.023.33-.069.592 0 .263.023.482.069.658.045.044.023.11-.069.197-.045.044-.068.088-.068.131v.592l-.068 2.498-.137.263-.068-2.103v-2.828l.068-2.498-.068-3.944c0-1.885-.023-3.288-.069-4.208l-.205-6.18c0-2.191.023-3.835.069-4.93v-.395h.068l.41.92zm15.309 24.063c-.228-.395-.342-.877-.342-1.447l.069-1.315c-.046-.657-.069-1.665-.069-3.024 0-.22.046-.504.137-.855v-.197c-.091-.438-.137-.745-.137-.92v-2.038l.069-3.024-.069-1.71-.068-5.457.068-5.85.137-4.274c0-.088.023-.132.068-.132v3.156l.137-1.446h.068c.046.044.069.131.069.263 0 3.462-.023 6.048-.069 7.758l-.068 5.456.068 5.457c.046 1.27.069 3.156.069 5.654l.068 4.01v.197c-.045 0-.068.022-.068.066l-.137-.328zm-.615-1.315a4.628 4.628 0 00-.205-.592 3.928 3.928 0 01-.068-.657c-.091-5.435-.137-9.49-.137-12.163 0-1.447.046-3.572.137-6.377l.068-3.024V6.644l.068-2.893.137-1.84.068-.198h.069l.068.329c-.091 1.402-.182 3.418-.273 6.048l.068 5.983-.068 4.996c0 1.578.045 3.945.136 7.1.046.702.046 1.316 0 1.841v3.025l.137 2.76v.33h-.205zm-1.162-23.274c-.091 4.734-.136 8.306-.136 10.717 0 1.928.045 4.865.136 8.81-.319-.264-.478-.636-.478-1.118v-5.983c0-.92-.046-1.775-.137-2.564-.091-.57-.137-1.425-.137-2.564l.069-2.433c.045-1.227.068-3.068.068-5.522v-.592h.068l-.068 5.588h.068l.205-6.771h.069c.091.701.137 1.205.137 1.512l-.069 2.038h.137v-1.118h.068zm-.957-5.193c0 3.681-.022 6.464-.068 8.349l.068-.131v3.813h-.068v-1.973h-.068v11.9h-.137l-.068-.46c-.046-.438-.069-1.118-.069-2.038l-.068-4.537c0-2.585.023-4.536.068-5.85 0-1.36.046-3.354.137-5.983V6.38l.068-.723h.205zm1.299 7.757c0 1.184-.023 2.06-.068 2.63v.592c.045.175.068.416.068.723l-.068 1.38c0 .439.022.965.068 1.578.045.614.045 1.14 0 1.578 0 .307.023.68.068 1.118a4.01 4.01 0 010 1.052v.329c.046.087.046.197 0 .328 0 .088.023.198.069.329.045.131-.023.241-.205.329-.046.043-.069.131-.069.263a.488.488 0 01.069.197c.045.964.068 2.432.068 4.405 0 .175.023.285.068.328v-2.366h.069v3.813a3.511 3.511 0 01-.41-1.644l-.069-4.93c0-1.315.023-2.302.069-2.959l-.069-2.038c0-1.359.023-2.367.069-3.024 0-1.008.045-2.52.136-4.537v-.197h.069l.068.723zm-12.165 2.564c.091 2.718.136 4.756.136 6.114.046 1.228.069 3.069.069 5.523v2.367c0 1.008.023 1.775.068 2.3.046.351.046.79 0 1.316a15.94 15.94 0 00-.068 1.315c0 .394.023.7.068.92 0 .35-.045.877-.137 1.578v1.643c0 .263-.022.46-.068.592h-.068c-.046-.088-.069-.22-.069-.394V25.052c.046-.526.069-1.315.069-2.367l-.205-4.273v-2.433c0-.131.022-.24.068-.328h.068l.069.328zm9.226 14.07a.703.703 0 01.068.328c-.045 0-.068.022-.068.066l-.615-1.315-2.392-6.114-.82-1.972-.068-.132-1.231-3.156-1.161-2.827-1.709-4.339-.137-.591h.137l7.996 20.052zm-13.19-12.886c.045 1.227.068 3.09.068 5.588l-.068 1.906a4.1 4.1 0 010 1.052v.724c0 .613.045 1.073.136 1.38.046.044.069.132.069.263l-.137 2.104.068 2.958V35.9l.206 4.602v.723c-.046 0-.069.022-.069.066a1.421 1.421 0 01-.068-.46c-.182-3.025-.274-7.54-.274-13.544V15.19h.069v1.973zm4.305-.198c.092.176.16 1.294.205 3.353.092 2.06.137 4.252.137 6.575 0 4.909-.091 7.538-.273 7.889l-.069-.066.137-2.104.068-2.564-.068-3.813c-.045-1.227-.068-3.111-.068-5.654-.046-.657-.069-1.665-.069-3.024v-.591zm8.817 11.506c-.365-.658-.57-1.096-.615-1.315l-.41-1.512-.41-1.315-1.367-3.156-1.982-5.194c-.456-1.051-.775-1.84-.957-2.366-.091-.176-.114-.307-.068-.395l.205.592 1.23 2.761.82 2.235c.091.176.137.307.137.395l1.64 4.01.683 1.512c.228.395.342.636.342.723.41 1.096.661 1.797.752 2.104.045.132.091.285.136.46.046.176.069.307.069.395-.046.044-.114.066-.205.066zm-13.464-3.748V5.395h.068v19.328h-.068zm1.845-1.446c-.227-2.937-.341-5.588-.341-7.955 0-1.359.045-3.397.136-6.114.046 1.14.046 2.147 0 3.024v4.602c0 2.893.069 5.04.205 6.443zM116.037 7.76c0-.92.045-2.3.137-4.141 0-.176.022-.33.068-.46.046-.132.091-.242.137-.33-.091 1.49-.16 3.156-.205 4.997a172.126 172.126 0 00-.069 3.813c0 1.403-.045 3.507-.136 6.312h-.069v-1.644l.137-8.547zm-4.032 20.71c.501 1.008 1.184 2.651 2.05 4.93.911 2.28 1.344 3.507 1.298 3.682a62.167 62.167 0 01-.956-2.432l-2.461-6.115c.046 0 .069-.021.069-.065zm3.417 5.39v.264h-.137l-3.895-9.599.205-.066 2.938 7.298.889 2.104zm-1.982-6.113c.045.131.114.262.205.394.091.131.159.285.205.46l.683 1.512c.091.438.183.745.274.92l.41.79.205.788c-.091 0-.16.022-.205.066-.182-.57-.501-1.38-.957-2.432a62.217 62.217 0 01-.957-2.433l.137-.066zm6.561-8.219h-.137c0-1.796.046-4.448.137-7.954v-.066 8.02zm-16.403 9.533c.046.482.069 1.206.069 2.17 0 .745-.023 1.293-.069 1.644h-.068v-5.983l.068 2.17zm16.54-24.325c0 1.184-.046 2.871-.137 5.062-.046-.175-.068-.723-.068-1.643 0-1.972.068-3.112.205-3.419zm.888 31.031h-.068v.066l-.069-8.284.137 8.218zm-5.194-25.903c-.046-.087-.068-.876-.068-2.367 0-1.577.022-2.432.068-2.564v4.931zm5.194-7.363l-.205 6.246h-.068l.205-6.246h.068zm-19 11.505V7.761h.069v6.246h-.069zM101.89 35.9l.205 3.879h-.137l-.137-3.88h.069zm15.377-12.031v4.996h-.068V23.87h.068zm-1.23-.724v2.433h-.068v-2.433h.068zm5.536 10.52l-.137-2.236h.205v2.235h-.068zm-6.014-18.409c.091-1.14.136-1.95.136-2.432v2.432h-.136zm5.604-8.678l.068-2.104v.066h.068v2.038h-.136zM101.001 40.37c0-.657-.022-1.14-.068-1.446h.137v1.446h-.069zm19.957-1.446v-2.367h.068v2.367h-.068zm-17.428-2.761v2.892h-.068v-2.892h.068zm12.439-16.173v-1.447 1.447zM103.53 33.664v1.907h-.068v-1.907h.068zm11.482 3.748c.228.482.387.767.478.855l-.137.065a1.72 1.72 0 01-.273-.46 1.921 1.921 0 00-.137-.395l.069-.065zm-8.543-1.315c.091.044.136.11.136.197 0 .175-.045.35-.136.526v-.723zm-2.802-17.093c-.046-.263-.069-.702-.069-1.315h.069v1.315zm16.266 4.01c0 .482.022.855.068 1.118h-.137v-1.118h.069zm-12.097-9.533c.045 0 .068-.022.068-.066l.547 1.315h-.069l-.546-1.249zm13.6-2.827l-.068-1.315h.068v1.315zm-19.683 15.647c0-.526-.023-.92-.068-1.183h.068V26.3zm14.011-15.515c.045.219.068.57.068 1.052h-.068v-1.052zm1.845 22.418c.091.263.137.46.137.592l-.137.066-.137-.658h.137zM102.095 6.052v1.183h-.069V6.052h.069zm5.194 1.578l.41.986h-.068l-.41-.92.068-.066zm-5.468 19.46v1.446h-.068V27.09h.068zm10.32-3.156l-.41-.854.137-.066.273.92zm-1.298-2.958c.045 0 .068-.022.068-.066l.41.855h-.068l-.41-.79zm-9.978-2.959h-.069v1.381h.069v-1.38zm3.69-.92c0 .175-.023.394-.068.657-.046.263-.023.483.068.658v.066l.069.591c0 .176-.046.439-.137.79v.262c0 .22.045.548.137.986l.205 3.288-.069.46c-.045-.132-.068-.329-.068-.592 0-.307-.091-.548-.274-.723v2.564l.274-.197c0 .175.023.306.068.394.046-.526.069-1.293.069-2.3 0-.921-.046-2.302-.137-4.143-.091-1.227-.137-2.147-.137-2.761zm.342 15.121v-.986a8.45 8.45 0 000-1.512 7.173 7.173 0 01-.068-.92c.045-.264.068-.483.068-.658 0-.395-.023-.68-.068-.855v4.931h.068zm-.41-17.817c-.046.527-.069 1.36-.069 2.499h.069l.068-2.498h-.068zm.82 18.737c.046 0 .068.022.068.066l.069-1.052h-.137v.986zm14.284.132a1.266 1.266 0 00-.137.592c.046.219.068.394.068.526.092-.439.137-.811.137-1.118h-.068zm-.069-1.775h-.068v.92h.068v-.92zM128.499.858c-.046.044-.068.132-.068.263v2.893c0 .394.045.986.136 1.775l-.068 3.09v.92c-.091 1.315-.137 2.28-.137 2.893l.069 2.761c.045.22.045.504 0 .855v2.827l-.205 2.038v11.439c.091.877.136 1.578.136 2.104v3.814c-.091 1.14-.136 1.973-.136 2.499 0 .482.022.832.068 1.052l.273.065-.205.395c.137.087.228.087.274 0 .045-.132.068-.22.068-.263a.787.787 0 00.342.066l.205.328.41-.131c.136-.044.296-.088.478-.132l.137.263c.091.088.159.132.205.132l.478-.066.069.066.205-.329c.045 0 .068.022.068.066.137.307.296.328.478.066.046-.044.137-.066.274-.066h.342c.318 0 .592.022.82.066l.136-.263c.091.219.274.284.547.197h.889l.068-.395c.091-1.227.137-2.191.137-2.892v-5.786c0-.307-.023-.591-.069-.855a5.073 5.073 0 01-.068-.854v-2.301c.045-.395.045-.723 0-.986v-.724h-.068v.198h-.137v-9.074l.068-.066v.263h.069v-1.38h-.069v.46c-.091-.701-.136-1.25-.136-1.644V11.64a4.1 4.1 0 000-1.052c0-.613-.023-1.095-.069-1.446l-.068-1.38V5.065c.045-.263.045-.482 0-.658v-.46c.091 0 .182.044.273.132l-.136-1.578c0-.175.022-.307.068-.395v-.723c.045-.087.045-.153 0-.197a25.08 25.08 0 01-.752-.92c0-.044-.045-.066-.137-.066l-.136.263-.41-.46c-.501 0-.82.175-.957.526l-.274-.066c-.227 0-.455.044-.683.131l-.41.198c-.046-.132-.114-.198-.205-.198-.046 0-.114.044-.205.132l-.068-.197c-.092 0-.228.043-.41.131-.137.088-.251.044-.342-.131h-.547l-.547.328h-.068zm1.777 13.74l-.068.066c-.046-.262-.069-.679-.069-1.249l.069-1.906c.091-1.271.113-2.214.068-2.827.091.175.137.394.137.657v.658c0 .306.045.767.136 1.38-.091-4.383-.136-7.714-.136-9.993l.136.132.069 1.446c.045.482.045.92 0 1.315v2.63l.205-.197.068 1.249h.068c.046-.307.069-.79.069-1.447v2.17h-.069l-.068-.197c.182 1.446.296 2.476.342 3.09h.136v-.987c-.091-.438-.136-.767-.136-.986V5.723c-.137-.131-.205-.24-.205-.328 0-.088.045-.198.136-.33.091-.174.16-.328.205-.46.228.22.342.57.342 1.053v.526c0 .394-.045.7-.137.92-.091.307-.091.526 0 .657.092.132.114.307.069.526 0 .22.023.373.068.46.091.176.114.395.068.658v.46l.069 8.35c0 .657-.046 1.6-.137 2.827l-.068 1.38.068 1.644-.068 7.166v3.747h-.137c0-.526-.023-.92-.068-1.183-.046-.92-.069-2.257-.069-4.01v-6.904l-.068-.657-.137.197h-.068l.137-.394c.091-.22.091-.395 0-.526-.046-.044-.069-.175-.069-.395.091-1.665.137-2.914.137-3.747l-.068-4.405c0-.219-.023-.394-.069-.526v1.973l-.068 1.38c0 .57-.023 1.008-.068 1.315-.091 2.893-.137 5.084-.137 6.574-.046.483-.068.92-.068 1.315.045.35.068.658.068.92v5.589c0 .087.023.153.068.197.046.044.069.088.069.132.091.175.136.284.136.328l.069 4.997h-.069l-.136-3.419h-.069v.723c0 .307-.045.68-.136 1.118a.56.56 0 00.068.263.482.482 0 01.068.197c0 .088-.022.22-.068.395 0 .175.023.394.068.657v.197c0 .263-.022.504-.068.724a6.125 6.125 0 01-.137.46c-.091-.745-.136-1.863-.136-3.353l-.137-3.353c0-.79-.046-1.929-.137-3.419 0 .263-.023.57-.068.92 0 .307.023.68.068 1.118 0 .965.023 1.666.069 2.104l.068 2.104v.657c0 .614-.068 1.074-.205 1.38h-.068l-.137-12.359h.137v.131c.182-.525.273-.876.273-1.051l-.137-.526-.136 1.052h-.069v.065l-.068-.197v-.263c0-.394.045-.68.137-.855.045-.087.045-.197 0-.328v-.329c-.046-.175-.069-.438-.069-.789 0-.394.046-.986.137-1.775.045-.394.068-.986.068-1.775 0-.175-.023-.373-.068-.592a3.192 3.192 0 01-.068-.657c0-.132.022-.263.068-.395.045-.131.068-.284.068-.46l-.068-.92zm-.41.658c0 .964-.046 2.367-.137 4.208l-.068 2.104.068 5.325v4.142l.068 6.18-.068.131c-.137-.482-.205-1.183-.205-2.104v-1.38c0-.614-.023-1.052-.068-1.315v-.066c.045 0 .068.044.068.131h.068v-.92c-.045-.789-.068-1.972-.068-3.55v-6.443c0-.92.046-2.213.137-3.879l-.069-6.311c-.045-1.271-.068-3.178-.068-5.72V4.41h.137v1.775l.205 9.072zm-.752-5.72c.046.22.068.592.068 1.118.046.745.069 1.907.069 3.485v4.076c-.046.7-.069 1.753-.069 3.155v6.706c-.045.877-.022 2.214.069 4.01 0 .526-.023.943-.069 1.25l-.068-.658-.068-7.692-.069-3.418c0-1.009.023-1.776.069-2.302l.068-2.366-.068-4.208V9.536h.068zm4.306 31.623c.136-2.63.205-6.552.205-11.768V15.256v6.246c0 .745.045 1.95.136 3.616v10.716l-.205 5.325h-.136zm-1.094-25.574l-.136-8.152h.136l.069 8.152h-.069zm-1.162 11.505c.046.57.023 1.337-.068 2.301l-.068 1.578V27.09h.136zm2.666-8.678v-4.273l.068-.066v4.339h-.068zm-.274-10.059v4.076h-.068V8.353h.068zm.137-.92V4.474h.068v2.959h-.068zm.068 5.654V9.405h.069v3.682h-.069zm-1.571 16.238v2.301-2.3zm-2.393 8.415v1.513h-.068V37.74h.068zm.411-32.411V2.765h.068v2.564h-.068zm-.684-2.827v1.446h-.068V2.502h.068zm2.597 14.2v1.907h-.068v-1.907h.068zM128.636 3.62V2.173h.068V3.62h-.068zm5.194 36.027v-1.052 1.052zm-2.119-5.128v1.25-1.25zm-1.162-22.55h-.068v1.446h.068V11.97zm-.205 14.003h.069v-1.249h-.069v1.25zm0 1.644h.069v-1.052l-.069-.066v1.118zm0-5.523h.069v-1.38h-.069v1.38zm32.153 20.315c.41-.087.569-.306.478-.657l-.068-.197c-.182.043-.274.022-.274-.066v-.527l-.683-3.352-.82-3.419-.957-4.404-.82-4.34a137.388 137.388 0 01-.889-4.404 352.975 352.975 0 01-1.298-6.838l-.889-4.536L155.252 5c-.136-.394-.25-1.03-.341-1.906 0-.088-.023-.417-.069-.987-.045-.57-.205-1.051-.478-1.446-.319.175-.57.153-.752-.066-.137-.131-.251-.175-.342-.131l-.751.394c-.092-.175-.16-.263-.205-.263-.274-.087-.479-.11-.616-.065-.318.087-.569.11-.751.065-.046-.043-.114-.043-.205 0a.541.541 0 01-.205.066c-.046 0-.16-.022-.342-.066-.182-.087-.365-.065-.547.066 0 .044-.023.066-.068.066-.046 0-.091-.022-.137-.066-.045 0-.137-.022-.273-.066a.758.758 0 01-.274-.131c-.182-.088-.319-.132-.41-.132-.091 0-.228.066-.41.198a1.024 1.024 0 01-.205.263 1.047 1.047 0 00-.205.263c-.41 1.358-.66 2.257-.752 2.695l-.615 2.959-.82 3.944-.068.263c0 .482-.046.833-.137 1.052l-.615 3.024c-.046.263-.068.68-.068 1.25l-.342 1.577-1.025 5.523c-.091.35-.182.57-.274.657a.622.622 0 00-.205.46 3.038 3.038 0 00-.068.723c0 .263-.023.483-.068.658l-.41 2.104a34.7 34.7 0 00-.342 1.906l-.273 1.447c-.319 1.095-.502 2.06-.547 2.892-.046.57-.205 1.381-.479 2.433l-.273.526v.131c.046 0 .046.022 0 .066 0 .175-.023.438-.068.789 0 .307-.069.592-.205.855l-.069.065c-.136-.043-.205 0-.205.132v.131l-.136 1.184-.137.526c0 .044-.046.197-.137.46 0 .044-.023.11-.068.197 0 .044.023.11.068.197.182.22.342.504.479.855l.136.131.205-.328.274.46c.592 0 .957-.175 1.093-.526l.342.066c.228 0 .433-.044.615-.132.228-.087.387-.153.478-.197.046.132.092.197.137.197.091 0 .182-.044.274-.131v.197l.478-.197.342.263v-.066c.182 0 .319.022.41.066l.205-.197c.136-.088.25-.132.341-.132.183 0 .274-.088.274-.263l.205-.986c.273-1.227.455-2.126.547-2.696l.41-2.235c0-.219.114-.328.341-.328.456 0 1.003-.023 1.641-.066a10.18 10.18 0 011.64 0l2.597.066c.729 0 1.276-.044 1.64-.132a.785.785 0 01.342-.066c.182 0 .273.088.273.263.091.35.137.614.137.79.228.963.592 2.782 1.093 5.456l.069.263c.091-.088.159-.132.205-.132l.205.395c0-.132.045-.285.137-.46 0 .043.045.153.136.328.091.132.251.197.479.197-.046-.087-.069-.24-.069-.46l.137-.263.205.132.137.131c.091.176.205.285.341.33.137 0 .297-.023.479-.067-.046-.131-.069-.328-.069-.591v-.066l.411.46.136-.066.137.263c0 .044.023.066.068.066.046 0 .091.022.137.066l.137-.197v-.395c.364.263.638.482.82.657.045 0 .091-.021.136-.065.092-.088.16-.066.206.066a.762.762 0 00.136-.198.441.441 0 01.205-.197c.046.088.16.175.342.263l.478.132.137-.198h.342zm-7.45-19.065a27.315 27.315 0 01-.341-1.512h.068c.091.7.182 1.205.273 1.512l.205.92.205 1.052.342 1.446h-.137l-.205-1.446-.273-.789-.137-1.183zm2.324-1.512c.091.482.273 1.205.547 2.17l-.137.065-.41-2.235-.41-1.644h.137c.091.701.182 1.25.273 1.643zm-5.126-5.523a218.552 218.552 0 011.367 7.166c.091.22.182.636.273 1.25h-.136l-1.777-9.534c-.091-.219-.182-.635-.274-1.249h.069l.205 1.25.273 1.117zm-6.697-.066l.341-1.578.342-1.775c.319-1.577.547-2.651.683-3.221.137-.657.456-2.06.957-4.208.137-.394.296-.986.479-1.775 0-.044.022-.065.068-.065l-.068.197-1.504 6.837-.752 3.55-.205.46-.205 1.578h-.136zm2.733-.197l-.068.132h-.068l.205-1.381.41-1.446.341-1.381.41-2.893c.228.395.342.877.342 1.447 0 .438-.068.898-.205 1.38.091 0 .137.022.137.066.091-.438.137-.723.137-.855h.136v.198c.046.087.046.197 0 .328-.182 1.052-.501 2.586-.957 4.602l-.683 3.616a4.623 4.623 0 01-.205.592l-.137.526a2.226 2.226 0 00-.136.723 5.69 5.69 0 01-.274 1.118 7.84 7.84 0 00-.273.92 27.032 27.032 0 00-.479 1.84v.921l-.273.526c-.182.439-.228.767-.137.986.046.044.046.132 0 .263l-.068.46c-.046.22-.114.373-.205.46-.091.088-.273.11-.547.067-.182-.044-.273-.154-.273-.33.045-.218.159-.657.342-1.314a3.44 3.44 0 00.205-.855l.205-.789c.455-1.665.774-2.936.956-3.813.228-.964.524-2.41.889-4.339l.41-1.643.888-4.537v-.197c-.136.175-.205.35-.205.526l-.136.855-.684 3.221zm.137 13.28c-.182 0-.296-.022-.342-.065 0-.088.023-.198.069-.33.045-.087.113-.503.205-1.248l.615-2.63c.501-1.972.82-3.243.957-3.813.182-.658.296-1.206.341-1.644l.342-1.578c.182-.876.342-1.534.478-1.972a133.18 133.18 0 011.641 8.284l.956 4.93h-.41l-4.852.066zm.683-21.103c.274.087.342.263.205.526-.091.57-.273 1.6-.546 3.09l-1.025 5.127-.274 1.447a182.7 182.7 0 00-.547 2.893 1.213 1.213 0 00-.068.394.58.58 0 010 .394l-.615 2.564v.395a.56.56 0 00-.068.263c.045.044.045.11 0 .197a7.816 7.816 0 00-.615 1.907c-.092.701-.16 1.14-.206 1.315-.045.219-.113.35-.205.394-.045.044-.182.022-.41-.066 0-.131.023-.24.069-.328.501-2.367.865-3.967 1.093-4.8l.82-3.221.547-2.893.684-3.155.615-3.353c0-.044.068-.483.205-1.315l.136-.263.205-.92c.046-.132.046-.242 0-.33v-.262zm4.101 10.19c-.046-.044-.068-.088-.068-.132 0-.087-.023-.153-.069-.197h-.068l.342 1.841h.068l.068-.197c.046.087.092.285.137.591a1.37 1.37 0 010 .855v.132c0 .263.091.482.273.657v.066c.137.394.205.81.205 1.249l-.068-.263h-.068l.478 2.564c0-.044.023-.066.069-.066v-.329c.364 1.403.615 2.477.751 3.222-.045-.044-.114-.066-.205-.066l.137.855h-.137l-.068-.197-.41-2.104c-.273-1.14-.456-1.973-.547-2.498l-1.64-8.679c-.273-1.227-.456-2.147-.547-2.76a1.95 1.95 0 00-.068-.33c-.046-.175.023-.284.205-.328.045 0 .045-.022 0-.066v-.197h.068l1.23 6.377h-.068zm1.23-2.367l-1.64-8.284h.068l.41 1.644c0-.22-.068-.57-.205-1.052-.091-.526-.136-.92-.136-1.183 0-.132.045-.373.136-.723l.205 1.446c.365 1.315.615 2.323.752 3.024.091.307.182.767.274 1.38.136.483.296 1.206.478 2.17l.068.395v.789l.274 1.84.478 2.302c0 .219-.023.372-.068.46l-2.051-9.993 1.026 5.785h-.069zm-7.723 13.215a.703.703 0 00.069-.33l1.435-6.508c.182-.745.296-1.249.342-1.512l.341-1.512 1.026-5.062.41-1.841h.136v.263a85.83 85.83 0 00-.888 4.076c-.456 2.367-.82 4.12-1.094 5.26l-1.503 6.771-.137.395h-.137zm5.81-20.447c.091.176.182.482.273.92.091.395.205.702.342.921-.091.307-.023.548.205.723v.132c.045.087.022.153-.069.197-.045.044-.068.132-.068.263a.483.483 0 01.068.197l.547 2.498c.182 1.14.501 2.893.957 5.26l.205 1.315h-.137l-2.323-11.9a.562.562 0 01-.069-.263.561.561 0 00.069-.263zm-2.666 9.139c-.045.219-.091.504-.137.854a5.852 5.852 0 01-.273 1.052l-.888 4.076-.957 4.405a.702.702 0 00-.069.329c.046.088.046.197 0 .329l-.136.263c-.091 0-.137-.022-.137-.066L150.4 14.73h.137l-.684 3.222zm-1.845 12.557c.228-.132 1.321-.198 3.28-.198 1.595 0 2.484.044 2.666.132a1.573 1.573 0 01-.479.066h-5.467zm-4.579 10.453c0-.526.068-.899.205-1.118.137-.35.25-.876.342-1.578a9.6 9.6 0 00.41-2.17c0 .045-.046.11-.137.198-.046-.219-.046-.35 0-.394.046-.088.182-.132.41-.132l-1.093 5.851-.137-.065v-.592zm-.205-2.564c-.091-.35-.137-.592-.137-.723 0-.307.091-.767.274-1.38l.273-.461.137-.132.136.263-.205 1.184-.068.197c.045.044.068.132.068.263s-.068.285-.205.46a1.421 1.421 0 00-.273.329zm13.942 0c0 .131.023.22.068.263a.936.936 0 01.205.592v.46l.069.855h-.069l-.136-.264-.82-4.207c-.046-.088-.069-.22-.069-.395v-.065h.069l.136.328.547 2.433zm-2.939-6.246c-.182.088-1.549.132-4.1.132-1.367 0-2.165-.022-2.392-.066v-.066h6.492zm1.709-18.21l1.025 5.522h-.137l-1.025-5.457.137-.066zm-8.407 18.67h6.63v.066h-6.63v-.066zm0 .264l6.767-.132v.197h-6.767v-.066zm8.748-8.679a381.61 381.61 0 00-.546-3.024h.068c.091.395.251 1.14.478 2.235h.137l-.205-1.117h.068l.342 1.512c-.045 0-.068.022-.068.066a97.6 97.6 0 01-.205-.198c.045.132.068.285.068.46l-.137.066zm5.058 17.225c-.228-.394-.387-.876-.478-1.446a21.701 21.701 0 00-.137-1.315c.41 1.008.615 1.928.615 2.761zm-16.744-.92l.888-4.668h.137l-.957 4.668h-.068zm6.287-9.73l-.751.131c-.365.088-.638.132-.821.132a1.57 1.57 0 01-.478-.066 2.693 2.693 0 01-.342-.132v-.065h2.392zm-6.287-9.599l.82-4.273h.068l-.82 4.273h-.068zm9.021 8.744h-2.939v-.066h3.007l-.068.066zm-.205-15.187l.683 3.616h-.068l-.683-3.616h.068zm5.331 20.775c.045.132.25 1.03.615 2.696h-.068l-.616-2.696h.069zm-6.424-25.18c.136.482.296 1.25.478 2.301h-.068a98.721 98.721 0 01-.479-2.3h.069zm1.64 20.71h-1.914v-.066l1.914-.066v.132zm4.237 6.508c.228.965.387 1.6.478 1.907h-.136l-.41-1.907h.068zm-16.676-1.972l-.136.657-.137.658-.137.723h-.068l.41-2.038h.068zm12.234-22.221l.41 2.103h-.069v.066l-.41-2.17h.069zm-9.432 9.401a30.44 30.44 0 01-.341 1.71h-.069l.342-1.71h.068zm3.144-8.547l.342-1.643h.068l-.342 1.643h-.068zm8.201-1.052a16.62 16.62 0 01-.273-1.314h.068l.274 1.314h-.069zM145.411 40.7c.091-.526.182-.964.273-1.315h.069l-.274 1.315h-.068zm-1.162-11.637c.091-.7.182-1.205.273-1.512l-.205 1.512h-.068zm14.079-2.366c-.091-.22-.182-.636-.274-1.25h.069l.273 1.25h-.068zm1.64 14.595c0-.395-.023-.68-.068-.855h.068l.137.855h-.137zm-4.784-30.242l-.205-1.052h.068l.205 1.052h-.068zm-.752 9.532l-.205-1.117h.069l.205 1.117h-.069zm2.324 19.855c0 .395.023.68.068.855h-.136v-.855h.068zm-11.345-16.633l-.274.986h-.068l.273-.986h.069zm4.237-10.98l-.137-.065-.41 2.17h.137l.41-2.104zm-1.093 6.05c-.365.306-.547.766-.547 1.38l.547-1.38zm.205-2.17c.091-.22.182-.548.273-.987h-.068c-.091.22-.183.548-.274.987h.069zm-1.231 5.654h.069l.273-1.052h-.068l-.274 1.052zm7.382 5.259h.068l-.205-.92h-.068l.205.92z" fill="#2E3741"/></svg>